<?xml version="1.0" encoding="utf-8"?>
<!-- Generator: Adobe Illustrator 21.0.0, SVG Export Plug-In . SVG Version: 6.00 Build 0)  -->
<svg version="1.1" id="Layer_1" xmlns="http://www.w3.org/2000/svg" xmlns:xlink="http://www.w3.org/1999/xlink" x="0px" y="0px"
	 viewBox="0 0 160 160" style="enable-background:new 0 0 160 160;" xml:space="preserve">
<style type="text/css">
	.st0{fill:#D6E8EA;}
	.st1{fill:#63BCC0;}
	.st2{fill:#FFFFFF;}
	.st3{fill:#354E69;}
	.st4{fill:#F8EEE7;}
	.st5{fill:#1DA3D1;}
	.st6{fill:#E5E2E8;}
	.st7{fill:#FF6300;}
	.st8{fill:none;stroke:#FFFFFF;stroke-linecap:round;stroke-miterlimit:10;}
	.st9{fill:#19100C;}
	.st10{fill:#AA3350;}
	.st11{fill:#E7A945;}
	.st12{fill:#262970;}
	.st13{fill:#1D2051;}
	.st14{fill:#180F33;}
	.st15{opacity:0.45;fill:#0F2328;enable-background:new    ;}
	.st16{fill:#22364C;}
	.st17{fill:#F5A584;}
	.st18{fill:#FF9382;}
	.st19{fill:#FFC5BC;}
	.st20{fill:#FF9697;}
	.st21{fill:#4C1813;}
	.st22{fill:#603128;}
	.st23{fill:#DB8B78;}
	.st24{fill:#D04B63;}
	.st25{fill:#34454F;}
	.st26{fill:#BA8479;}
	.st27{fill:#FACAF4;}
	.st28{fill:#20354C;}
	.st29{fill:#132433;}
	.st30{fill:#31567E;}
	.st31{fill:#E0948C;}
	.st32{fill:#274968;}
	.st33{fill:#5BA1DB;}
	.st34{fill:#31547B;}
	.st35{fill:#443C61;}
	.st36{font-family:'ArialMT';}
	.st37{font-size:4.4452px;}
	.st38{fill:#CEC2BA;}
	.st39{fill:#E0BCA4;}
	.st40{fill:#D9876F;}
	.st41{fill:none;stroke:#180F33;stroke-linecap:round;stroke-linejoin:round;}
	.st42{fill:#AA8B61;}
	.st43{fill:none;stroke:#FFFFFF;stroke-linecap:round;stroke-linejoin:round;}
	.st44{fill:none;stroke:#FFFFFF;stroke-width:4;stroke-linecap:round;stroke-linejoin:round;}
</style>
<title>website</title>
<g id="Character">
	<path class="st0" d="M116.6,43.1v-1.6v-0.6c0.7-6.2,5.3-11.2,11.4-12.2c0.6-0.1,1-0.1,1.6-0.2h1.6h0.3c2.2,0.1,4.2,0.8,6.1,1.9
		c3.5,2.1,5.9,5.6,6.6,9.6c0.1,0.6,0.1,1,0.2,1.6v1.6v0.6C143.8,49.9,139.2,55,133,56c-0.6,0.1-1,0.1-1.6,0.2h-1.6h-0.2
		c-2.2-0.1-4.2-0.8-6.1-1.9c-3.5-2.1-5.9-5.6-6.6-9.6C116.7,44.2,116.7,43.7,116.6,43.1z M142.2,42.3c0-6.5-5.3-11.8-11.8-11.8
		s-11.8,5.3-11.8,11.8s5.3,11.8,11.8,11.8l0,0C136.9,54.1,142.2,48.8,142.2,42.3z"/>
	<path class="st0" d="M129.4,39.1c0-1,0-2.2,0-3.2c0-0.6,0.5-1.1,1-1.1c0.1,0,0.3,0,0.5,0.1c0.5,0.2,0.7,0.7,0.7,1.1
		c0,1.8,0,3.5,0,5.4c0,0.2,0.1,0.6,0.3,0.7l3.4,2.6c0.5,0.3,0.6,1,0.3,1.5s-1,0.6-1.5,0.3l0,0c-0.5-0.2-0.8-0.6-1.1-0.9
		c-1-0.8-1.9-1.5-3-2.2c-0.5-0.2-0.7-0.7-0.6-1.3C129.4,41.1,129.4,40.1,129.4,39.1z"/>
	<path class="st0" d="M159.2,139.1H4.3c0,0-10.2-39.3,26.5-47.8s5.9-13.1,0.9-27.2S76.3,3,104.1,46.4s24.5,43.7,36,21.1
		C151.7,45,159.2,139.1,159.2,139.1z"/>
	<circle class="st0" cx="11.5" cy="70.3" r="3.2"/>
	<circle class="st0" cx="19.3" cy="42.1" r="1.4"/>
	<circle class="st0" cx="37.9" cy="35.3" r="1.1"/>
	<circle class="st0" cx="148" cy="54.2" r="1.3"/>
	<circle class="st0" cx="104.6" cy="31.4" r="1.4"/>
	<circle class="st0" cx="113.1" cy="21.6" r="0.8"/>
	<path class="st1" d="M156.7,130.2c-2.7,1.4-4.9,3.5-6.2,6.3c2.4-5.4,7.7-17.1,4.1-15c-3.5,2.2-4.7,10.9-5,15.1
		c0.2-4.9,0.5-16-3.2-17.1c-3.8-1.1,0.6,12.5,2.4,17.6c-1-2.4-3.1-5.9-6.1-5.1c-4.5,1.1,6.7,7.1,6.7,7.1
		C157.8,133.6,161.4,128.5,156.7,130.2z"/>
	<path class="st2" d="M157.8,130.5L157.8,130.5c-1.3,0.8-2.4,1.8-3.4,2.7l0,0c-0.7,0.6-1.3,1.3-1.9,1.8l0.6-1.8l0,0l0,0l-0.6,1.8
		c-1.6,1.6-2.7,2.9-2.7,3l0,0l0,0l0.8-0.9l1.4-0.3l0,0l0,0l-1.1,0.3c0.9-0.9,2.4-2.4,3.9-3.9l1.5-0.1l-1.4,0.1
		c1-0.9,2.2-1.8,3.3-2.6L157.8,130.5z"/>
	<path class="st2" d="M149.8,137.6L149.8,137.6L149.8,137.6c0,0,0.1-0.6,0.3-1.5l0.9-1.1l0,0l0,0l-0.8,1c0.3-1.8,1-4.7,1.8-7.4
		l1.9-1.4l0,0l0,0l-1.8,1.4c0.6-2.3,1.6-4.3,3-6.2l0,0l0,0c-0.9,1-1.5,2.2-1.9,3.3l-0.3-1.8l0,0l0,0l0.1,1.8l0,0
		c-0.3,0.8-0.7,1.8-1,2.7l0,0c-0.3,1-0.6,2.1-0.9,3.1l-0.3-1.6l0.3,1.8l0,0C150.3,134.8,149.7,137.5,149.8,137.6L149.8,137.6
		L149.8,137.6z"/>
	<path class="st2" d="M146.6,135.6l-0.5-1.6l0,0l0,0l0.5,1.5l-1.8-1.4l0,0c-1.1-0.9-2.2-1.6-2.2-1.6l0,0l0,0c0,0,0.9,0.7,2.1,1.5
		h-1.5h1.6c1.6,1.1,3,2.3,4.3,3.7l0,0l0,0C148.3,136.9,147.5,136.1,146.6,135.6z"/>
	<path class="st2" d="M149.5,133.7L149.5,133.7l-0.5,1.4c-0.1-1.6-0.5-3.9-0.8-6.3l0.8-2.3l0,0l0,0l-0.7,2.2
		c-0.2-1.8-0.6-3.4-0.8-4.9l0.5-2.2l0,0l0,0l-0.3,1.9c-0.2-1.3-0.6-2.4-1.1-3.5l0,0l0,0c0.8,1.8,1.4,3.8,1.6,5.8l-2.2-0.9l0,0l0,0
		l1.9,1.1c0.3,1.8,0.6,3.8,0.8,5.5l-1.3-0.7l0,0l0,0l1.4,0.8c0.3,3,0.6,5.4,0.6,5.5l0,0l0,0l0,0c0-0.1,0-0.8-0.1-1.8l0.5-1.6
		L149.5,133.7L149.5,133.7z"/>
	<path class="st1" d="M14.2,130.9c0.5-0.8,3.8-7,2.1-10.4c-0.2-0.5-0.5-0.7-0.7-0.7s-0.9,0-1.4,5.6c-0.1,1.8-0.2,3.4-0.2,4.5
		l-0.1-0.2l0,0c-0.3-1-0.8-2.1-1.3-3.2l0,0L12,125c0.2-0.8,3-10.2,0.5-13.3c-0.2-0.3-0.5-0.5-0.7-0.5c-0.1,0-0.2,0.1-0.3,0.2
		c-1,1.1-0.2,9,0,12.3c-1-2.4-2.2-4.7-3.4-7l0,0c-0.8-1.5-1.6-2.9-2.6-4.2c-0.1-0.1-0.2-0.1-0.2,0s-0.1,0.2,0,0.2
		c0.8,1,1.6,2.2,2.3,3.3c-1.7-0.7-5.6-3-6.8-3c-0.2,0-0.5,0.1-0.6,0.2c-0.1,0.2,0,0.7,0.2,1.3c1.1,1.8,3.2,2.9,5.4,2.7l0,0
		c0.7,0,1.4-0.1,2.1-0.2c1.6,2.9,3,5.7,4.1,8.8c-1.8-1.5-6.7-5.8-8.5-5.8c-0.2,0-0.3,0.1-0.6,0.2c-0.1,0.2-0.2,0.5-0.2,0.7
		c0.1,3,8.5,5.5,9.5,5.7c0.3,0.9,0.7,1.8,1,2.7c-2.4-1.1-4.9-1.9-7.7-2.3c-0.7-0.1-1.5,0.2-1.9,0.8c-0.1,0.2-0.1,0.6,0,0.8
		c0.5,0.8,3,1.3,7.7,1.3l0,0h2.2c1.5,4.1,2.4,7.1,2.4,7.2c0,0.1,0.1,0.1,0.2,0.1l0,0c0.1,0,0.2-0.1,0.2-0.1c0-0.1,0-0.1-0.1-0.2
		C16.2,136.9,15.4,134.4,14.2,130.9z M14.5,125.5c0.5-5.1,1-5.4,1-5.4s0.1,0,0.3,0.5c1.4,2.9-0.8,7.7-1.7,9.5
		C14.2,129,14.3,127.2,14.5,125.5L14.5,125.5z M11.5,111.5L11.5,111.5c0.2,0,0.2,0,0.6,0.3c1.9,2.5,0.3,9.6-0.3,12.1
		C11.4,120.1,10.6,112.5,11.5,111.5z M5.7,116.8L5.7,116.8c-2.1,0.1-4-0.8-5-2.5c-0.3-0.7-0.3-0.8-0.2-0.9s0.1,0,0.2,0
		c1.4,0,5.5,2.5,6.7,3.3C6.8,116.8,6.3,116.8,5.7,116.8z M2.9,120.8c0-0.1,0-0.2,0.1-0.3c0.1,0,0.2,0,0.2,0c1.4,0,5.7,3.4,8.2,5.6
		C9.3,125.3,3.1,123.1,2.9,120.8z M11.2,129.5L11.2,129.5c-4.2,0-7-0.3-7.3-1c0,0,0-0.2,0-0.5c0.5-0.5,1-0.7,1.6-0.6
		c2.5,0.3,4.9,1,7.1,2.1H11.2z"/>
	<path class="st3" d="M42,64.1h77.4c2.1,0,3.8,1.7,3.8,3.8v59.4c0,2.1-1.7,3.8-3.8,3.8H42c-2.1,0-3.8-1.7-3.8-3.8V67.9
		C38.3,65.8,40,64.1,42,64.1z"/>
	<rect x="41.8" y="67.3" class="st4" width="77.8" height="59.6"/>
	<rect x="76.3" y="74.3" class="st2" width="41.7" height="37.7"/>
	<rect x="77.6" y="76.2" class="st5" width="39.3" height="2.6"/>
	<circle class="st3" cx="115.2" cy="82.6" r="1.3"/>
	<circle class="st3" cx="115.2" cy="87.1" r="1.3"/>
	<circle class="st3" cx="115.2" cy="91.7" r="1.3"/>
	<circle class="st3" cx="115.2" cy="96.6" r="1.3"/>
	<rect x="77.6" y="81.3" class="st6" width="34.7" height="1"/>
	<rect x="77.6" y="83" class="st6" width="17" height="1"/>
	<rect x="77.6" y="85.7" class="st6" width="34.7" height="1"/>
	<rect x="77.6" y="87.5" class="st6" width="17" height="1"/>
	<rect x="77.6" y="90.3" class="st6" width="34.7" height="1"/>
	<rect x="77.6" y="92.1" class="st6" width="17" height="1"/>
	<rect x="77.6" y="95.2" class="st6" width="34.7" height="1"/>
	<rect x="77.6" y="97" class="st6" width="17" height="1"/>
	<rect x="43.8" y="106.6" class="st1" width="12.1" height="1.9"/>
	<rect x="43.8" y="110.3" class="st1" width="12.1" height="1.9"/>
	<path class="st7" d="M74,96.7v14.4c-0.1,0.3-0.2,0.8-0.6,1c-0.2,0.2-0.6,0.3-0.8,0.3H58.3c-0.3,0-0.8-0.2-1-0.6
		c-0.2-0.2-0.3-0.6-0.3-0.8V96.6c0.1-0.3,0.2-0.8,0.6-1c0.2-0.2,0.6-0.3,0.8-0.3h14.4c0.3,0,0.8,0.2,1,0.6C73.9,96,74,96.3,74,96.7z
		 M73,103.8c0-2.3,0-4.6,0-6.9c0-0.3-0.1-0.6-0.5-0.7c-0.1,0-0.1,0-0.2,0H58.6c-0.5,0-0.7,0.2-0.7,0.7c0,4.6,0,9.1,0,13.7
		c0,0.5,0.2,0.7,0.7,0.7h13.7c0.5,0,0.7-0.2,0.7-0.7C73,108.3,73,106.1,73,103.8L73,103.8z"/>
	<path class="st7" d="M66.5,105.7l0.9-0.9l0.2-0.2c0.2-0.2,0.6-0.2,0.8-0.1c0,0,0,0,0.1,0.1l0,0l2.5,2.6c0.1,0.1,0.2,0.2,0.2,0.3
		c0.1,0.2-0.1,0.6-0.3,0.6c0,0,0,0-0.1,0H60.2c-0.3,0-0.6-0.1-0.6-0.5c0-0.2,0-0.3,0.2-0.6l1.1-1.1l2.5-2.5c0.2-0.2,0.6-0.3,0.8-0.1
		c0.1,0,0.1,0.1,0.1,0.1l2.1,2.1L66.5,105.7L66.5,105.7z"/>
	
		<ellipse transform="matrix(6.282907e-03 -1 1 6.282907e-03 -34.414 167.5943)" class="st7" cx="67.1" cy="101.1" rx="1.6" ry="1.6"/>
	<rect x="43.8" y="113" class="st7" width="54.5" height="12.3"/>
	<circle class="st5" cx="108.6" cy="119.3" r="5.4"/>
	<rect x="44.2" y="74.3" class="st1" width="30.5" height="1.9"/>
	<rect x="44.2" y="77.9" class="st1" width="30.5" height="1.9"/>
	<rect x="44.2" y="81.6" class="st1" width="10.4" height="1.9"/>
	<line class="st8" x1="45" y1="123.4" x2="96.8" y2="123.4"/>
	<line class="st8" x1="45" y1="121.1" x2="96.8" y2="121.1"/>
	<line class="st8" x1="45" y1="119.3" x2="96.8" y2="119.3"/>
	<line class="st8" x1="45" y1="117" x2="96.8" y2="117"/>
	<line class="st8" x1="45" y1="115.1" x2="96.8" y2="115.1"/>
	<rect x="41.8" y="67.3" class="st9" width="77.8" height="4.3"/>
	<circle class="st10" cx="43.9" cy="69.5" r="1.1"/>
	<circle class="st11" cx="47.1" cy="69.5" r="1.1"/>
	<circle class="st4" cx="50.5" cy="69.5" r="1.1"/>
	<path class="st12" d="M66.7,134.6h28c1.4,0,2.4,1.1,2.4,2.4v0.2l0,0H64.2l0,0v-0.1C64.2,135.8,65.4,134.6,66.7,134.6z"/>
	<polygon class="st13" points="80.8,131.1 71.6,131.1 73,134.6 80.8,134.6 88.4,134.6 89.8,131.1 	"/>
	<polygon class="st14" points="89.8,131.1 72.4,133.2 71.6,131.1 	"/>
	<path class="st9" d="M4.3,137.4h154.9c0.5,0,0.8,0.3,0.8,0.8v0.2c0,0.5-0.3,0.8-0.8,0.8H4.3c-0.5,0-0.8-0.3-0.8-0.8v-0.2
		C3.5,137.7,3.9,137.4,4.3,137.4z"/>
	<path class="st15" d="M69,69.1L69,69.1l-4.3,1.5c-1,0.3-1.6,1.5-1.3,2.6c0.3,1,1.5,1.6,2.6,1.3l0,0l6.1-2.2
		c0.7-0.2,1.1-0.8,1.4-1.6h0.2c0.2,0.5,0.7,0.8,1.1,0.9l6.1,2.2c1,0.3,2.2-0.2,2.6-1.3c0.3-1-0.2-2.2-1.3-2.6l0,0l-4.1-1.4
		c1.8-1.3,3.5-2.7,5-4.5h-23C62.8,65.9,66.4,67.8,69,69.1L69,69.1z"/>
	<path class="st15" d="M46.4,93.4l0.6,0.5l0.2-1.1l-0.3-0.2L48,92l0.9-2.4l-0.7,0.3l2.2-1.4l4.1-5.5l-6.7,1.4l-9.6,5.9v5.8l6.3-4
		l0,0L40,96l-1.8,0.2v3.4l2.9-0.9L46.4,93.4z M45.9,91.4l-0.1,0.2l0.9,0.7l-1-0.8L45.9,91.4z"/>
	<path class="st15" d="M121,64.9v7.3h-2.3v17h4.5V68.8C123.2,67.2,122.4,65.7,121,64.9z"/>
	<rect x="78" y="117.9" class="st15" width="29.6" height="13.3"/>
	
		<rect x="8.5" y="94.3" transform="matrix(0.8479 -0.5302 0.5302 0.8479 -46.7251 30.6941)" class="st1" width="43.2" height="4.9"/>
	
		<rect x="7.9" y="94.5" transform="matrix(0.8479 -0.5302 0.5302 0.8479 -46.2462 30.1913)" class="st7" width="43.2" height="2.4"/>
	
		<rect x="11.6" y="104.9" transform="matrix(0.8479 -0.5302 0.5302 0.8479 -54.9036 23.3123)" class="st7" width="3.2" height="4.9"/>
	
		<rect x="14.5" y="103.8" transform="matrix(0.8479 -0.5302 0.5302 0.8479 -54.0491 24.0988)" class="st16" width="0.9" height="4.9"/>
	<polygon class="st17" points="47.1,83.2 53.8,81.8 49.7,87.3 	"/>
	<polygon class="st3" points="53.8,81.8 51,82.5 52,84.2 	"/>
	<polygon class="st18" points="32.2,94.6 31.8,96 29.6,94.2 30.7,93 	"/>
	<polygon class="st18" points="30.2,123.9 27.9,128.1 26.3,128.1 27.6,122.9 	"/>
	<polygon class="st18" points="17.9,126.1 15.5,130.3 14,130.3 15.3,125 	"/>
	<polygon class="st1" points="18.5,126.5 19.9,124.5 19.2,124 25.6,103 19.6,101.8 19,103.2 14.6,122.3 14,122.3 13.8,125.4 	"/>
	<path class="st14" d="M24.7,102.7l-5.1-1l-0.7,1.4l-0.1,0.7c-0.1,0.7,0.1,1.4,0.6,1.8c0.7,0.9,4.1,4.2,4.1,4.2l2.1-6.6L24.7,102.7z
		"/>
	<path class="st1" d="M34.5,113.6L34.5,113.6c0.3-1,0-2.3-0.8-3l-10.1-9c-1.1-1-3-0.9-4.1,0.2c-1,1.1-0.9,3,0.2,4.1l8.9,8l-2.7,7.9
		c-0.2,0.1-0.5,0.1-0.7,0.2c0.1,0.8,0.2,1.7,0.3,2.5l4.9-0.6l1.4-2.2h-0.6l3-7.8C34.4,113.8,34.5,113.7,34.5,113.6z"/>
	<path class="st14" d="M27.9,105.4L27.9,105.4l-4.1-3.8c-1.1-1-3-1-4.1,0.2l0,0l-0.2,0.1l6.3,4L27.9,105.4z"/>
	<polygon class="st3" points="44.9,90.3 46.3,91.4 46.2,92.6 45.6,92.1 40.3,97.6 29.5,101 27.9,104.8 27.9,105.4 25.9,105.7 
		18.5,101 18.6,100.2 29.1,93.8 29.6,93.9 32.4,95.8 39.3,94.7 43.9,91 43.4,90.6 	"/>
	<polygon class="st3" points="29.1,93.8 22,96 20.7,99.1 	"/>
	<circle class="st19" cx="33.1" cy="91.2" r="3.5"/>
	
		<ellipse transform="matrix(6.982342e-02 -0.9976 0.9976 6.982342e-02 -60.9897 116.5375)" class="st20" cx="32" cy="91" rx="1.8" ry="1"/>
	<path class="st21" d="M36.9,89.9c0,0-0.1-3.9-5.4-2.4c0,0,1.1-1.4-0.5-1.8c0,0,1.1-1.8-2.5-1.5c-3.7,0.2-5.5,4.2-4.6,5.7
		s2.4-1.3,2.4-1.3s0.5,2.2,2.5,0.5h0.6c0,0-1,3.8,1,4.7c1.9,0.9,1.8-0.9,1.8-0.9c-0.7-0.5-0.8-1.4-0.5-2.1c0.8-1.3,1.1-0.3,0.9,0.3
		c-0.2,0.7-0.8,2.4,0.8-0.2c0,0,0.9,0.8,1.1-0.2c0,0,0.9,0.7,1-0.2l0,0c0,0,1.1,1.6,0.9-0.1c0.2,0.8,0.1,1.6-0.1,2.4
		C36.4,92.7,37.6,92.1,36.9,89.9z"/>
	<path class="st16" d="M24.4,129.1h8c0,0,0.2-1.5-4-2.3c0,0-0.9,1.5-1.9,0.2c-0.9-0.2-1.9,0.5-2.1,1.4
		C24.4,128.7,24.4,128.9,24.4,129.1z"/>
	<path class="st16" d="M11.8,130l7.8,2.3c0,0,0.7-1.4-3.2-3.3c0,0-1.3,1.1-1.9-0.3c-0.9-0.5-1.9-0.1-2.4,0.7
		C11.9,129.5,11.8,129.7,11.8,130z"/>
	<polygon class="st14" points="26,121.7 31.4,121.7 26.2,121.5 	"/>
	<polygon class="st14" points="14.6,122.3 19.2,124 14.7,121.8 	"/>
	<polygon class="st14" points="20.7,99.1 29.1,93.8 20.9,98.4 	"/>
	<polygon class="st19" points="45,90.4 45.8,88.7 46,88.9 45.9,89.7 48.2,88.3 47.3,90.7 46.2,91.2 	"/>
	<rect x="116.6" y="118.1" class="st22" width="0.8" height="19.3"/>
	<rect x="128.3" y="118.1" class="st22" width="0.8" height="19.3"/>
	<rect x="115" y="116.6" class="st23" width="15.4" height="1.6"/>
	<path class="st24" d="M132,132.5c-1,2.4-2.7,1-2.7,1c-0.5,0.3-0.8,0.8-1.1,1.3c-1.3,0.5-2.3,1.5-2.7,2.6h4.8l4.2-3.2
		C135.2,132.6,132,132.5,132,132.5z M126.9,137L126.9,137z M127.1,136.5L127.1,136.5z"/>
	<path class="st24" d="M115.5,131.8c0,0-0.5,2.1,2.1,2.1c0,0,1.3,3-0.6,2.9l-8.3-4.2C108.8,132.5,110.4,130,115.5,131.8z"/>
	<path class="st25" d="M128.3,116.6h-12.7l-4.1-9c-0.1-0.3,0-0.7,0.2-0.8l0,0c0.1-0.1,0.2-0.1,0.5-0.1h11.7L128.3,116.6z"/>
	<polygon class="st2" points="123.4,107.2 112.3,107.2 116,115.2 127,115.2 	"/>
	<polygon class="st3" points="113.3,108.3 116.3,114.7 120.1,114.7 117.4,108.3 	"/>
	<polygon class="st26" points="112.3,107.2 123.4,107.2 123.8,108 112.7,108 	"/>
	<ellipse transform="matrix(0.8985 -0.439 0.439 0.8985 -34.7869 64.5509)" class="st2" cx="122.2" cy="107.5" rx="0.1" ry="0.2"/>
	<ellipse transform="matrix(0.8985 -0.439 0.439 0.8985 -34.7585 64.73)" class="st2" cx="122.6" cy="107.5" rx="0.1" ry="0.2"/>
	<ellipse transform="matrix(0.8985 -0.439 0.439 0.8985 -34.6999 64.9443)" class="st2" cx="123.1" cy="107.5" rx="0.1" ry="0.2"/>
	<polygon class="st27" points="117.8,108.3 118.1,108.8 123.9,108.8 123.7,108.3 	"/>
	<polygon class="st27" points="118.2,108.9 118.4,109.4 124.2,109.4 123.9,108.9 	"/>
	<polygon class="st7" points="121.6,121.7 127.4,133 132.3,130.2 126.5,117.1 125.5,116.3 	"/>
	<polygon class="st14" points="129.3,123.1 124.7,127.8 121.6,121.7 125.5,116.3 126.5,117.1 	"/>
	<path class="st7" d="M143.7,120c0,0-0.7,2.7-5.8,2.7h-8.7l-9.1,10.4l-4.2-3.3l9.9-13.6l9.4-0.1C134.7,116.2,143.2,118.7,143.7,120z
		"/>
	<polygon class="st14" points="124.9,117 130.6,117.9 132.1,116.2 125.5,116.3 	"/>
	<path class="st14" d="M134.9,116.2l8.3,4.7c0.2-0.2,0.3-0.6,0.5-0.9C143.2,118.7,134.9,116.2,134.9,116.2z"/>
	<path class="st1" d="M121.3,113.7l-0.3,2.4l9.7,1.9l4-5.7l0.2,4l9,3.9c0,0,2.1,1.3,1.4-2.2c-0.8-3.4-5-15.9-5-15.9l0.1-1.5
		l-4.5,1.4l-1,0.9l-7.1,9.9L121.3,113.7z"/>
	<path class="st19" d="M121.1,113.8c0,0-3.5,0.1-4.8,2.1l4.6,0.1L121.1,113.8z"/>
	<polygon class="st18" points="138.2,100.2 138.5,101.1 135.8,102.1 134.9,102.9 134.5,100.7 	"/>
	<circle class="st19" cx="135.5" cy="97.3" r="4"/>
	<ellipse transform="matrix(0.297 -0.9549 0.9549 0.297 4.9009 199.4518)" class="st20" cx="137.9" cy="96.4" rx="1.9" ry="1.4"/>
	<path class="st28" d="M140,91.7c-2.1-3.3-8.2-0.6-8.7,0.1c-1.5,2.7,0.8,3.2,0.8,3.2c-0.9,1.3,2.3-0.6,2.3-0.6
		c-0.5,0.9,1,1.1,1.8,1.1l0,0c0,0,0,1.9,0.5,2.3c-0.2-0.9-0.1-1.8,0.2-2.6l0,0c0.5-0.3,1.3-0.9,1.8,0.2c0.8,1.5-1.1,2.7-1.1,2.7
		c-1.1,2.4,0.6,2.1,0.6,2.1c2.9,0.2,2.6-4.2,2.6-4.2C143.3,93.7,140,91.7,140,91.7z"/>
	<polygon class="st19" points="128.6,132.5 130.2,134.6 132.3,133.3 131.4,130.8 	"/>
	<polygon class="st19" points="116.2,130.4 114.9,132.9 117,134.4 119,132.6 	"/>
	<path class="st29" d="M133.5,123.2L133.5,123.2c0.2,0.1,0.3,0.2,0.3,0.5l-4.2,13.4c-0.1,0.2-0.2,0.3-0.5,0.2H129
		c-0.2-0.1-0.3-0.2-0.2-0.5l4.2-13.4C133,123.3,133.3,123.2,133.5,123.2z"/>
	<path class="st29" d="M148.9,137.4L148.9,137.4c-0.2,0.1-0.5,0-0.5-0.2l-4.2-13.4c-0.1-0.2,0-0.3,0.2-0.5h0.1
		c0.2-0.1,0.3,0,0.5,0.2l4.2,13.4C149.3,137,149.1,137.3,148.9,137.4z"/>
	<path class="st30" d="M151.9,105.9c-0.2-0.1-0.6,0-0.7,0.2l0,0l-7.2,16.6h-11.4c-0.2,0-0.5,0.2-0.5,0.5c0,0.2,0.2,0.5,0.5,0.5h13.5
		c0.2,0,0.5-0.2,0.5-0.5s-0.2-0.5-0.5-0.5H145l7.1-16.2C152.2,106.3,152.1,106.1,151.9,105.9z"/>
	<path class="st7" d="M79.6,73.1l-6.4-2.3c-0.9-0.3-1.5-1.4-1.1-2.3l0.1-0.3c0.3-0.9,1.4-1.5,2.3-1.1l6.4,2.3
		c0.9,0.3,1.5,1.4,1.1,2.3V72C81.7,73,80.6,73.5,79.6,73.1z"/>
	<path class="st31" d="M72,69.4l3.5,1.9c0.8,0,1.6-0.6,1.8-1.4c0.2-1.5-0.5-1.6-0.5-1.6l-2.4-1.8L72,69.4z"/>
	<path class="st7" d="M63.1,70.1l6.4-2.3c0.9-0.3,1.9,0.1,2.3,1.1l0.1,0.3c0.3,0.9-0.1,1.9-1.1,2.3l-6.4,2.3
		c-0.9,0.3-1.9-0.1-2.3-1.1L62,72.4C61.6,71.4,62.2,70.4,63.1,70.1z"/>
	<polygon class="st18" points="72.4,45.3 71,44.9 69.5,45.3 69.2,45.7 71,47.8 72.7,45.7 	"/>
	<path class="st7" d="M78.5,48c-0.8-0.6-1.8-0.9-2.9-1c-1-0.1-2.1-0.6-3-1.1c-0.5,0.5-1.1,0.7-1.8,0.8c-0.7-0.1-1.3-0.3-1.8-0.8
		c-0.9,0.6-1.9,1-3,1.1c-1,0.1-1.9,0.5-2.7,1c-2.5,2.5-3,16.2-3,16.2h21C81.5,64.2,81,50.4,78.5,48z"/>
	<path class="st14" d="M65.1,49.6c0,0-1.6,12.2-1.4,14.5h0.7L65.1,49.6z"/>
	<path class="st14" d="M77,49.6c0,0,1.6,12.2,1.4,14.5h-0.7L77,49.6z"/>
	<path class="st32" d="M73.5,67c0,0-6.4-6.3-10.4-8.2c-1.9-1-4.1-1.8-6.3-2.3c0,0-2.5,1.6-2.3,3.5s14.2,9.4,16.5,9.9
		C73.2,70.5,74,68.3,73.5,67z"/>
	<path class="st14" d="M73.5,67c-2.7-2.7-5.7-5.1-8.9-7.3l0,0v5.5l5.4,0.6l-2.4,2.6c1.1,0.6,2.3,1.1,3.5,1.6
		C73.2,70.5,74,68.3,73.5,67z"/>
	<path class="st33" d="M68.1,52.3h10.2c1.8,0,3.3,1.5,3.3,3.3l0,0v9.5l0,0H64.8l0,0v-9.5C64.7,53.8,66.2,52.3,68.1,52.3L68.1,52.3z"
		/>
	<path class="st19" d="M72,69.9l-3.5,1.9c-0.8,0-1.6-0.6-1.8-1.4c-0.2-1.5,0.5-1.6,0.5-1.6l2.4-1.8L72,69.9z"/>
	<path class="st34" d="M69.5,67c0,0,6.4-6.3,10.4-8.2c1.9-1,4.1-1.8,6.3-2.3c0,0,2.5,1.6,2.3,3.5S74.2,69.3,72,69.8
		C69.8,70.4,68.9,68.3,69.5,67z"/>
	<ellipse transform="matrix(0.9057 -0.4239 0.4239 0.9057 -11.4725 32.635)" class="st20" cx="67.6" cy="42.1" rx="1" ry="1.5"/>
	<ellipse transform="matrix(0.4239 -0.9057 0.9057 0.4239 4.6417 91.4909)" class="st20" cx="74.2" cy="42.1" rx="1.5" ry="1"/>
	<circle class="st19" cx="71" cy="42.3" r="3.3"/>
	<path class="st35" d="M73.6,40.3c0,0-1.9,1.4-2.1,0.7c-0.1-0.5-0.1-0.8,0-1.3c0,0-3.3,2.3-3.3,1.1c0,0.8-0.1,1.5-0.5,2.2l-0.1-1.4
		c0,0,0-1-0.6-0.9c-0.7-0.2-1-0.9-0.8-1.6c0,0-1.1,0-0.6-1.6c1.1-1.9,3.2-3.2,5.5-3.3c1.8-0.3,3.7,0.8,4.1,2.6
		c0.2,1.1,1.3,4.1,0,4.5c-0.1-0.5-0.6-0.7-1-0.6l0,0c0,0,0.2,2.3-0.2,2.7C74,42.4,73.9,41.4,73.6,40.3z"/>
	<polygon class="st3" points="11.8,137.4 48.4,137.4 48.4,124.5 41.8,124.5 41.8,129.1 26,129.1 26,133.2 11.8,133.2 	"/>
	<rect x="17" y="52.3" class="st1" width="22.1" height="12.5"/>
	<polygon class="st3" points="17,64.8 27.5,56 39.1,64.8 	"/>
	<polygon class="st3" points="17,52.3 27.5,58.7 39.1,52.3 	"/>
	<circle class="st7" cx="38.3" cy="51.5" r="3.5"/>
	<text transform="matrix(1 0 0 1 37.0098 52.848)" class="st2 st36 st37">8</text>
	<path class="st3" d="M21.8,84.7v-3.3h-1.4c-0.1-0.3-0.2-0.7-0.3-0.9l1-1l-2.3-2.3l-1,1c-0.3-0.1-0.6-0.3-0.9-0.3v-1.4h-3.3v1.3
		c-0.3,0.1-0.7,0.2-0.9,0.3l-1.3-0.9l-2.3,2.3l1,1C10,80.8,9.8,81,9.8,81.4H8.3v3.3h1.4c0.1,0.3,0.2,0.7,0.3,0.9l-0.9,1l2.3,2.3
		l0.9-0.9c0.3,0.1,0.6,0.3,0.9,0.3v1.4h3.3v-1.4c0.3-0.1,0.7-0.2,0.9-0.3l1,1l2.3-2.3l-1-1c0.1-0.3,0.3-0.6,0.3-0.9h1.7v-0.1H21.8z
		 M15.1,87.2c-2.3,0-4.2-1.8-4.2-4.2c0-2.3,1.8-4.2,4.2-4.2s4.2,1.8,4.2,4.2l0,0C19.2,85.4,17.4,87.2,15.1,87.2z"/>
	<path class="st33" d="M24.6,74.5v-1.9h-0.8c-0.1-0.2-0.1-0.3-0.2-0.6l0.6-0.6L22.8,70l-0.6,0.6c-0.2-0.1-0.3-0.1-0.6-0.2v-0.8h-1.9
		v0.8c-0.2,0.1-0.3,0.1-0.6,0.2L18.5,70l-1.4,1.4l0.6,0.6c-0.1,0.2-0.1,0.3-0.2,0.6h-0.8v1.9h0.8c0.1,0.2,0.1,0.3,0.2,0.6l-0.6,0.6
		l1.4,1.4l0.6-0.6c0.2,0.1,0.3,0.1,0.6,0.2v0.8h1.9v-0.8c0.2-0.1,0.3-0.1,0.6-0.2l0.6,0.6l1.4-1.4l-0.6-0.6c0.1-0.2,0.1-0.3,0.2-0.6
		H24.6z M20.6,76c-1.4,0-2.4-1.1-2.4-2.5s1.1-2.4,2.5-2.4s2.4,1.1,2.4,2.5S22,76,20.6,76C20.7,76,20.7,76,20.6,76L20.6,76z"/>
	<rect x="76.3" y="116.7" class="st3" width="29.6" height="20.7"/>
	<rect x="77.8" y="119.8" class="st2" width="26.3" height="16.2"/>
	<rect x="80.8" y="132.5" class="st1" width="1.8" height="2.7"/>
	<rect x="84.2" y="124.3" class="st1" width="1.8" height="10.9"/>
	<rect x="87.6" y="128.3" class="st1" width="1.8" height="6.9"/>
	<rect x="91" y="125.6" class="st1" width="1.8" height="9.6"/>
	<rect x="94.8" y="124.3" class="st1" width="1.8" height="10.9"/>
	<rect x="98.6" y="121.6" class="st1" width="1.8" height="13.6"/>
	<circle class="st10" cx="78.8" cy="118.3" r="0.8"/>
	<circle class="st11" cx="80.9" cy="118.3" r="0.8"/>
	<circle class="st4" cx="83.1" cy="118.3" r="0.8"/>
	<polygon class="st2" points="124.3,46.3 119.8,50.6 119.8,70.5 137.7,70.5 137.7,46.3 	"/>
	<polygon class="st38" points="119.8,50.6 124.2,51.2 124.3,46.3 	"/>
	<polygon class="st39" points="124.3,46.3 119.8,50.6 124.8,50.6 	"/>
	<polygon class="st40" points="136.2,67.4 133.4,70.5 117.5,70.5 117.5,87.4 140.1,87.4 140.1,70.5 140.1,67.4 	"/>
	<line class="st41" x1="122.3" y1="53.5" x2="135.2" y2="53.5"/>
	<line class="st41" x1="122.3" y1="55.2" x2="135.2" y2="55.2"/>
	<line class="st41" x1="122.3" y1="56.9" x2="135.2" y2="56.9"/>
	<line class="st41" x1="122.3" y1="58.6" x2="135.2" y2="58.6"/>
	<line class="st41" x1="122.3" y1="60" x2="135.2" y2="60"/>
	<line class="st41" x1="122.3" y1="61.8" x2="135.2" y2="61.8"/>
	<line class="st41" x1="122.3" y1="63.2" x2="135.2" y2="63.2"/>
	<line class="st41" x1="122.3" y1="64.9" x2="135.2" y2="64.9"/>
	<path class="st7" d="M81.2,40.3v4l-1.8,2.1l3.9-2.1h6.4c0.8,0,1.4-0.6,1.4-1.4v-2.5c0-0.8-0.6-1.4-1.4-1.4h-7
		C81.9,39,81.2,39.7,81.2,40.3z"/>
	<circle class="st2" cx="83.4" cy="41.6" r="0.9"/>
	<circle class="st2" cx="86.3" cy="41.6" r="0.9"/>
	<circle class="st2" cx="89.1" cy="41.6" r="0.9"/>
	<path class="st7" d="M51.1,35.4h0.8l0.7,0.1c2.5,0.6,4.3,2.7,4.5,5.4c0,1-0.2,2.1-0.8,3l-3.8,7c-0.1,0.3-0.5,0.6-0.9,0.7h-0.3
		c-0.3-0.1-0.6-0.3-0.8-0.6l-3.9-7.1c-0.6-1-0.8-2.3-0.7-3.5c0.2-2.3,1.9-4.1,4.1-4.8C50.4,35.5,50.7,35.5,51.1,35.4z M51.5,38.2
		c-1.3,0-2.3,1-2.3,2.3s1,2.3,2.3,2.3s2.3-1,2.3-2.3l0,0C53.8,39.2,52.8,38.2,51.5,38.2z"/>
	<polygon class="st5" points="124.3,46.3 119.8,50.6 119.8,70.5 137.7,70.5 137.7,46.3 	"/>
	<polygon class="st42" points="119.8,50.6 124.2,51.2 124.3,46.3 	"/>
	<polygon class="st3" points="124.3,46.3 119.8,50.6 124.8,50.6 	"/>
	<polygon class="st3" points="136.2,67.4 133.4,70.5 117.5,70.5 117.5,87.4 140.1,87.4 140.1,70.5 140.1,67.4 	"/>
	<line class="st43" x1="122.3" y1="53.5" x2="135.2" y2="53.5"/>
	<line class="st43" x1="122.3" y1="55.2" x2="135.2" y2="55.2"/>
	<line class="st43" x1="122.3" y1="56.9" x2="135.2" y2="56.9"/>
	<line class="st43" x1="122.3" y1="58.6" x2="135.2" y2="58.6"/>
	<line class="st43" x1="122.3" y1="60" x2="135.2" y2="60"/>
	<line class="st43" x1="122.3" y1="61.8" x2="135.2" y2="61.8"/>
	<line class="st43" x1="122.3" y1="63.2" x2="135.2" y2="63.2"/>
	<line class="st43" x1="122.3" y1="64.9" x2="135.2" y2="64.9"/>
	<polyline class="st44" points="125,78.6 127.8,81.5 133.3,75.4 	"/>
	<circle class="st7" cx="105.8" cy="49.8" r="9.7"/>
	<polygon class="st2" points="101.5,56 101.5,44.2 113.3,50.1 	"/>
</g>
</svg>
