<?xml version="1.0" encoding="utf-8"?>
<!-- Generator: Adobe Illustrator 21.0.0, SVG Export Plug-In . SVG Version: 6.00 Build 0)  -->
<svg version="1.1" id="Layer_1" xmlns="http://www.w3.org/2000/svg" xmlns:xlink="http://www.w3.org/1999/xlink" x="0px" y="0px"
	 viewBox="0 0 160 160" style="enable-background:new 0 0 160 160;" xml:space="preserve">
<style type="text/css">
	.st0{fill:#538BDA;}
	.st1{fill:#DD4E43;}
	.st2{fill:#FFFFFF;}
	.st3{clip-path:url(#SVGID_2_);}
	.st4{fill:#DD4F6A;}
	.st5{fill:#6AA9E1;}
	.st6{font-family:'MyriadPro-Regular';}
	.st7{font-size:10.7794px;}
	.st8{fill:#E79E3E;}
	.st9{fill:#85C8A8;}
	.st10{fill:#EEC153;}
	.st11{fill:#EDBCA4;}
	.st12{opacity:0.6;fill:#D49A84;enable-background:new    ;}
	.st13{fill:#1B1B1B;stroke:#000000;stroke-width:0.48;stroke-miterlimit:10;}
	.st14{fill:#F1D6C7;}
	.st15{fill:#E5F0FB;}
	.st16{fill:#63BCC0;}
	.st17{fill:#354E69;}
	.st18{fill:#F7FAFD;}
</style>
<title>smm</title>
<g id="Character">
	<rect x="57.6" y="30.3" transform="matrix(0.6686 -0.7436 0.7436 0.6686 -4.6915 54.0066)" class="st0" width="1.3" height="3.9"/>
	<path class="st0" d="M58,30.1L58,30.1c-0.2-0.6-0.3-1.1-0.3-1.7c-0.1-0.5-0.3-0.9-0.7-1.3l0,0l0,0c0.2-0.2,0.7-0.2,0.9,0l1.1,1
		l0.9-1c0.3-0.3,0.8-0.3,1.1,0l0,0l1.9,1.8c0.3,0.3,0.3,0.8,0,1.1l0,0l-2.4,2.6c-0.1,0.1-0.3,0.1-0.5,0l-2-2
		c-0.2-0.1-0.2-0.2-0.2-0.5C57.9,30.1,57.9,30.1,58,30.1z"/>
	<path class="st1" d="M34.4,13.8l8.9-4.4c0.3-0.1,0.7,0,0.9,0.2l2.7,5.4c0.1,0.3,0,0.7-0.2,0.9l-8.9,4.4c-0.3,0.1-0.7,0-0.9-0.2
		l-2.7-5.4C34,14.3,34.1,14,34.4,13.8z"/>
	<polygon class="st1" points="43.8,15.6 45,19.7 45.9,14.6 	"/>
	<path class="st2" d="M41.5,12.3c-0.7-0.2-1.5,0.1-1.8,0.9l0,0v0.1h-0.1c-0.7-0.2-1.5,0.1-1.8,0.9c-0.2,0.7,0.1,1.5,0.9,1.8h0.1
		l2.6,0.9l0.9-2.6v-0.1C42.6,13.3,42.3,12.5,41.5,12.3L41.5,12.3z"/>
	<path class="st1" d="M32.1,82.7H12.3c-0.7,0-1.3-0.6-1.3-1.3v-12c0-0.7,0.6-1.3,1.3-1.3h19.8c0.7,0,1.3,0.6,1.3,1.3v11.9
		C33.5,82.2,32.9,82.7,32.1,82.7z"/>
	<polygon class="st1" points="17,79.9 18.3,88.2 12.1,79.9 	"/>
	<path class="st2" d="M26.3,71.8c-1.1-1.1-2.8-1.1-4,0l0,0L22.2,72L22,71.8c-1.1-1.1-2.8-1.1-4,0c-1.1,1.1-1.1,2.8,0,4l0.2,0.2l4,4
		l4-4l0.2-0.2C27.5,74.7,27.6,73,26.3,71.8C26.4,71.9,26.4,71.8,26.3,71.8z"/>
	<g id="_Group_">
		<g id="_Group_2">
			
				<ellipse id="_Path_" transform="matrix(0.9047 -0.4261 0.4261 0.9047 -17.3839 17.266)" class="st0" cx="29.9" cy="47.5" rx="8.2" ry="8.2"/>
		</g>
		<g id="_Clip_Group_">
			<g>
				<g>
					<g>
						<defs>
							
								<ellipse id="SVGID_1_" transform="matrix(0.9047 -0.4261 0.4261 0.9047 -17.3839 17.266)" cx="29.9" cy="47.5" rx="8.2" ry="8.2"/>
						</defs>
						<clipPath id="SVGID_2_">
							<use xlink:href="#SVGID_1_"  style="overflow:visible;"/>
						</clipPath>
						<g class="st3">
							<g id="_Group_3">
								<g id="_Group_4">
									<path id="_Path_2" class="st2" d="M34.2,54.8l-1.8,0.8l-4.6-9.7c-0.7-1.4-0.1-3.1,1.4-3.8l0,0l1.7-0.8l0.8,1.8L30,44
										c-0.5,0.2-0.6,0.7-0.5,1.1l0,0L34.2,54.8z"/>
								</g>
								<g id="_Group_5">
									
										<rect id="_Path_3" x="26.7" y="47.2" transform="matrix(0.9047 -0.4261 0.4261 0.9047 -17.6235 17.4578)" class="st2" width="7" height="1.9"/>
								</g>
							</g>
						</g>
					</g>
				</g>
			</g>
		</g>
	</g>
	<g id="_Group_6">
		<g id="_Group_7">
			
				<ellipse id="_Path_4" transform="matrix(0.428 -0.9038 0.9038 0.428 25.9617 80.6786)" class="st4" cx="76.7" cy="19.8" rx="8.2" ry="8.2"/>
		</g>
		<g id="_Group_8">
			<path id="_Compound_Path_" class="st2" d="M76.9,24.7l-4.2-1.9c-0.9-0.5-1.4-1.6-0.9-2.6l1.9-4.2c0.5-0.9,1.6-1.4,2.6-0.9l0,0
				l4.2,1.9c0.9,0.5,1.4,1.6,0.9,2.6l-1.9,4.2C79.1,24.7,77.9,25.2,76.9,24.7C77,24.7,76.9,24.7,76.9,24.7z M76,15.9
				c-0.5-0.2-1,0-1.1,0.5l0,0L73,20.6c-0.2,0.5,0,1,0.5,1.1l0,0l4.2,1.9c0.5,0.2,1,0,1.1-0.5l0,0l1.9-4.2c0.2-0.5,0-1-0.5-1.1l0,0
				L76,15.9z"/>
		</g>
		<g id="_Group_9">
			<path id="_Compound_Path_2" class="st2" d="M75.8,21.7c-1-0.5-1.5-1.7-1-2.7s1.7-1.5,2.7-1s1.5,1.7,1,2.7S76.8,22.2,75.8,21.7
				L75.8,21.7z M77.1,18.9c-0.6-0.2-1.1,0-1.4,0.5c-0.2,0.6,0,1.1,0.5,1.4c0.6,0.2,1.1,0,1.4-0.5l0,0C77.8,19.8,77.7,19.1,77.1,18.9
				L77.1,18.9L77.1,18.9z"/>
		</g>
		<g id="_Group_10">
			
				<ellipse id="_Path_5" transform="matrix(0.428 -0.9038 0.9038 0.428 28.4906 82.5886)" class="st2" cx="79.5" cy="18.8" rx="0.5" ry="0.5"/>
		</g>
	</g>
	<g id="_Group_11">
		<g id="_Group_12">
			
				<ellipse id="_Path_6" transform="matrix(0.5439 -0.8391 0.8391 0.5439 4.0695 150.8317)" class="st5" cx="140.8" cy="71.7" rx="8.2" ry="8.2"/>
		</g>
		<g id="_Group_13">
			<g id="_Group_14">
				<path id="_Path_7" class="st2" d="M136.3,69c0.2,1.1,1.3,1.9,2.4,1.9c1.9,0,3-1.6,4.8-1.6c2.4,0.1,2.8,3.5-0.6,5
					C138.7,76.1,135.6,73.5,136.3,69z"/>
			</g>
			<g id="_Group_15">
				<path id="_Path_8" class="st2" d="M144.6,72.2l1.5,1c0.2,0.1,0.1,0.3,0,0.3H144L144.6,72.2z"/>
			</g>
			<g id="_Group_16">
				<path id="_Path_9" class="st2" d="M142,71c-1.1-0.8-2.2-1.8-3-3.1c-0.1-0.2-0.3-0.2-0.5-0.1c-0.1,0-0.1,0.1-0.1,0.1
					c-0.6,1.1-0.5,2.4,0.1,3.4C140,73.4,142,71,142,71z"/>
			</g>
		</g>
	</g>
	<g id="_Group_17">
		<g id="_Group_18">
			
				<ellipse id="_Path_10" transform="matrix(0.4125 -0.911 0.911 0.4125 -32.2868 184.1777)" class="st1" cx="126.6" cy="117.1" rx="8.3" ry="8.3"/>
		</g>
		<g id="_Group_19">
			<path id="_Path_11" class="st2" d="M126.7,113.2l3.9,4.9c0.2,0.3,0.1,0.9-0.2,1.1c-0.1,0.1-0.2,0.1-0.3,0.1l-6.3,0.3
				c-0.5,0-0.7-0.5-0.5-0.9l2.4-5.4C125.9,112.9,126.4,112.8,126.7,113.2z"/>
		</g>
	</g>
	<path class="st1" d="M137,40.2l-15.3,7.3c-0.6,0.2-1.3,0-1.5-0.6l-4.3-9.2c-0.2-0.6,0-1.3,0.6-1.5l15.3-7.3c0.6-0.2,1.3,0,1.5,0.6
		l4.3,9.2C137.8,39.3,137.6,40,137,40.2z"/>
	<polygon class="st1" points="124.2,43.7 128.3,49.6 120.5,45.5 	"/>
	<path class="st2" d="M125.5,35.6c-1.3-0.5-2.6,0.2-3.1,1.5v0.2h-0.2c-1.3-0.5-2.6,0.2-3.1,1.5s0.2,2.6,1.5,3.1h0.2l4.6,1.6L127,39
		v-0.2C127.4,37.5,126.7,36.1,125.5,35.6L125.5,35.6z"/>
	<text transform="matrix(0.9023 -0.4311 0.4311 0.9023 129.9427 40.4171)" class="st2 st6 st7">3</text>
	<ellipse transform="matrix(0.8596 -0.511 0.511 0.8596 13.0533 60.0946)" class="st8" cx="115.9" cy="6.3" rx="6.2" ry="6.2"/>
	<path class="st2" d="M117.4,6.7c-0.1,0.1-0.3,0.2-0.3,0.5h-1.8V6.9l-0.1-0.1l0.8-1.6c0.6,0,1-0.3,1-0.9s-0.3-1-0.9-1s-1,0.3-1,0.9
		c0,0.2,0,0.3,0.1,0.6l0.1,0.1l-0.8,1.6c-0.6,0-1,0.3-1,0.9s0.3,1,0.9,1c0.3,0,0.8-0.2,0.9-0.6h1.8V8c0.2,0.5,0.9,0.6,1.4,0.3
		c0.5-0.2,0.6-0.9,0.3-1.4C118.4,6.6,117.8,6.4,117.4,6.7z"/>
	<ellipse transform="matrix(0.9039 -0.4277 0.4277 0.9039 -16.0718 55.2699)" class="st9" cx="115" cy="63.4" rx="7.1" ry="7.1"/>
	
		<rect x="112.6" y="63.4" transform="matrix(0.9039 -0.4277 0.4277 0.9039 -17.0594 54.7233)" class="st2" width="1.3" height="3.9"/>
	<path class="st2" d="M113.9,63.1L113.9,63.1c0-0.6,0.1-1.1,0.3-1.8c0.1-0.5,0-0.9-0.2-1.4l0,0l0,0c0.3-0.1,0.7,0,0.9,0.3l0.7,1.4
		l1.3-0.6c0.3-0.2,0.9,0,1,0.3l0,0l1.1,2.4c0.2,0.3,0,0.9-0.3,1l0,0l-3.2,1.5c-0.1,0.1-0.3,0-0.5-0.1l-1.4-2.7
		C113.6,63.3,113.7,63.2,113.9,63.1L113.9,63.1z"/>
	
		<ellipse transform="matrix(0.2345 -0.9721 0.9721 0.2345 -84.4652 105.3597)" class="st9" cx="24.7" cy="106.3" rx="6.3" ry="6.3"/>
	
		<rect x="20.5" y="106.1" transform="matrix(0.2345 -0.9721 0.9721 0.2345 -86.6156 103.2447)" class="st2" width="3.4" height="1.1"/>
	<path class="st2" d="M24,105.4L24,105.4c0.3-0.3,0.7-0.7,1.1-1c0.3-0.2,0.6-0.7,0.7-1l0,0l0,0c0.3,0.1,0.6,0.5,0.5,0.7l-0.3,1.4
		l1.1,0.2c0.3,0.1,0.6,0.5,0.6,0.8l-0.6,2.2c-0.1,0.3-0.5,0.6-0.8,0.6l-3-0.8c-0.1,0-0.2-0.2-0.2-0.3l0,0l0.6-2.5
		C23.7,105.5,23.8,105.4,24,105.4z"/>
	<ellipse transform="matrix(0.4853 -0.8744 0.8744 0.4853 -35.77 78.3984)" class="st10" cx="48.7" cy="69.6" rx="2.7" ry="2.7"/>
	<path class="st2" d="M48.2,69.2l0.9,0.6c0.5,0.2,0.6,0.8,0.3,1.3l-0.2,0.7l0,0l-2.6-1.5l0,0l0.3-0.6C47.2,69.2,47.7,68.9,48.2,69.2
		L48.2,69.2z"/>
	<ellipse transform="matrix(0.4853 -0.8744 0.8744 0.4853 -34.7359 78.2181)" class="st2" cx="49.1" cy="68.6" rx="0.8" ry="0.8"/>
	<ellipse transform="matrix(0.9094 -0.416 0.416 0.9094 -4.7573 42.5555)" class="st10" cx="95.3" cy="32.2" rx="4.2" ry="4.2"/>
	<path class="st2" d="M94.5,32.3l1.5-0.7c0.7-0.3,1.6,0,1.9,0.7l0.5,1l0,0l-4.1,1.9l0,0l-0.5-1C93.4,33.6,93.7,32.7,94.5,32.3
		L94.5,32.3z"/>
	<ellipse transform="matrix(0.9094 -0.416 0.416 0.9094 -4.2363 42.1535)" class="st2" cx="94.6" cy="30.8" rx="1.3" ry="1.3"/>
	
		<rect x="113.4" y="99.4" transform="matrix(0.7935 -0.6086 0.6086 0.7935 -37.042 90.8661)" class="st0" width="3.9" height="1.3"/>
	<path class="st0" d="M117.6,100.2L117.6,100.2c0.6,0,1.1,0,1.8,0c0.5,0,0.9-0.2,1.4-0.5l0,0l0,0c0.2,0.3,0.1,0.7-0.1,0.9l-1.3,0.9
		l0.8,1c0.2,0.3,0.2,0.8-0.1,1.1l0,0l-2.1,1.6c-0.3,0.2-0.8,0.2-1.1-0.1l0,0l-2.2-2.7c-0.1-0.1-0.1-0.3,0-0.5l2.4-1.8
		C117.2,100,117.4,100,117.6,100.2C117.5,100.2,117.6,100.2,117.6,100.2z"/>
	<path class="st1" d="M79,39.9c-0.2-0.6-0.9-0.9-1.6-0.6l0,0h-0.1v-0.1c-0.2-0.6-0.9-0.9-1.6-0.6c-0.6,0.2-0.9,0.9-0.6,1.6v0.1
		l0.9,2.2l2.2-0.9h0.1C79,41.1,79.3,40.4,79,39.9L79,39.9z"/>
	<path class="st1" d="M46.5,53.7c-0.5-0.1-0.9,0.1-1.1,0.6l0,0l0,0c-0.5-0.1-0.9,0.2-1,0.7c-0.1,0.3,0.1,0.8,0.5,0.9l0,0l1.6,0.6
		l0.6-1.6l0,0C47.2,54.3,46.9,53.9,46.5,53.7L46.5,53.7z"/>
	<path class="st1" d="M39.4,97.9c-0.1-0.5-0.6-0.7-1-0.6l0,0l0,0c-0.2-0.5-0.7-0.7-1.1-0.5c-0.3,0.1-0.6,0.5-0.6,0.9l0,0l0.5,1.7
		l1.7-0.5l0,0C39.2,98.8,39.5,98.3,39.4,97.9z"/>
	<path class="st11" d="M104.2,82.4l-0.2,0.1l-2.1,0.8l-1.4,0.5c-2.2,0.8-4.2,1.4-5.5,1.8l-1.4,0.3c0,0-22.6,9.6-33.6,21.5
		c-0.7,0.8-1.4,1.5-1.9,2.3s-0.9,1.3-1.3,1.8c-5.6,8.7-6.4,1.3-6.3-5.4c0.1-3.9,0.6-7.4,0.6-7.4s2.7-2.5,7-5.8
		c7.9-6,21-15,33.1-17.3l3.9-0.8l2.5-0.6l4.1-0.9l1.9-0.5l0.3-0.1c6.5-1.5,7.3-1.6,8.2,2.1C113.2,77.8,108.8,80.4,104.2,82.4z"/>
	<path class="st11" d="M80.3,130.4l-0.2,0.5L80,131l0,0v0.2l-0.2,0.3l-0.2,0.5l-0.7,1.4l-0.2,0.3c-0.2,0.6-0.6,1-0.9,1.7l-0.5,0.7
		l-0.7,1.1l-0.8,1.3c-0.3,0.6-0.7,1-1,1.6c-2.4,3.4-5.5,6.4-8.9,8.7c-1,0.7-1.9,1.3-2.7,1.9c-3.3,2.5-6.3,5.7-8.4,9.2h-41l15.7-18.7
		l4.9-5.8c0.9-1.4,1.6-2.7,2.3-4.2c0.8-1.7,1.3-3.5,1.3-5.4v-0.3c0-0.6,0.2-1,0.5-1.5l1.8-2.5l0.8-1.1l9.9-14.1l3.8-5.4l0,0l3.8,4.3
		l1.4,1.5l0.7,0.8L62,109L80.3,130.4z"/>
	<path class="st12" d="M102,73.4v10l-1.4,0.5c-2.2,0.8-4.2,1.4-5.5,1.8L93.8,86c0,0-22.6,9.6-33.6,21.5l20.1,22.9
		c-1.1,2.4-2.4,4.7-3.9,6.8H65c-3.8,0-6.8-3.1-6.8-6.8l0,0V93c7.9-6,21-15,33.1-17.3l3.9-0.8l2.5-0.6L102,73.4z"/>
	<path class="st11" d="M110.9,95.3c-0.9,2.1-3.5,2.1-6.6,1.3c-3.2-0.9-6.2-2.3-9-3.9c-1.6-0.8-2.5-1.5-2.5-1.5l2.5-1.8l7.2-5.4
		c0,0,0.7,0.3,1.8,1C107.2,86.9,112.8,91.2,110.9,95.3z"/>
	<path class="st11" d="M108.8,111.7c-1.1,1.3-3.1,1.5-4.6,0.7c-3-1.1-6.5-4.4-9-7.4s-4.1-5-4.1-5l4.1-0.9l6.2-1.5
		c1,0.7,1.9,1.4,2.8,2.2C107.6,102.7,112.4,107.8,108.8,111.7z"/>
	<path class="st11" d="M108.2,123.8c-0.9,1.1-2.5,1.7-4,1.1c-3.1-0.8-6.7-3.8-9-5.9c-1.3-1.3-2.2-2.1-2.2-2.1l2.2-0.9l5.4-2.3
		c1.3,0.6,2.5,1.1,3.6,1.9C107.1,117.5,110.5,120.4,108.2,123.8z"/>
	<path class="st12" d="M104.2,72.8c0.2,3.2,0.2,6.4,0,9.6l-0.2,0.1c-1.1,0.5-2.3,0.9-3.3,1.3c-2.2,0.8-4.2,1.4-5.5,1.8V75l2.5-0.7
		c2.4-0.6,4.3-1,6-1.4L104.2,72.8z"/>
	<path class="st12" d="M104.2,85.1c0.5,3.8,0.5,7.6,0,11.4c-3.2-0.9-6.2-2.3-9-3.9v-3.3l7.2-5.4C102.5,84,103.1,84.4,104.2,85.1z"/>
	<path class="st12" d="M104.2,99.8c0.5,4.2,0.5,8.4,0,12.7c-3-1.1-6.5-4.4-9-7.4v-6l6.2-1.5C102.3,98.2,103.4,99,104.2,99.8z"/>
	<path class="st12" d="M104.2,115.7c0.5,3.1,0.5,6.2,0,9.2c-3.1-0.8-6.7-3.8-9-5.9v-3l5.4-2.3C101.8,114.3,103,114.9,104.2,115.7z"
		/>
	<path class="st13" d="M66.4,40.2h30.1c3.8,0,6.8,3.1,6.8,6.8v81.5c0,3.8-3.1,6.8-6.8,6.8H66.4c-3.8,0-6.8-3.1-6.8-6.8V47
		C59.6,43.3,62.7,40.2,66.4,40.2z"/>
	<path class="st2" d="M63.5,45.1h35.9c1,0,1.9,0.9,1.9,1.9v82.1c0,1-0.9,1.9-1.9,1.9H63.5c-1,0-1.9-0.9-1.9-1.9V47
		C61.5,45.9,62.3,45.1,63.5,45.1z"/>
	<path class="st11" d="M61.6,78.5c-1.6,8.1-1.1,8.7-3.2,10.4L58,89.3v0.1c-0.5,4-1.6,7.9-3.4,11.4c0,0,5.5,16,1,25.3l-14.1-0.2h-1.1
		h-2.5v-0.3l0,0l-0.1-19c0-1.3,0.3-2.5,0.9-3.5l0.5-0.8v-0.1l0.3-0.6l12.7-22.9v-0.2c0.6-3,1.6-5.7,3.3-8.2c0.8-1,2.3-1.1,3.2-0.3
		C61.2,71.9,62.4,75.3,61.6,78.5z"/>
	<path class="st12" d="M75.8,138.3c-0.3,0.6-0.7,1-1,1.6c-2.4,3.4-5.4,6.4-8.9,8.7c-1,0.7-1.9,1.3-2.7,1.9c-3.3,2.5-6.3,5.7-8.4,9.2
		h-3.4c0.5-1,1-1.9,1.6-2.8s1-1.8,1.5-2.7c0.1-0.5,0.2-1,0.2-1.5c0-0.6-0.2-1.1-0.2-1.8c0-0.2,0-0.5-0.2-0.7s-0.6-0.2-0.8-0.5
		c-0.2-0.2-0.3-0.6-0.5-0.9c-0.8-1.8-1.7-3.6-2.6-5.4c-2.2-3.1-4.9-4.9-7.4-7.6c-1.6-1.6-2.7-3.8-3.2-6v0.2l-3.2,4.4l-7.1,6.6
		l4.9-5.8c0.9-1.4,1.6-2.7,2.3-4.2c0.8-1.7,1.3-3.5,1.3-5.4v-0.1l-0.1-19c0-1.3,0.3-2.5,0.9-3.5l0.5-0.8v-0.1
		c0.1-0.1,0.2-0.3,0.3-0.6c-1.8,5.9,0,12.4,0.6,18.8c0,0.3,0,0.8,0.1,1.1c0.1,1.5,0.1,3,0.2,4.3c0.3,3.4,1.3,6.5,4.8,8.8
		c1.4,0.7,2.6,1.5,3.8,2.5c0.8,1.1,1.5,2.4,1.9,3.8c1.3,2.4,3.3,4.2,5.8,5.1c2.6,0.9,5.5,0.9,8,0c1.4-0.6,2.7-1.3,3.9-2.2
		c0.6-0.5,1.1-0.7,1.7-1c1.4-0.8,2.7-1.8,4-2.8C74.4,139.4,75.1,138.9,75.8,138.3z"/>
	<path class="st14" d="M55.7,73.8c-0.3,0.9-0.8,1.8-1.4,2.6c-0.5,0.7-1,1.4-1.7,1.8c-0.2,0.1-0.5,0.2-0.7,0.2c0.6-3,1.6-5.7,3.3-8.2
		c0.2-0.2,0.5-0.5,0.8-0.6C56.5,71,56.4,72.5,55.7,73.8z"/>
	<path class="st12" d="M58.5,89L58,89.4v0.1c-1.4,0.3-2.8,0.6-4.3,0.5C55.3,89.7,56.9,89.3,58.5,89z"/>
	<polygon class="st15" points="87.5,104 99,79.3 63.8,85.8 72,92.4 71.8,103.7 82.2,99.4 79.4,97 79.4,97 	"/>
	<path class="st16" d="M65.3,76.6L99,70.4L72,83.5l-7-5.7c-0.3-0.2-0.3-0.7-0.1-1C65,76.7,65.1,76.6,65.3,76.6z"/>
	<path class="st17" d="M71.8,94.1L72,83.5l27-13.1L72.2,94.3c-0.1,0.1-0.3,0.1-0.5,0C71.9,94.2,71.8,94.2,71.8,94.1z"/>
	<path class="st16" d="M78.2,87.1L99,70.4L87.9,94.1c-0.2,0.3-0.6,0.6-1,0.3c-0.1,0-0.1-0.1-0.1-0.1L78.2,87.1z"/>
	<polygon class="st17" points="78.3,87.1 72.4,94.3 82.2,90.5 	"/>
	<polygon class="st16" points="78.3,87.1 81.4,90.7 82.2,90.5 	"/>
	<rect x="66.1" y="53.8" class="st18" width="32.1" height="1.9"/>
	<rect x="66.1" y="58.9" class="st18" width="32.1" height="1.9"/>
	<rect x="66.1" y="64" class="st18" width="23.6" height="1.9"/>
	<rect x="66.1" y="111.7" class="st18" width="32.1" height="1.9"/>
	<rect x="66.1" y="116.8" class="st18" width="32.1" height="1.9"/>
	<rect x="66.1" y="121.9" class="st18" width="32.1" height="1.9"/>
</g>
</svg>
