<?xml version="1.0" encoding="utf-8"?>
<!-- Generator: Adobe Illustrator 21.0.0, SVG Export Plug-In . SVG Version: 6.00 Build 0)  -->
<svg version="1.1" id="Layer_1" xmlns="http://www.w3.org/2000/svg" xmlns:xlink="http://www.w3.org/1999/xlink" x="0px" y="0px"
	 viewBox="0 0 160 160" style="enable-background:new 0 0 160 160;" xml:space="preserve">
<style type="text/css">
	.st0{fill:#F5F5F5;}
	.st1{fill:#E0E0E0;}
	.st2{fill:#FAFAFA;}
	.st3{fill:#EBEBEB;}
	.st4{fill:#263238;}
	.st5{fill:#E8505B;}
	.st6{opacity:0.3;}
	.st7{fill:#FF6300;}
	.st8{fill:none;}
	.st9{fill:#FFFFFF;}
	.st10{fill:#63BCC0;}
	.st11{fill:#354E69;}
	.st12{fill:#FFBE9D;}
	.st13{fill:#EB996E;}
	.st14{opacity:0.2;}
	.st15{fill:#455A64;}
	.st16{opacity:0.5;}
</style>
<title>android app</title>
<g id="Character">
	<path class="st0" d="M144.1,41h-7.5c-1,0-1.9,0.9-1.9,1.7v0.1v1.3c0,1-0.7,1.9-1.7,1.9h-0.1L118,45.9c-1,0-1.9-0.9-1.9-1.7v-0.1
		v-1.3c0-1-0.7-1.9-1.7-1.9h-0.1h-2.7h-6.7c-3.3,0-5.9,2.6-5.9,5.9l-0.5,95.8c0,3.3,2.6,5.9,5.9,5.9l39.1,0.1c3.3,0,5.9-2.6,5.9-5.9
		l0.5-95.9C150.1,43.8,147.5,41,144.1,41L144.1,41z"/>
	<path class="st1" d="M138.9,136.1l-29-0.1c-0.3,0-0.6-0.3-0.6-0.7v-7.5c0-0.5,0.3-0.7,0.6-0.7l29.1,0.1c0.3,0,0.6,0.3,0.6,0.7v7.5
		C139.5,135.7,139.2,136.1,138.9,136.1z"/>
	<path class="st2" d="M117.9,132l0.1-0.1c0.1,0.1,0.5,0.3,0.7,0.3c0.5,0,0.6-0.1,0.6-0.5c0-0.6-1.3-0.3-1.3-1c0-0.3,0.3-0.6,0.7-0.6
		c0.3,0,0.5,0,0.7,0.1v0.1c-0.1-0.1-0.5-0.1-0.6-0.1c-0.5,0-0.6,0.1-0.6,0.5c0,0.6,1.3,0.3,1.3,1c0,0.3-0.3,0.6-0.9,0.6
		C118.4,132.5,118.1,132.3,117.9,132z"/>
	<path class="st2" d="M120,130.2h0.3v2.2H120V130.2z"/>
	<path class="st2" d="M122.7,130.2v2.2h-0.1l-1.5-1.7v1.7h-0.3v-2.3h0.1l1.5,1.7v-1.7h0.3V130.2z"/>
	<path class="st2" d="M125.1,131.3L125.1,131.3l0.1,0.9c-0.3,0.1-0.5,0.3-0.7,0.3c-0.6-0.1-1-0.7-1-1.3s0.5-0.9,1-1
		c0.3,0,0.6,0.1,0.7,0.3l-0.1,0.1c-0.1-0.1-0.5-0.3-0.6-0.3c-0.6,0-0.9,0.5-0.9,1c0,0.6,0.5,0.9,1,0.9c0.1,0,0.5,0,0.6-0.1
		L125.1,131.3z"/>
	<path class="st2" d="M126.7,131.4v-1.3h0.3v1.3c0,0.6,0.3,0.7,0.6,0.7c0.5,0,0.7-0.3,0.7-0.7v-1.3h0.1v1.3c0,0.6-0.3,1-0.9,1
		C127,132.5,126.7,132,126.7,131.4z"/>
	<path class="st2" d="M130.9,130.9c0,0.5-0.3,0.7-0.9,0.7h-0.6v0.7h-0.2v-2.2h0.9C130.6,130.2,130.9,130.4,130.9,130.9z
		 M130.6,130.9c0-0.3-0.3-0.6-0.6-0.6h-0.6v1.1h0.6C130.5,131.4,130.6,131.3,130.6,130.9z"/>
	
		<rect x="109.6" y="65.1" transform="matrix(4.537699e-03 -1 1 4.537699e-03 39.9625 180.3597)" class="st1" width="1.9" height="10.1"/>
	<path class="st1" d="M145.3,80.6c0.1,0,0.1,0,0.3,0c0.1-0.1,0.5-0.3,0.5-0.6c0-0.6,0-1.5,0-2.7c0-0.6,0-1.1,0-1.9
		c0-0.1,0-0.3,0-0.6c0-0.1,0-0.3-0.1-0.5c-0.3-0.1-0.5-0.1-0.6-0.1h-6.3l-32.8-0.1c-0.1,0-0.3,0.1-0.5,0.1c-0.1,0.1-0.1,0.3-0.1,0.5
		v3.7c0,0.5,0,0.7,0,1.1c0,0.1,0,0.5,0,0.6s0.1,0.3,0.3,0.3c0.1,0,0.1,0,0.3,0h2.1h8.7h14.7h9.9h2.7h-12.7H117h-8.7h-2.1
		c-0.1,0-0.3,0-0.3,0c-0.1-0.1-0.3-0.3-0.5-0.5c0-0.1,0-0.1,0-0.3v-1.5c0-0.7,0-1.6,0-2.3v-1.1c0-0.1,0-0.1,0-0.3
		c0-0.1,0-0.3,0.1-0.3c0.1-0.1,0.3-0.3,0.6-0.3l32.7,0.1h5.7h0.6c0.1,0,0.5,0.1,0.6,0.3c0.1,0.1,0.1,0.5,0.1,0.6s0,0.3,0,0.6
		c0,0.7,0,1.3,0,1.9V80C145.8,80.3,145.7,80.5,145.3,80.6L145.3,80.6z"/>
	<rect x="108.7" y="75.8" class="st1" width="18.5" height="1.7"/>
	
		<rect x="109.6" y="82" transform="matrix(4.537699e-03 -1 1 4.537699e-03 23.0588 197.1966)" class="st1" width="1.9" height="10.1"/>
	<path class="st1" d="M145,97.5h0.3c0.1,0,0.5-0.3,0.5-0.5c0-0.1,0-0.3,0-0.5V96c0-0.5,0-1,0-1.6s0-1.1,0-1.9v-0.6
		c0-0.1,0-0.3-0.1-0.5c-0.1-0.1-0.3-0.3-0.5-0.3c-0.1,0-0.5,0-0.6,0h-5.5h-32.9c-0.3,0-0.7,0.3-0.7,0.6c0,0.5,0,0.7,0,1.1v2.3
		c0,0.5,0,0.7,0,1.1c0,0.1,0,0.5,0,0.6s0.1,0.3,0.3,0.5c0.1,0.1,0.3,0.1,0.5,0.1h1.7h8.7h14.7h9.9h2.6h-12.5h-14.7H108h-1.9
		c-0.1,0-0.5,0-0.6-0.1s-0.3-0.3-0.3-0.5c0-0.1,0-0.5,0-0.6c0-0.5,0-0.7,0-1.1c0-0.7,0-1.6,0-2.3c0-0.5,0-0.7,0-1.1
		c0-0.5,0.5-0.9,0.9-0.9l32.7,0.1h5.7c0.1,0,0.5,0,0.6,0s0.5,0.1,0.5,0.5c0.1,0.1,0.1,0.5,0.1,0.6s0,0.3,0,0.6c0,0.7,0,1.3,0,1.9
		v2.2c0,0.1,0,0.3,0,0.5c-0.1,0.3-0.3,0.5-0.6,0.5C145.3,97.5,145.1,97.5,145,97.5z"/>
	
		<rect x="109.6" y="99.5" transform="matrix(4.537699e-03 -1 1 4.537699e-03 5.4886 214.5981)" class="st1" width="1.9" height="10.1"/>
	<path class="st1" d="M144.9,115.1h0.3c0.1,0,0.5-0.3,0.5-0.5c0-0.1,0-0.3,0-0.5v-0.6c0-0.5,0-1,0-1.6s0-1.1,0-1.9
		c0-0.1,0-0.3,0-0.6c0-0.1,0-0.3-0.1-0.5c-0.1-0.1-0.3-0.3-0.5-0.3s-0.5,0-0.6,0H139l-32.7-0.3c-0.3,0-0.7,0.1-0.7,0.6s0,0.7,0,1.1
		v3.5c0,0.1,0,0.5,0,0.6s0.1,0.3,0.3,0.5c0.1,0.1,0.3,0.1,0.5,0.1h1.7h8.7h14.7h9.9h2.6h-12.5H117h-8.7h-1.7c-0.1,0-0.5,0-0.6-0.1
		s-0.3-0.3-0.3-0.5c0-0.1,0-0.5,0-0.6v-3.3c0-0.5,0-0.7,0-1.1s0.5-0.9,0.9-0.9l32.7,0.1h5.7c0.1,0,0.5,0,0.6,0s0.5,0.1,0.5,0.5
		c0.1,0.1,0.1,0.5,0.1,0.6v4.7c0,0.1,0,0.3,0,0.5c-0.1,0.3-0.3,0.5-0.6,0.5C145.1,115.1,145,115.1,144.9,115.1z"/>
	
		<rect x="116.7" y="84.8" transform="matrix(4.537699e-03 -1 1 4.537699e-03 22.9408 211.2447)" class="st1" width="1.7" height="18.5"/>
	
		<ellipse transform="matrix(4.712157e-03 -1 1 4.712157e-03 -3.2599 220.4007)" class="st1" cx="109.1" cy="111.8" rx="0.9" ry="0.7"/>
	
		<ellipse transform="matrix(4.712157e-03 -1 1 4.712157e-03 -0.833 222.8738)" class="st1" cx="111.5" cy="111.9" rx="0.9" ry="0.7"/>
	<ellipse transform="matrix(4.712157e-03 -1 1 4.712157e-03 1.6212 225.3188)" class="st1" cx="114" cy="111.8" rx="0.9" ry="0.7"/>
	
		<ellipse transform="matrix(4.712157e-03 -1 1 4.712157e-03 4.3267 227.972)" class="st1" cx="116.7" cy="111.8" rx="0.9" ry="0.7"/>
	<ellipse transform="matrix(4.537738e-03 -1 1 4.537738e-03 6.5841 230.569)" class="st1" cx="119.1" cy="112" rx="0.9" ry="0.7"/>
	
		<ellipse transform="matrix(4.537738e-03 -1 1 4.537738e-03 9.1408 233.0426)" class="st1" cx="121.6" cy="111.9" rx="0.9" ry="0.7"/>
	<ellipse class="st1" cx="123.5" cy="111.4" rx="0.7" ry="0.9"/>
	<ellipse class="st1" cx="125.9" cy="111.4" rx="0.7" ry="0.9"/>
	
		<ellipse transform="matrix(4.712157e-03 -1 1 4.712157e-03 16.5405 240.5076)" class="st1" cx="129.1" cy="111.9" rx="0.9" ry="0.7"/>
	<path class="st1" d="M126.4,55.4c0.6-0.3,0.9-0.7,0.9-1.5c0.1-0.7-0.5-1.5-1.3-1.6c-0.7-0.1-1.5,0.5-1.6,1.3c0,0.1,0,0.1,0,0.3
		c0,0.6,0.3,1.1,0.9,1.5c-1.3,0.3-2.2,1.5-2.1,2.7h5.3C128.5,58.1,128.5,55.7,126.4,55.4z"/>
	
		<rect x="124.5" y="51.4" transform="matrix(4.537699e-03 -1 1 4.537699e-03 64.3373 185.9766)" class="st1" width="2.2" height="18.5"/>
	<path class="st1" d="M52.9,20c1,0.7,1.9,1.6,2.7,2.6l3.5-0.6l2.3,5.3l-2.9,2.1c0.1,1.3,0.1,2.5,0,3.8l2.9,2.1l-2.2,5.4L55.9,40
		c-0.7,1-1.6,1.9-2.6,2.7l0.6,3.5l-5.4,2.3l-2.1-2.7c-1.3,0.1-2.5,0.1-3.8,0l-2.1,2.9l-5.4-2.2l0.6-3.5c-1-0.7-1.9-1.6-2.7-2.6
		L29.5,41l-2.3-5.3l2.9-2.1c-0.1-1.3-0.1-2.5,0-3.8l-2.9-2.1l2.2-5.4l3.5,0.6c0.7-1,1.6-1.9,2.6-2.7L35,16.6l5.4-2.3l2.1,2.9
		c1.3-0.1,2.5-0.1,3.8,0l2.1-2.9l5.4,2.2L52.9,20z M47,25.7c-3.2-1.3-6.9,0.3-8.1,3.5s0.3,6.9,3.5,8.1c3.2,1.3,6.9-0.3,8.1-3.5l0,0
		C51.7,30.6,50.2,27.1,47,25.7L47,25.7L47,25.7z"/>
	<path class="st2" d="M63.3,38.1h-7.7c-1,0-1.9,0.9-1.7,1.9v1.5c0,1-0.7,1.9-1.7,1.9H36.8c-1,0-1.9-0.9-1.7-2.1v-1.5
		c0-1-0.7-1.9-1.7-2.1h-2.7h-6.9c-3.3,0-6.1,2.7-6.1,6.1l0,0l-0.6,97.7c0,3.3,2.7,6.1,6.1,6.1l40,0.1c3.3,0,6.1-2.7,6.1-6.1l0,0
		L69.7,44c0.1-3.3-2.6-6.1-5.9-6.3C63.5,38.1,63.4,38.1,63.3,38.1z"/>
	<rect x="23.1" y="104.6" class="st1" width="39.5" height="2.6"/>
	<ellipse class="st1" cx="42.5" cy="114.9" rx="18.9" ry="0.1"/>
	<ellipse class="st1" cx="42.5" cy="52.2" rx="18.9" ry="0.1"/>
	<ellipse class="st1" cx="42.5" cy="119.9" rx="18.9" ry="0.1"/>
	<ellipse class="st1" cx="42.5" cy="124.7" rx="18.9" ry="0.1"/>
	<ellipse class="st1" cx="42.5" cy="129.5" rx="18.9" ry="0.1"/>
	<ellipse class="st1" cx="42.5" cy="134.3" rx="18.9" ry="0.1"/>
	<ellipse class="st1" cx="42.9" cy="139.7" rx="18.9" ry="0.1"/>
	<rect x="23.5" y="57.7" class="st3" width="39.7" height="38.4"/>
	<polygon class="st1" points="26.6,92.8 37.7,73 46.5,85.6 52.1,79 60.1,92.8 	"/>
	<circle class="st1" cx="47.5" cy="69.3" r="2.9"/>
	<path class="st1" d="M60.1,92.9L60.1,92.9c0-0.2,0-0.4,0-0.6c0-0.1,0-1,0-1.7c0-1.5,0-3.7,0-6.5L60,61l0.1,0.1H26.6l0.1-0.1l0,0
		v4.3c0,1.5,0,2.9,0,4.2c0,2.7,0,5.5,0,8.3c0,5.4,0,10.5,0,15.1l-0.1-0.1H51h6.9l0,0H51H26.6h-0.1V93c0-4.7,0-9.7,0-15.1
		c0-2.6,0-5.4,0-8.3c0-1.5,0-2.7,0-4.2V61l0,0l0.1-0.1h33.7V61v23.3c0,2.7,0,4.9,0,6.4c0,0.7,0,1.3,0,1.7v0.5
		C60.2,92.8,60.2,92.8,60.1,92.9z"/>
	<path class="st1" d="M105.7,7.7h43.2c0.9,0,1.6,0.7,1.6,1.6v9c0,0.9-0.7,1.6-1.6,1.6h-43.2c-0.9,0-1.6-0.7-1.6-1.6v-9
		C104.3,8.5,105,7.7,105.7,7.7z"/>
	<path class="st2" d="M111.7,14.1c0.6-0.3,0.9-0.7,0.9-1.5c0.1-0.7-0.5-1.5-1.3-1.6c-0.9-0.1-1.5,0.5-1.6,1.3c0,0.1,0,0.1,0,0.3
		c0,0.6,0.3,1.1,0.9,1.5c-0.9,0.1-1.7,0.7-1.9,1.6c0.6,0.6,1.1,1,2.1,1h0.9c0.7-0.1,1.5-0.5,2.1-1C113.3,15,112.6,14.3,111.7,14.1z"
		/>
	<rect x="117.4" y="10.9" class="st2" width="11.3" height="0.9"/>
	<rect x="117.4" y="15.7" class="st2" width="19.9" height="0.9"/>
	<rect x="117.4" y="13.3" class="st2" width="28.9" height="0.9"/>
	<path class="st4" d="M160,152.1c0,0-35.8,0.1-80,0.1s-80,0-80-0.1s35.8-0.1,80-0.1S160,152,160,152.1z"/>
	<path class="st5" d="M149.1,144.8c-0.1-1,0.3-2.2,1.1-2.7c0.9-0.7,1.6-1.5,2.1-2.5c0.6-1.6-0.1-3.7,0.9-5.1c0.6-0.7,1.7-1,2.3-1.7
		c0.3-0.5,0.5-1,0.6-1.5c0.6-2.7,1.9-5.3,3.8-7.3c0.1,2.5-0.5,4.8-1.6,7c-0.6,0.9-0.9,1.7-1.1,2.6c-0.3,1.6,0.6,3.1,0.1,4.7
		c-0.5,1.5-2.3,2.9-2.5,4.7c0,1.5,1.1,2.7,1.1,4.3c-0.1,0.6-0.3,1.3-0.7,1.7c-1,2.1-3.2,3.2-5.4,3.2l-3.2,0.1L149.1,144.8z"/>
	<g class="st6">
		<path class="st7" d="M149.1,144.8c-0.1-1,0.3-2.2,1.1-2.7c0.9-0.7,1.6-1.5,2.1-2.5c0.6-1.6-0.1-3.7,0.9-5.1c0.6-0.7,1.7-1,2.3-1.7
			c0.3-0.5,0.5-1,0.6-1.5c0.6-2.7,1.9-5.3,3.8-7.3c0.1,2.5-0.5,4.8-1.6,7c-0.6,0.9-0.9,1.7-1.1,2.6c-0.3,1.6,0.6,3.1,0.1,4.7
			c-0.5,1.5-2.3,2.9-2.5,4.7c0,1.5,1.1,2.7,1.1,4.3c-0.1,0.6-0.3,1.3-0.7,1.7c-1,2.1-3.2,3.2-5.4,3.2l-3.2,0.1L149.1,144.8z"/>
	</g>
	<path class="st4" d="M146.2,152.2c-0.3,0-0.6,0-0.9,0s-0.7-0.1-1-0.3c-0.5-0.1-0.9-0.5-1.3-0.7c-0.3-0.1-0.5-0.5-0.6-0.7
		c-0.1-0.3-0.1-0.6-0.1-0.9s0-0.7,0-1s-0.1-0.7-0.5-1c-0.5-0.7-0.9-1.5-1.1-2.2c-0.1-0.9-0.1-1.9,0.1-2.7c0.3-1,0.3-2.1,0-2.9
		c-0.3-1-1-1.7-1.3-3.1c-0.3-1.1-0.3-2.5-0.3-3.7c0-0.6-0.1-1.3-0.5-1.7c-0.3-0.6-0.6-1-0.9-1.7c-0.5-1.3-0.7-2.6-0.7-3.9l-0.3-2.1
		c0-0.7-0.1-1.3-0.3-2.1c-0.1-0.7-0.5-1.3-0.7-1.9c-0.1-0.3-0.3-0.7-0.3-1s-0.1-0.7-0.1-1c0-0.7,0-1.5,0.1-2.2
		c0-0.7,0.1-1.5,0.3-2.2v-0.3h0.1c0.7,0.3,1.3,0.9,1.7,1.5c0.5,0.6,0.9,1.3,1,2.1c0.5,1.3,0.7,2.7,1,4.2c0.1,1.3,0.6,2.6,1.3,3.8
		c0.3,0.6,0.7,1,1.1,1.6s0.7,1.1,0.7,1.7c0.1,1.3-0.6,2.5-0.5,3.7c0,0.6,0.3,1.1,0.6,1.6s0.6,1,0.9,1.5c0.3,0.5,0.6,1,0.9,1.5
		c0.3,0.5,0.3,1,0.5,1.6c0,1,0,2.1,0,3.1c0.1,0.9,0.3,1.7,0.7,2.6c0.5,0.7,0.7,1.5,1.1,2.2c0.1,0.3,0.3,0.7,0.5,1
		c0.1,0.3,0.1,0.7,0.3,1c0.1,0.6,0.1,1.1,0,1.7c-0.1,0.9-0.5,1.6-0.9,2.3c-0.1,0.1-0.1,0.1-0.3,0.3l-0.1,0.1L146.2,152.2
		c0.1-0.1,0.5-0.5,0.6-0.6c0.5-0.7,0.7-1.5,0.9-2.3c0.1-0.6,0.1-1.1,0-1.7c0-0.3-0.1-0.7-0.3-1c-0.1-0.3-0.3-0.6-0.5-1
		c-0.3-0.7-0.7-1.3-1.1-2.2c-0.5-0.9-0.7-1.7-0.7-2.6c0-1,0-2.1,0-3.1c0-0.6-0.1-1-0.5-1.6c-0.3-0.5-0.6-1-0.9-1.5
		c-0.3-0.5-0.6-0.9-0.9-1.5c-0.3-0.6-0.6-1.1-0.6-1.7c-0.1-1.3,0.6-2.5,0.5-3.7c-0.1-0.7-0.3-1.3-0.7-1.7c-0.3-0.6-0.7-1-1.1-1.6
		c-0.7-1.1-1.1-2.5-1.3-3.9c-0.1-1.5-0.6-2.7-1-4.1c-0.3-0.6-0.6-1.3-1-1.7c-0.5-0.6-1-1-1.6-1.5h0.1v0.1c0,0.7-0.1,1.5-0.3,2.2
		c-0.1,0.7-0.1,1.5-0.1,2.2c0,0.3,0,0.7,0.1,1s0.1,0.7,0.3,1c0.3,0.6,0.6,1.3,0.7,2.1c0.1,0.6,0.3,1.3,0.3,1.9l0.1,2.1
		c0,1.3,0.3,2.6,0.7,3.8c0.3,0.6,0.6,1.1,0.9,1.7c0.3,0.6,0.5,1.1,0.5,1.7c0,1.1,0,2.3,0.1,3.5c0.3,1,1,2.1,1.3,3.1s0.3,2.1,0,3.1
		c-0.3,0.9-0.3,1.7-0.1,2.7c0.3,0.7,0.7,1.5,1.1,2.2c0.1,0.3,0.3,0.7,0.5,1c0,0.3,0,0.7,0,1s0,0.6,0.1,0.9c0.1,0.3,0.3,0.5,0.5,0.7
		c0.5,0.3,0.7,0.6,1.1,0.7c0.3,0.1,0.7,0.3,1,0.3c0.1,0,0.5,0,0.6,0h0.8v0H146.2z"/>
	<path class="st4" d="M136.3,114.7L136.3,114.7v0.5c0,0.3,0.1,0.6,0.3,1.1c0.1,0.6,0.5,1,0.6,1.6c0.3,0.7,0.5,1.5,0.7,2.2
		c0.3,0.7,0.5,1.7,0.7,2.7c0.1,1,0.6,2.2,1,3.1c0.3,0.5,0.6,1,0.7,1.6c0.3,0.6,0.5,1.1,0.5,1.7c0.1,1.3,0.5,2.6,0.7,3.8l1.7,7.3
		l1.5,5.9l1,4.1l0.3,1.1v0.3c0,0,0,0,0,0.1v-0.1v-0.3l-0.3-1l-1-4.1l-1.5-5.9l-1.7-7.3c-0.3-1.3-0.5-2.6-0.6-3.9
		c0-0.6-0.1-1.1-0.5-1.7c-0.1-0.6-0.5-1-0.7-1.6c-0.5-1-0.9-2.1-1-3.2c-0.1-1-0.5-1.9-0.6-2.7c-0.1-0.8-0.5-1.6-0.7-2.2
		c-0.3-0.6-0.5-1.1-0.6-1.7s-0.1-0.9-0.1-1.1L136.3,114.7C136.5,114.7,136.5,114.7,136.3,114.7z"/>
	<path class="st7" d="M145.6,152.2c-2.1-1.3-2.6-4.9-1.7-7.3c0.9-2.3,2.3-4.3,2.6-6.7c-0.1-1.9-0.1-3.7,0-5.5
		c0.6-2.5,2.9-4.3,2.9-6.9c0-1.5-0.7-2.7-0.7-4.1c0.5-1.7,1.1-3.2,2.2-4.7c1-2.5,1.6-5.1,1.7-7.7c0.1-2.6,1.6-5.1,3.8-6.7
		c0.6,2.2,0.7,4.5,0.7,6.7c-0.6,1.7-1.1,3.7-1.5,5.4c-0.1,1.5-0.1,2.7-0.3,4.2c0,1.3-0.3,2.7-0.7,4.1c-0.5,1-1,1.7-1.3,2.9
		c-0.6,1.7,0.1,3.9-0.3,5.9c-0.3,1.6-1.5,3.1-1.7,4.7c-0.3,2.3,1.1,4.8,0.5,7c-0.6,1-1.1,2.1-1.6,3.1c-0.1,0.9,0,1.7-0.1,2.7
		c-0.3,1.5-3.1,2.5-4.5,2.5"/>
	<path class="st4" d="M156.1,105C156.1,105.1,156.1,105.1,156.1,105v0.5c0,0.3-0.1,0.7-0.1,1.5c-0.1,0.6-0.5,1.3-0.7,2.2
		c-0.3,0.9-0.6,1.7-0.7,2.7c-0.3,1-0.5,2.2-0.6,3.5s-0.6,2.7-1,3.9c-0.3,0.6-0.6,1.3-0.9,2.1c-0.3,0.7-0.5,1.5-0.5,2.2
		c-0.1,1.6-0.3,3.2-0.6,4.8l-1.7,9.1l-1.6,7.5l-1,5.1l-0.3,1.3v0.3v0.1v-0.1v-0.3l0.3-1.3l1-5.1l1.6-7.5l1.7-9.1
		c0.3-1.6,0.5-3.2,0.6-4.8c0-0.7,0.3-1.6,0.5-2.3c0.3-0.7,0.6-1.3,0.9-2.1c0.6-1.3,0.9-2.6,1-3.9s0.5-2.5,0.7-3.5
		c0.3-1,0.6-2.1,0.9-2.7c0.3-0.7,0.6-1.5,0.7-2.1c0.1-0.6,0.1-1,0.3-1.3L156.1,105L156.1,105z"/>
	<path class="st8" d="M77.4,13.4c0.6,0.5,1.1,0.9,1.6,1.5l2.1-0.3l1.3,3.1l-1.6,1.1c0.1,0.7,0.1,1.5,0,2.2l1.6,1.1l-1.1,3.1
		l-2.1-0.3c-0.5,0.6-0.9,1.1-1.5,1.6l0.3,2.1l-3.1,1.3l-1.1-1.6c-0.7,0.1-1.5,0.1-2.2,0l-1.1,1.6l-3.1-1.3l0.3-2.1
		c-0.6-0.5-1.1-0.9-1.6-1.5L64,25.3l-1.3-3.1l1.6-1.1c-0.1-0.7-0.1-1.5,0-2.2l-1.6-1.1l1.1-3.1l2.1,0.3c0.5-0.6,0.9-1.1,1.5-1.6
		l-0.3-2.1l3.1-1.1l1.1,1.6c0.7-0.1,1.5-0.1,2.2,0l1-1.6l3.1,1.1L77.4,13.4L77.4,13.4z M73.9,16.7C72,16,70,16.8,69.1,18.6
		c-0.7,1.9,0.1,3.9,1.9,4.8c1.9,0.7,3.9-0.1,4.8-1.9v-0.1C76.7,19.4,75.8,17.5,73.9,16.7L73.9,16.7z"/>
	<path class="st4" d="M73.9,16.7c0.3,0.1,0.6,0.3,0.7,0.5c0.7,0.5,1.1,1.1,1.3,1.9c0.1,0.6,0.1,1.1,0,1.6c-0.1,0.6-0.5,1.3-0.9,1.7
		c-0.5,0.6-1.1,0.9-1.7,1.1c-1.6,0.5-3.2-0.3-4.1-1.6c-0.5-0.6-0.6-1.3-0.6-2.1c0-0.6,0.3-1.3,0.6-1.7c0.3-0.5,0.7-0.9,1.1-1.1
		c0.7-0.5,1.6-0.6,2.5-0.6C73.3,16.5,73.6,16.5,73.9,16.7c0,0-0.3-0.1-0.9-0.3c-0.7-0.1-1.6,0.1-2.2,0.5c-1,0.6-1.7,1.7-1.7,2.9
		c0,0.7,0.1,1.3,0.6,1.9c0.7,1.3,2.3,1.9,3.8,1.5c0.7-0.1,1.3-0.6,1.7-1c0.7-0.9,1-2.1,0.7-3.2c-0.1-0.7-0.7-1.5-1.3-1.9
		C74.2,16.8,73.9,16.7,73.9,16.7z"/>
	<path class="st4" d="M77.4,13.4C77.4,13.4,77.4,13.3,77.4,13.4v-0.5l0.1-1.5l0,0l-3.1-1.3l0,0l-1.1,1.6l0,0l0,0
		c-0.7-0.1-1.5-0.1-2.2,0l0,0l0,0L70,10.1l0,0l-2.9,1.5l0,0l0.3,1.9l0,0l0,0c-0.6,0.5-1,1-1.5,1.5l0,0l0,0L64,14.6l0,0l-1.1,3.1
		v-0.1l1.6,1.1l0,0l0,0c-0.1,0.7-0.1,1.5,0,2.2l0,0l0,0L62.9,22v-0.1l1.3,3.1H64l2.1-0.3l0,0l0,0c0.5,0.6,1,1,1.5,1.5l0,0v0.1l0,0
		v0.1v0.3v0.5l-0.1,1v-0.1l3.1,1.1h-0.1l1.1-1.6l0,0l0,0c0.7,0.1,1.5,0.1,2.2,0l0,0l0,0l1.1,1.6h-0.1l3.1-1.3V28l-0.3-1.9l0,0l0,0
		c0.6-0.5,1-1,1.5-1.5l0,0l0,0L81,25h-0.1l1.1-3.1V22l-1.6-1.1l0,0l0,0c0.1-0.7,0.1-1.5,0-2.2l0,0l0,0l1.6-1.1l0,0l-1-3.1l0,0
		l-2.2,0.3l0,0c-0.3-0.5-0.7-0.9-1.1-1.1L77.4,13.4L77.4,13.4L77.4,13.4l0.5,0.3c0.5,0.3,0.9,0.7,1.1,1.1l0,0l1.9-0.3l0,0l0,0
		l1.3,3.1l0,0l0,0l-1.6,1.1l0,0c0.1,0.7,0.1,1.5,0,2.2l0,0l1.6,1.1l0,0l0,0L81,25.1l0,0l0,0l-2-0.3l0,0c-0.5,0.6-1,1.1-1.5,1.6l0,0
		l0.3,2.1l0,0l0,0l-3.1,1.3l0,0l0,0l-1.1-1.6h0.1c-0.7,0.1-1.5,0.1-2.2,0h0.1l-1.1,1.6l0,0l0,0l-3.2-1.1l0,0l0,0v-1v-0.5v-0.3v-0.1
		l0,0v0.1l0,0c-0.6-0.5-1.1-1-1.6-1.5h0.1l-2.1,0.3l0,0l0,0l-1.3-3.3l0,0l0,0l1.6-1.1v0.1c-0.1-0.7-0.1-1.5,0-2.2v0.1L62.4,18l0,0
		l0,0l1.1-3.1v-0.5l0,0l2.1,0.3l0,0c0.5-0.6,1-1.1,1.5-1.6l0,0l-0.3-1.9l0,0l0,0l3.1-1.3l0,0l0,0l1.1,1.6l0,0c0.7-0.1,1.5-0.1,2.2,0
		l0,0l1.1-1.6l0,0l0,0l3.1,1.3l0,0l-0.3,1.5V13L77.4,13.4z"/>
	<path class="st2" d="M123.1,90.6c0.7,0.6,1.5,1.1,1.9,1.9l2.5-0.5l1.6,3.8l-2.1,1.5c0.1,0.9,0.1,1.9,0,2.7l2.1,1.5l-1.5,3.8
		l-2.5-0.3c-0.6,0.7-1.1,1.5-1.9,1.9l0.5,2.6l-3.8,1.6l-1.5-2.2c-0.9,0.1-1.9,0.1-2.7,0l-1.5,2.1l-3.9-1.6l0.5-2.3
		c-0.7-0.6-1.5-1.1-1.9-1.9l-2.6,0.6l-1.6-3.9l2.1-1.5c-0.1-0.9-0.1-1.9,0-2.7l-2.1-1.5l1.6-3.9l2.5,0.5c0.6-0.7,1.1-1.5,1.9-1.9
		l-0.5-2.5l3.8-1.6l1.5,2.1c0.9-0.1,1.9-0.1,2.7,0l1.5-2.1l3.9,1.6L123.1,90.6z M118.7,94.9c-2.3-0.9-4.9,0.1-5.8,2.5
		s0.1,4.9,2.5,5.8c2.3,0.9,4.9-0.1,5.8-2.5l0,0C122.1,98.3,121,95.7,118.7,94.9z"/>
	<path class="st8" d="M123.1,90.6c0.7,0.6,1.5,1.1,1.9,1.9l2.5-0.5l1.6,3.8l-2.1,1.5c0.1,0.9,0.1,1.9,0,2.7l2.1,1.5l-1.5,3.8
		l-2.5-0.3c-0.6,0.7-1.1,1.5-1.9,1.9l0.5,2.6l-3.8,1.6l-1.5-2.2c-0.9,0.1-1.9,0.1-2.7,0l-1.5,2.1l-3.9-1.6l0.5-2.3
		c-0.7-0.6-1.5-1.1-1.9-1.9l-2.6,0.6l-1.6-3.9l2.1-1.5c-0.1-0.9-0.1-1.9,0-2.7l-2.1-1.5l1.6-3.9l2.5,0.5c0.6-0.7,1.1-1.5,1.9-1.9
		l-0.5-2.5l3.8-1.6l1.5,2.1c0.9-0.1,1.9-0.1,2.7,0l1.5-2.1l3.9,1.6L123.1,90.6z M118.7,94.9c-2.3-0.9-4.9,0.1-5.8,2.5
		s0.1,4.9,2.5,5.8c2.3,0.9,4.9-0.1,5.8-2.5l0,0C122.1,98.3,121,95.7,118.7,94.9z"/>
	<path class="st4" d="M118.7,94.9c0.3,0.1,0.7,0.3,1,0.5c1.5,1,2.2,2.7,1.7,4.5c-0.1,0.9-0.6,1.6-1,2.2c-0.6,0.7-1.3,1.1-2.2,1.3
		c-1.9,0.6-4.1-0.3-5.1-2.1c-0.5-0.7-0.7-1.6-0.7-2.6c0-0.9,0.3-1.6,0.7-2.3c1-1.5,2.7-2.2,4.5-2.1
		C117.9,94.5,118.4,94.6,118.7,94.9c-0.3,0-0.7-0.1-1-0.1c-1-0.1-2.1,0.1-2.9,0.6c-1.3,0.7-2.1,2.2-2.2,3.7c0,0.9,0.1,1.7,0.7,2.5
		c1,1.6,3.1,2.5,4.9,1.9c0.9-0.1,1.6-0.7,2.2-1.3c1-1.1,1.3-2.6,1-4.1c-0.3-1-0.9-1.9-1.6-2.5C119.4,95.1,119,95,118.7,94.9z"/>
	<path class="st4" d="M123.1,90.6C123.1,90.6,123.1,90.6,123.1,90.6V90l0.3-1.7l0,0l-3.9-1.6l0,0l-1.3,2.1l0,0l0,0
		c-0.9-0.1-1.9-0.1-2.7,0l0,0l0,0l-1.5-2.1l0,0l-3.8,1.6l0,0l0.5,2.5l0,0l0,0c-0.7,0.6-1.3,1.1-1.7,1.9l0,0l0,0l-2.6-0.3h-0.1
		l-1.6,3.9v-0.1l2.1,1.5l0,0l0,0c-0.1,0.9-0.1,1.7,0,2.7l0,0l0,0l-2.1,1.5v-0.1l1.6,3.8h-0.1l2.5-0.5l0,0l0,0
		c0.6,0.7,1.1,1.3,1.9,1.7l0,0l0,0l0,0l-0.5,2.5v-0.1l3.9,1.6h-0.1l1.3-1.7l0,0l0,0c0.9,0.1,1.7,0.1,2.7,0l0,0l0,0l1.5,2.1h-0.1
		l3.8-1.6v0.1l-0.5-2.5l0,0l0,0c0.7-0.6,1.3-1.1,1.7-1.9l0,0l0,0l2.5,0.5h-0.1l1.9-3.9v0.1l-2.1-1.5l0,0l0,0c0.1-0.9,0.1-1.7,0-2.7
		l0,0l0,0l2.1-1.6l0,0l-1.6-3.9l0,0l-2.5,0.5l0,0c-0.5-0.6-0.9-1-1.5-1.5L123.1,90.6L123.1,90.6L123.1,90.6l0.6,0.3
		c0.6,0.5,1,1,1.5,1.5l0,0l2.5-0.5l0,0l0,0l1.6,3.9l0,0l0,0l-2.1,1.5l0,0c0.1,0.9,0.1,1.9,0,2.7l0,0l2.1,1.5l0,0l0,0l-1.6,3.9l0,0
		l0,0l-2.5-0.3l0,0c-0.6,0.7-1.1,1.5-1.9,2.1l0,0l0.5,2.5l0,0l0,0l-3.8,1.6l0,0l0,0l-1.6-2.1h0.1c-0.9,0.1-1.9,0.1-2.7,0h0.1
		l-1.5,2.1l0,0l0,0l-3.9-1.5l0,0l0,0l0.3-2.5v0.1l0,0c-0.7-0.6-1.3-1.1-1.9-1.9h0.1l-2.7,0.3l0,0l0,0l-1.6-3.8l0,0l0,0l2.1-1.5v0.1
		c-0.1-0.9-0.1-1.9,0-2.7V98l-2.2-1.6l0,0l0,0l1.6-3.9l0,0l0,0l2.6,0.3l0,0c0.6-0.7,1.1-1.5,1.9-1.9l0,0l-0.5-2.5l0,0l0,0l3.8-1.6
		l0,0l0,0l1.5,2.1l0,0c0.9-0.1,1.9-0.1,2.7,0l0,0l1.5-2.1l0,0l0,0l3.9,1.6l0,0l-0.3,1.7v0.5C123.3,90.6,123.1,90.6,123.1,90.6z"/>
	<path class="st4" d="M60.7,24.1h43.5c5.3,0,9.5,4.2,9.5,9.5v109.1c0,5.3-4.2,9.5-9.5,9.5H60.7c-5.3,0-9.5-4.2-9.5-9.5V33.6
		C51.2,28.3,55.4,24.1,60.7,24.1z"/>
	<path class="st9" d="M104.1,27.9h-8.5c-1.1,0-2.1,1-2.1,2.2l0,0v1.5c0,1.1-0.9,2.2-2.1,2.2l0,0H75.2c-1.1,0-2.1-1-2.1-2.2l0,0v-1.5
		c0-1.1-0.9-2.2-2.1-2.2l0,0H60.6c-3.7,0-6.5,2.9-6.7,6.5V141c0,3.7,2.9,6.7,6.7,6.7l0,0H104c3.7,0,6.7-2.9,6.7-6.7l0,0V34.6
		C110.7,31,107.8,27.9,104.1,27.9z"/>
	<path class="st4" d="M69.5,53.9l0.3,0.1l0.7,0.6l0,0l0,0L69,56.3l0,0l3.7,3.5h-0.1l1.5-1.6l0,0l0,0c0.5,0.3,1,0.6,1.3,0.9
		c0.5,0.5,0.9,0.9,1,1.5c0,0.1,0,0.3,0,0.5v0.3v0.1c0,0.1-0.1,0.3-0.1,0.5c-0.1,0.1-0.1,0.3-0.3,0.5c-0.5,0.5-1,0.9-1.6,1
		s-1.3,0-1.7-0.1c-0.3-0.1-0.6-0.3-0.7-0.5c-0.3-0.1-0.5-0.5-0.6-0.6l-2.6-2.6l-2.2-2.2L66.1,57c-0.1-0.1-0.3-0.3-0.5-0.5
		c-0.3-0.3-0.5-0.9-0.3-1.3c0.1-0.7,0.6-1.3,1.3-1.7c0.5-0.3,1-0.3,1.6-0.3c0.3,0,0.7,0.1,1,0.3L69.5,53.9L69.5,53.9
		c-0.5-0.3-0.9-0.6-1.3-0.6c-0.6-0.1-1,0-1.6,0.3s-1,0.9-1.1,1.6c0,0.5,0,0.9,0.3,1.1c0.1,0.1,0.3,0.3,0.5,0.5l0.5,0.5l2.2,2.1
		l2.5,2.3c0.1,0.1,0.5,0.5,0.6,0.6c0.3,0.1,0.5,0.3,0.7,0.5c0.6,0.3,1.1,0.3,1.7,0.1c0.6-0.1,1.1-0.5,1.5-0.9
		c0.1-0.1,0.1-0.3,0.3-0.3c0.1-0.1,0.1-0.3,0.1-0.5V61l0,0c0-0.1,0-0.3,0-0.5c-0.1-0.6-0.5-1-0.9-1.3c-0.5-0.3-0.9-0.6-1.3-0.9h0.1
		L72.8,60l0,0l0,0l-3.5-3.7l0,0l0,0l1.6-1.7l0,0l-1-0.7C69.8,53.9,69.5,53.9,69.5,53.9z"/>
	<path class="st4" d="M77.4,66.6c0.1,0,0.5,0,0.6-0.1c0.6-0.1,1-0.6,1.3-1.1c0.1-0.1,0.1-0.5,0.1-0.6s0-0.5,0-0.7v-1.6v-3.9v-4.8
		v-1.3c0-0.5,0-0.9-0.1-1.3c-0.1-0.5-0.5-0.7-0.9-1c-0.5-0.3-0.9-0.3-1.3-0.3L64.6,50c-1.1,0-2.1,0.9-2.1,2.1v3.2v5.9V64
		c0,0.5,0,0.9,0,1.3c0.3,0.9,1,1.5,1.7,1.5h12.2h-1.7h-6.9h-3.5c-0.9,0-1.7-0.7-1.9-1.6c0-0.3-0.1-0.5-0.1-0.7v-0.7V61v-6.2v-3.1
		c0-1.1,1-2.2,2.2-2.2L77,49.4c0.5,0,1,0.1,1.5,0.3c0.5,0.3,0.7,0.6,0.9,1c0.1,0.3,0.1,0.5,0.1,0.7c0,0.3,0,0.5,0,0.7V64
		c0,0.3,0,0.5,0,0.7c0,0.3,0,0.5-0.1,0.6c-0.3,0.6-0.7,1-1.3,1.3C77.8,66.6,77.7,66.6,77.4,66.6z"/>
	<path class="st10" d="M87.1,49.6l12.7-0.1c1.1,0,2.2,0.9,2.2,2.2l0.1,12.7c0,1.1-0.9,2.2-2.2,2.2H87.3c-1.1,0-2.2-0.9-2.2-2.2
		L85,51.7C85.1,50.6,85.9,49.6,87.1,49.6z"/>
	<path class="st9" d="M99.3,58.1c0-0.5-0.1-0.9-0.1-1.3c-0.3-1.1-1-2.3-2.1-3.1c-1.5-1.1-3.5-1.5-5.3-0.7c-1,0.5-2.1,1-2.6,1.9
		c-1.5,1.9-1.5,4.7,0,6.5c0.7,0.9,1.6,1.6,2.6,1.9c2.9,1,6.1-0.6,7.1-3.5c0-0.1,0.1-0.3,0.1-0.5C99.3,58.9,99.3,58.4,99.3,58.1
		C99.3,58.1,99.3,58.1,99.3,58.1v0.4c0,0.1,0,0.3,0,0.5s0,0.5-0.1,0.6c-0.1,0.6-0.3,1-0.6,1.5c-0.7,1.3-2.2,2.3-3.7,2.7
		c-1,0.1-2.1,0.1-3.1-0.1c-1-0.5-2.1-1-2.6-1.9c-1.5-2.1-1.5-4.8,0-6.9c0.7-0.9,1.6-1.6,2.6-1.9c1-0.3,2.1-0.5,3.1-0.3
		c1.6,0.3,3.1,1.3,3.9,2.6c0.3,0.5,0.5,1,0.6,1.5c0,0.1,0.1,0.5,0.1,0.6s0,0.3,0,0.5L99.3,58.1L99.3,58.1z"/>
	<ellipse transform="matrix(1 -8.202128e-03 8.202128e-03 1 -0.4693 0.7705)" class="st9" cx="93.7" cy="57.6" rx="5.8" ry="0.1"/>
	<path class="st9" d="M93.9,63.7l0.1-0.3l0.3-0.6c0.1-0.3,0.3-0.7,0.5-1c0.1-0.5,0.5-0.9,0.6-1.5c0.5-1.3,0.6-2.6,0.5-3.9
		c-0.1-0.7-0.3-1.5-0.7-2.2c-0.3-0.7-1-1.3-1.6-1.7h0.1l-0.3,0.3c-1.3,1.1-2.2,2.6-2.5,4.2c-0.3,1.3-0.1,2.7,0.6,3.9
		c0.1,0.3,0.3,0.5,0.5,0.7c0.1,0.1,0.3,0.5,0.5,0.6l0.5,0.5l0.3,0.5C93.4,63.5,93.8,63.7,93.9,63.7l0.1,0.2L93.9,63.7
		c-0.1,0-0.3-0.2-0.6-0.4l-0.6-0.7l-0.5-0.5c-0.1-0.1-0.3-0.5-0.5-0.6c-0.1-0.1-0.3-0.5-0.5-0.7c-0.7-1.1-0.9-2.6-0.6-4.1
		c0.5-1.6,1.3-3.2,2.6-4.2l0.3-0.3l0,0l0,0c0.7,0.5,1.3,1.1,1.6,1.9c0.5,0.7,0.7,1.5,0.9,2.2c0.1,1.3,0,2.6-0.5,3.9
		c-0.1,0.5-0.3,1-0.6,1.5c-0.1,0.3-0.3,0.7-0.6,1L94,63.3L93.9,63.7z"/>
	<path class="st4" d="M77.7,134.5c0.1,0,0.5,0,0.6-0.1c0.7-0.3,1.3-1,1.5-1.7c0-0.1,0-0.5,0-0.7v-1.7v-3.9v-4.8v-1.3
		c0-0.5,0-0.9-0.1-1.3c-0.1-0.3-0.5-0.7-0.9-1c-0.5-0.3-0.9-0.3-1.3-0.3l-12.3,0.1c-1.1,0-2.1,0.9-2.1,2.1v3.2v5.9v2.7
		c0,0.5,0,0.9,0,1.3c0.3,0.9,1,1.5,1.7,1.5h12.3h-1.7h-7h-3.5c-0.9,0-1.7-0.7-1.9-1.6c0-0.3-0.1-0.5-0.1-0.7v-0.8v-2.7v-5.9v-3.1
		c0-1.1,1-2.2,2.2-2.2l12.5-0.1c0.5,0,1,0.1,1.5,0.3c0.5,0.3,0.7,0.6,0.9,1c0.1,0.3,0.1,0.5,0.1,0.7s0,0.5,0,0.7v11.5
		c0,0.3,0,0.5,0,0.7c0,0.3,0,0.5-0.1,0.6c-0.3,0.6-0.7,1-1.3,1.3C78.3,134.5,77.9,134.5,77.7,134.5z"/>
	<path class="st4" d="M65.9,122.2h0.7h2.2l7.5-0.1h0.1v0.1v7.3l-0.1,0.1H65.8l0,0c0-2.3,0-4.1,0-5.4v-1.7
		C65.7,122.3,65.7,122.2,65.9,122.2c-0.1,0.1-0.1,0.1-0.1,0.3v0.5v1.5v5.4l0,0h4.8h5.7l-0.1,0.1v-7.4l0.1,0.1H65.8L65.9,122.2
		L65.9,122.2z"/>
	<path class="st4" d="M71.1,126.9L71.1,126.9l0.3-0.5l1-1l3.7-3.5v0.3h-5.3h-5.3v-0.1l3.9,3.5l1,1L71.1,126.9L71.1,126.9l-0.3-0.3
		l-1-0.9l-3.9-3.5l-0.1-0.1h0.3h5.3h5.3H77l-0.5,0.1l-3.8,3.5l-1,0.9L71.1,126.9z"/>
	<ellipse transform="matrix(0.6789 -0.7342 0.7342 0.6789 -71.8887 90.737)" class="st4" cx="67.8" cy="127.6" rx="2.7" ry="0.1"/>
	<ellipse transform="matrix(0.7228 -0.691 0.691 0.7228 -67.5089 86.8651)" class="st4" cx="74.5" cy="127.6" rx="0.1" ry="2.7"/>
	<path class="st10" d="M65,95.1h12.7c1.1,0,2.2,1,2.2,2.2V110c0,1.1-1,2.2-2.2,2.2H65c-1.1,0-2.2-1-2.2-2.2V97.3
		C62.9,96,63.9,95.1,65,95.1z"/>
	<path class="st2" d="M76.3,107.2C76.3,107.1,76.3,107.1,76.3,107.2v-0.6V105v-5.4l0,0l-9.7,0.1l0.1-0.1l0,0v7.7l-0.1-0.1h9h-2.1
		l-7.1,0.1h-0.2l0,0v-3.7v-3.9l0,0l0.1-0.1H76l0,0l0,0c0,2.3,0,4.2,0,5.4v1.9C76.3,107.1,76.3,107.1,76.3,107.2z"/>
	<path class="st2" d="M69.7,98.2c0.3,0,0.6,0,0.9,0h2.2l0,0l0,0l0.9,1.5l0.1,0.1h-5.1v-0.1C68.9,99.1,69.3,98.6,69.7,98.2
		c0,0-0.1,0.1-0.3,0.5l-0.6,1.1v-0.1h3.9h0.9v0.1l-0.9-1.6l0,0h-2.2C70.3,98.2,69.9,98.2,69.7,98.2z"/>
	<path class="st2" d="M73.3,104.1c0,0,0-0.1,0-0.6s-0.1-1-0.5-1.5c-0.7-1-2.1-1.3-3.1-0.6s-1.3,2.1-0.6,3.1c0.6,0.7,1.6,1.1,2.5,0.9
		c0.5-0.1,0.9-0.5,1.1-0.9C73.1,104.2,73.3,104.1,73.3,104.1L73.3,104.1c-0.1,0.3-0.1,0.5-0.3,0.6c-0.3,0.5-0.7,0.7-1.1,1
		c-1.1,0.5-2.5-0.3-2.9-1.5l0,0c-0.3-1,0-2.1,0.9-2.6c1-0.7,2.5-0.5,3.2,0.6l0,0c0.3,0.5,0.5,1,0.3,1.5
		C73.5,103.7,73.5,103.9,73.3,104.1L73.3,104.1z"/>
	<path class="st11" d="M87.4,72.5l12.7-0.1c1.1,0,2.2,0.9,2.2,2.2l0.1,12.7c0,1.1-0.9,2.2-2.2,2.2l-12.7,0.1c-1.1,0-2.2-0.9-2.2-2.2
		l-0.1-12.7C85.3,73.5,86.3,72.5,87.4,72.5z"/>
	<path class="st9" d="M99.2,80.6c0-0.5-0.1-0.9-0.1-1.3c-0.3-1.1-1-2.3-2.1-3.1c-1.5-1.1-3.5-1.5-5.3-0.7c-1,0.5-1.9,1-2.6,1.9
		c-1.5,1.9-1.5,4.7,0,6.5c0.7,0.9,1.6,1.5,2.6,1.7c2.9,1,6.1-0.5,7.1-3.3c0-0.1,0.1-0.3,0.1-0.5C99.1,81.5,99.1,81,99.2,80.6
		L99.2,80.6v0.3c0,0.1,0,0.3,0,0.5c0,0.1,0,0.5-0.1,0.6c-0.1,0.6-0.3,1-0.6,1.5c-0.9,1.5-2.2,2.5-3.8,2.7c-1,0.1-2.1,0.1-3.1-0.1
		c-1-0.5-1.9-1-2.5-1.9c-1.5-2.1-1.5-4.8,0-6.7c0.7-0.9,1.6-1.6,2.6-2.1c0.9-0.3,1.9-0.5,2.7-0.3c1.6,0.3,3.1,1.3,3.8,2.6
		c0.3,0.5,0.5,1,0.6,1.5c0,0.1,0.1,0.5,0.1,0.6s0,0.3,0,0.5L99.2,80.6L99.2,80.6z"/>
	<path class="st9" d="M92.2,77.9l0.3,0.1l0.9,0.5l3.3,1.7h0.1h-0.1l-2.2,1.5l-2,1.3h-0.1v-0.1c0-1.5,0-2.7,0-3.7v-1
		C92.1,78.1,92.1,78.1,92.2,77.9c0,0,0,0.1,0,0.5v1c0,0.9,0,2.2,0,3.7h-0.1l2.5-1.3l2.2-1.3v0.1l-3.3-1.8l-0.9-0.6L92.2,77.9z"/>
	
		<ellipse transform="matrix(0.9999 -1.000100e-02 1.000100e-02 0.9999 -0.8872 0.7755)" class="st1" cx="77.1" cy="89.1" rx="0.6" ry="0.1"/>
	<ellipse transform="matrix(1 -8.202128e-03 8.202128e-03 1 -0.73 0.6149)" class="st1" cx="74.6" cy="89.3" rx="0.6" ry="0.1"/>
	<ellipse transform="matrix(1 -8.202128e-03 8.202128e-03 1 -0.7301 0.5944)" class="st1" cx="72.1" cy="89.3" rx="0.6" ry="0.1"/>
	<ellipse transform="matrix(1 -8.202128e-03 8.202128e-03 1 -0.7301 0.5755)" class="st1" cx="69.8" cy="89.3" rx="0.6" ry="0.1"/>
	
		<ellipse transform="matrix(0.9999 -1.000100e-02 1.000100e-02 0.9999 -0.8897 0.6815)" class="st1" cx="67.7" cy="89.3" rx="0.6" ry="0.1"/>
	<path class="st1" d="M64.5,89.3c0,0,0.3,0,0.6,0c0.2,0,0.6,0,0.6,0.1s-0.3,0.1-0.6,0.1S64.5,89.5,64.5,89.3z"/>
	<path class="st1" d="M62.9,87.9c0,0,0.1,0.1,0.3,0.5c0.1,0.3,0.3,0.5,0.3,0.5s-0.3-0.1-0.5-0.5C62.9,88.1,62.7,87.9,62.9,87.9z"/>
	<ellipse transform="matrix(1 -8.202128e-03 8.202128e-03 1 -0.7041 0.5172)" class="st1" cx="62.7" cy="86.1" rx="0.1" ry="0.6"/>
	<ellipse transform="matrix(1 -8.202128e-03 8.202128e-03 1 -0.6853 0.5171)" class="st1" cx="62.7" cy="83.8" rx="0.1" ry="0.6"/>
	
		<ellipse transform="matrix(0.9999 -1.000100e-02 1.000100e-02 0.9999 -0.8099 0.6331)" class="st1" cx="62.9" cy="81.3" rx="0.1" ry="0.6"/>
	
		<ellipse transform="matrix(0.9999 -1.000100e-02 1.000100e-02 0.9999 -0.7859 0.631)" class="st1" cx="62.7" cy="78.9" rx="0.1" ry="0.6"/>
	<ellipse transform="matrix(1 -8.376599e-03 8.376599e-03 1 -0.6403 0.5262)" class="st1" cx="62.5" cy="76.7" rx="0.1" ry="0.6"/>
	<path class="st1" d="M62.9,73.7c0,0,0,0.3,0,0.6c0,0.3,0,0.6-0.1,0.6s-0.1-0.3,0-0.6C62.9,73.8,62.7,73.6,62.9,73.7z"/>
	<path class="st1" d="M64.7,72.5c0,0-0.3,0.1-0.6,0.1c-0.3,0.1-0.5,0.1-0.5,0s0.1-0.3,0.5-0.3C64.5,72.2,64.7,72.5,64.7,72.5z"/>
	<ellipse transform="matrix(1 -8.202128e-03 8.202128e-03 1 -0.5924 0.5479)" class="st1" cx="66.5" cy="72.5" rx="0.6" ry="0.1"/>
	<ellipse transform="matrix(1 -8.202128e-03 8.202128e-03 1 -0.5924 0.5668)" class="st1" cx="68.8" cy="72.5" rx="0.6" ry="0.1"/>
	<ellipse transform="matrix(1 -8.202128e-03 8.202128e-03 1 -0.5923 0.5873)" class="st1" cx="71.3" cy="72.5" rx="0.6" ry="0.1"/>
	<ellipse transform="matrix(1 -8.202128e-03 8.202128e-03 1 -0.5922 0.6061)" class="st1" cx="73.6" cy="72.5" rx="0.6" ry="0.1"/>
	<ellipse transform="matrix(1 -8.202128e-03 8.202128e-03 1 -0.5921 0.625)" class="st1" cx="75.9" cy="72.5" rx="0.6" ry="0.1"/>
	<path class="st1" d="M78.9,72.8c0,0-0.3-0.1-0.6-0.1s-0.6-0.1-0.6-0.2s0.3,0,0.6,0S78.9,72.8,78.9,72.8z"/>
	<path class="st1" d="M79.5,75.1c0,0-0.1-0.3-0.1-0.6c0-0.3,0-0.6,0-0.6s0.1,0.3,0.1,0.6C79.5,74.7,79.5,75.1,79.5,75.1z"/>
	
		<ellipse transform="matrix(0.9999 -1.000100e-02 1.000100e-02 0.9999 -0.763 0.8009)" class="st1" cx="79.7" cy="76.7" rx="0.1" ry="0.6"/>
	
		<ellipse transform="matrix(0.9999 -1.000100e-02 1.000100e-02 0.9999 -0.787 0.801)" class="st1" cx="79.7" cy="79.1" rx="0.1" ry="0.6"/>
	<ellipse transform="matrix(1 -8.202128e-03 8.202128e-03 1 -0.6666 0.6548)" class="st1" cx="79.5" cy="81.6" rx="0.1" ry="0.6"/>
	
		<ellipse transform="matrix(0.9999 -1.000100e-02 1.000100e-02 0.9999 -0.8341 0.8012)" class="st1" cx="79.7" cy="83.8" rx="0.1" ry="0.6"/>
	
		<ellipse transform="matrix(0.9999 -1.000100e-02 1.000100e-02 0.9999 -0.8591 0.8014)" class="st1" cx="79.7" cy="86.3" rx="0.1" ry="0.6"/>
	<path class="st1" d="M78.7,89c0,0,0.1-0.1,0.3-0.5c0.1-0.3,0.3-0.5,0.5-0.5c0,0,0,0.3-0.3,0.6C78.9,88.9,78.7,89,78.7,89z"/>
	<ellipse transform="matrix(1 -8.202128e-03 8.202128e-03 1 -1.0933 0.819)" class="st1" cx="99.3" cy="133.7" rx="0.6" ry="0.1"/>
	<ellipse transform="matrix(1 -8.202128e-03 8.202128e-03 1 -1.0934 0.7993)" class="st1" cx="96.9" cy="133.7" rx="0.6" ry="0.1"/>
	<ellipse transform="matrix(1 -8.202128e-03 8.202128e-03 1 -1.0935 0.7796)" class="st1" cx="94.5" cy="133.7" rx="0.6" ry="0.1"/>
	
		<ellipse transform="matrix(0.9999 -1.000100e-02 1.000100e-02 0.9999 -1.3305 0.9297)" class="st1" cx="92.3" cy="133.5" rx="0.6" ry="0.1"/>
	
		<ellipse transform="matrix(0.9999 -1.000100e-02 1.000100e-02 0.9999 -1.3306 0.9077)" class="st1" cx="90.1" cy="133.5" rx="0.6" ry="0.1"/>
	<path class="st1" d="M86.9,133.8c0,0,0.3,0,0.6,0s0.6,0,0.6,0.1s-0.3,0.1-0.6,0.1S86.9,133.8,86.9,133.8z"/>
	<path class="st1" d="M85.1,132.2c0,0,0.1,0.1,0.3,0.5c0.1,0.3,0.3,0.5,0.3,0.5s-0.3-0.1-0.5-0.5C85.1,132.5,85.1,132.2,85.1,132.2z
		"/>
	
		<ellipse transform="matrix(0.9999 -1.000100e-02 1.000100e-02 0.9999 -1.2988 0.8596)" class="st1" cx="85.3" cy="130.3" rx="0.1" ry="0.6"/>
	<ellipse transform="matrix(1 -8.202128e-03 8.202128e-03 1 -1.0479 0.7007)" class="st1" cx="84.9" cy="128.1" rx="0.1" ry="0.6"/>
	<ellipse transform="matrix(1 -8.202128e-03 8.202128e-03 1 -1.029 0.7006)" class="st1" cx="84.9" cy="125.8" rx="0.1" ry="0.6"/>
	<ellipse transform="matrix(1 -8.202128e-03 8.202128e-03 1 -1.0085 0.7005)" class="st1" cx="84.9" cy="123.3" rx="0.1" ry="0.6"/>
	<ellipse transform="matrix(1 -8.202128e-03 8.202128e-03 1 -0.9896 0.7005)" class="st1" cx="84.9" cy="121" rx="0.1" ry="0.6"/>
	<path class="st1" d="M85.1,118.1c0,0,0,0.3,0,0.6c0,0.3,0,0.6-0.1,0.6s-0.1-0.3,0-0.6C85.1,118.3,85.1,117.9,85.1,118.1z"/>
	<path class="st1" d="M87,116.8c0,0-0.3,0.1-0.6,0.1c-0.3,0.1-0.6,0.1-0.6,0.1s0.1-0.3,0.5-0.3C86.5,116.8,87,116.8,87,116.8z"/>
	
		<ellipse transform="matrix(0.9999 -1.000100e-02 1.000100e-02 0.9999 -1.1626 0.8959)" class="st1" cx="89" cy="116.7" rx="0.6" ry="0.1"/>
	<ellipse transform="matrix(1 -8.202128e-03 8.202128e-03 1 -0.955 0.752)" class="st1" cx="91.2" cy="116.8" rx="0.6" ry="0.1"/>
	<ellipse transform="matrix(1 -8.202128e-03 8.202128e-03 1 -0.9549 0.7709)" class="st1" cx="93.5" cy="116.8" rx="0.6" ry="0.1"/>
	<ellipse transform="matrix(1 -8.202128e-03 8.202128e-03 1 -0.9548 0.7914)" class="st1" cx="96" cy="116.8" rx="0.6" ry="0.1"/>
	<ellipse transform="matrix(1 -8.202128e-03 8.202128e-03 1 -0.9547 0.8102)" class="st1" cx="98.3" cy="116.8" rx="0.6" ry="0.1"/>
	<path class="st1" d="M101.1,117.3c0,0-0.3-0.1-0.6-0.3c-0.3-0.1-0.6-0.1-0.6-0.3c0,0,0.3,0,0.6,0
		C100.9,116.8,101.3,117.3,101.1,117.3z"/>
	<path class="st1" d="M101.8,119.4c0,0-0.1-0.3-0.1-0.6c0-0.3,0-0.6,0-0.6s0.1,0.3,0.1,0.6S101.9,119.4,101.8,119.4z"/>
	
		<ellipse transform="matrix(1 -8.202128e-03 8.202128e-03 1 -0.9899 0.8391)" class="st1" cx="101.8" cy="121.1" rx="0.1" ry="0.6"/>
	
		<ellipse transform="matrix(0.9999 -1.000100e-02 1.000100e-02 0.9999 -1.228 1.0272)" class="st1" cx="102.1" cy="123.3" rx="0.1" ry="0.6"/>
	
		<ellipse transform="matrix(0.9999 -1.000100e-02 1.000100e-02 0.9999 -1.253 1.0273)" class="st1" cx="102.1" cy="125.8" rx="0.1" ry="0.6"/>
	
		<ellipse transform="matrix(1 -8.202128e-03 8.202128e-03 1 -1.0481 0.8401)" class="st1" cx="101.9" cy="128.2" rx="0.1" ry="0.6"/>
	
		<ellipse transform="matrix(1 -8.202128e-03 8.202128e-03 1 -1.0686 0.8402)" class="st1" cx="101.9" cy="130.7" rx="0.1" ry="0.6"/>
	<path class="st1" d="M100.9,133.4c0,0,0.1-0.1,0.3-0.5c0.1-0.3,0.3-0.5,0.5-0.5c0,0,0,0.3-0.3,0.6
		C101.3,133.3,101.1,133.4,100.9,133.4z"/>
	<ellipse transform="matrix(1 -8.202128e-03 8.202128e-03 1 -0.9153 0.8174)" class="st1" cx="99.2" cy="112" rx="0.6" ry="0.1"/>
	<ellipse transform="matrix(1 -8.202128e-03 8.202128e-03 1 -0.9154 0.7986)" class="st1" cx="96.9" cy="112" rx="0.6" ry="0.1"/>
	
		<ellipse transform="matrix(0.9999 -1.000100e-02 1.000100e-02 0.9999 -1.1143 0.9526)" class="st1" cx="94.7" cy="111.9" rx="0.6" ry="0.1"/>
	<ellipse transform="matrix(1 -8.202128e-03 8.202128e-03 1 -0.9156 0.7592)" class="st1" cx="92.1" cy="112" rx="0.6" ry="0.1"/>
	<ellipse transform="matrix(1 -8.202128e-03 8.202128e-03 1 -0.9157 0.7395)" class="st1" cx="89.7" cy="112" rx="0.6" ry="0.1"/>
	<path class="st1" d="M86.9,112c0,0,0.3,0,0.6,0s0.6,0,0.6,0.1s-0.3,0.1-0.6,0.1S86.9,112.1,86.9,112z"/>
	<path class="st1" d="M85.1,110.5c0,0,0.1,0.1,0.3,0.5c0.1,0.3,0.3,0.5,0.3,0.5s-0.3-0.1-0.5-0.5C85.1,110.9,85.1,110.5,85.1,110.5z
		"/>
	<ellipse transform="matrix(1 -8.202128e-03 8.202128e-03 1 -0.8896 0.7017)" class="st1" cx="85.1" cy="108.8" rx="0.1" ry="0.6"/>
	<ellipse transform="matrix(1 -8.202128e-03 8.202128e-03 1 -0.8707 0.7)" class="st1" cx="84.9" cy="106.5" rx="0.1" ry="0.6"/>
	<ellipse transform="matrix(1 -8.202128e-03 8.202128e-03 1 -0.8502 0.6999)" class="st1" cx="84.9" cy="104" rx="0.1" ry="0.6"/>
	
		<ellipse transform="matrix(0.9999 -1.000100e-02 1.000100e-02 0.9999 -1.0108 0.8561)" class="st1" cx="85.1" cy="101.5" rx="0.1" ry="0.6"/>
	<ellipse transform="matrix(1 -8.202128e-03 8.202128e-03 1 -0.8116 0.6997)" class="st1" cx="84.9" cy="99.3" rx="0.1" ry="0.6"/>
	<path class="st1" d="M85.1,96.2c0,0,0,0.3,0,0.6c0,0.3,0,0.6-0.1,0.6s-0.1-0.3,0-0.6C85.1,96.6,85.1,96.2,85.1,96.2z"/>
	<path class="st1" d="M87,95.1c0,0-0.3,0.1-0.6,0.1c-0.3,0.1-0.6,0.1-0.6,0.1s0.1-0.3,0.5-0.3C86.5,95.1,87,95.1,87,95.1z"/>
	
		<ellipse transform="matrix(0.9999 -1.000100e-02 1.000100e-02 0.9999 -0.9456 0.8948)" class="st1" cx="89" cy="95" rx="0.6" ry="0.1"/>
	<ellipse transform="matrix(1 -8.202128e-03 8.202128e-03 1 -0.777 0.7513)" class="st1" cx="91.2" cy="95.1" rx="0.6" ry="0.1"/>
	<ellipse transform="matrix(1 -8.202128e-03 8.202128e-03 1 -0.7769 0.7701)" class="st1" cx="93.5" cy="95.1" rx="0.6" ry="0.1"/>
	<ellipse transform="matrix(1 -8.202128e-03 8.202128e-03 1 -0.7768 0.7906)" class="st1" cx="96" cy="95.1" rx="0.6" ry="0.1"/>
	<ellipse transform="matrix(1 -8.202128e-03 8.202128e-03 1 -0.7767 0.8095)" class="st1" cx="98.3" cy="95.1" rx="0.6" ry="0.1"/>
	<path class="st1" d="M101.1,95.5c0,0-0.3-0.1-0.6-0.3c-0.3-0.1-0.6-0.1-0.6-0.3c0,0,0.3,0,0.6,0C100.9,95,101.3,95.5,101.1,95.5z"
		/>
	<path class="st1" d="M101.8,97.7c0,0-0.1-0.3-0.1-0.6c0-0.3,0-0.6,0-0.6s0.1,0.3,0.1,0.6C101.8,97.5,101.9,97.7,101.8,97.7z"/>
	<ellipse transform="matrix(1 -8.202128e-03 8.202128e-03 1 -0.8119 0.8383)" class="st1" cx="101.8" cy="99.4" rx="0.1" ry="0.6"/>
	
		<ellipse transform="matrix(1 -8.202128e-03 8.202128e-03 1 -0.8316 0.8392)" class="st1" cx="101.9" cy="101.8" rx="0.1" ry="0.6"/>
	
		<ellipse transform="matrix(1 -8.202128e-03 8.202128e-03 1 -0.8513 0.8393)" class="st1" cx="101.9" cy="104.2" rx="0.1" ry="0.6"/>
	<ellipse transform="matrix(1 -8.202128e-03 8.202128e-03 1 -0.871 0.8394)" class="st1" cx="101.9" cy="106.6" rx="0.1" ry="0.6"/>
	
		<ellipse transform="matrix(0.9999 -1.000100e-02 1.000100e-02 0.9999 -1.0829 1.0265)" class="st1" cx="102.1" cy="108.8" rx="0.1" ry="0.6"/>
	<path class="st1" d="M100.9,111.5c0,0,0.1-0.1,0.3-0.5c0.1-0.3,0.3-0.5,0.5-0.5s0,0.3-0.3,0.6C101.3,111.5,101.1,111.7,100.9,111.5
		z"/>
	<ellipse transform="matrix(1 -8.202128e-03 8.202128e-03 1 -0.4058 0.6456)" class="st10" cx="78.5" cy="49.8" rx="3.2" ry="3.2"/>
	<path class="st9" d="M79.7,50.4c0,0.5-0.3,0.9-1,0.9c-0.5,0-0.7-0.1-1-0.3l0.1-0.3c0.3,0.3,0.6,0.3,0.9,0.3c0.5,0,0.7-0.3,0.7-0.6
		s-0.3-0.6-0.7-0.6h-0.1v-0.1l0.7-1h-1.5v-0.3h1.7v0.1l-0.6,1.1C79.4,49.7,79.7,50.1,79.7,50.4z"/>
	
		<ellipse transform="matrix(0.9999 -1.000100e-02 1.000100e-02 0.9999 -1.3892 0.785)" class="st4" cx="77.8" cy="139.3" rx="0.9" ry="0.9"/>
	<ellipse transform="matrix(1 -8.202128e-03 8.202128e-03 1 -1.1406 0.6789)" class="st4" cx="82.2" cy="139.4" rx="0.9" ry="0.9"/>
	<ellipse transform="matrix(1 -8.202128e-03 8.202128e-03 1 -1.1405 0.7175)" class="st4" cx="86.9" cy="139.4" rx="0.9" ry="0.9"/>
	<ellipse class="st4" cx="101.9" cy="38.6" rx="0" ry="2.5"/>
	<ellipse class="st4" cx="101.9" cy="40" rx="0" ry="2.5"/>
	<ellipse class="st4" cx="101.9" cy="41.1" rx="0" ry="2.5"/>
	<path class="st4" d="M59.8,42.6h0.5h1l0,0v-0.9c0-0.1,0-0.3,0-0.5c0-0.1,0.1-0.3,0.3-0.3h0.5c0.1,0,0.3,0.1,0.3,0.5v1.1l0,0h1.1
		l0,0v-2.1c0-0.1-0.1-0.3-0.1-0.3l-0.6-0.6L62.3,39l-0.5-0.1c-0.1,0-0.1-0.1-0.3-0.1c-0.1,0-0.1,0-0.3,0l-0.3,0.3l-0.5,0.5
		c-0.3,0.3-0.6,0.6-0.9,0.9c0,0.1,0,0.3,0,0.5v1.7C59.9,42.4,59.9,42.4,59.8,42.6c0.1-0.1,0.1-0.1,0.1-0.3v-1.6c0-0.1,0-0.5,0-0.6
		c0.3-0.3,0.6-0.6,0.9-0.9l0.5-0.5l0.3-0.3c0.1,0,0.3,0,0.5,0c0.1,0,0.3,0.1,0.3,0.3l0.3,0.3l0.6,0.6l0.6,0.6
		c0.1,0.1,0.1,0.3,0.1,0.5v2.2h-1.5v-1.1c0-0.1-0.1-0.3-0.3-0.3h-0.5c-0.1,0-0.3,0.1-0.3,0.3s0,0.3,0,0.5V43L59.8,42.6L59.8,42.6z"
		/>
	<path class="st11" d="M106.1,118.1l12.7-0.1c1.1,0,2.2,0.9,2.2,2.2l0.1,12.7c0,1.1-0.9,2.2-2.2,2.2h-12.7c-1.1,0-2.2-0.9-2.2-2.2
		l-0.1-12.7C104,119.1,104.9,118.1,106.1,118.1z"/>
	<path class="st2" d="M108.3,125.8L108.3,125.8l0.6,0.6l1.7,1.5l0,0l0,0l-0.1,3.1h-0.1l2.6-1.7l0,0l2.7,1.1l-0.1,0.1l-0.7-3.1v-0.1
		l0,0l0,0l0,0l0.1-0.1l0.3-0.3l0.6-0.6l1-1.1v0.1l-3.2-0.1l0,0l0,0l-1.6-2.6h0.1l-1.1,2.7l0,0l0,0l-2.2,0.5L108.3,125.8L108.3,125.8
		L108.3,125.8l0.6-0.1l2.2-0.6l0,0l1.1-2.9l0,0v0.1l1.6,2.6l0,0l3.1,0.3h0.1l-0.1,0.1l-1,1.1l-0.6,0.6v0.3l-0.1,0.1l0,0l0,0l0,0
		v-0.1l0.7,3.1v0.1h-0.1l-2.7-1.3l0,0l-2.6,1.6h-0.1l0,0l0.3-3.1l0,0l-1.7-1.5L108.3,125.8L108.3,125.8z"/>
	<polygon class="st12" points="39.1,120.5 42.2,149.9 36.8,149.9 31.4,124.5 	"/>
	<path class="st12" d="M29.1,105.8h-9.3l2.1,17.1L7.7,142.6l2.9,3.7L26.1,130l3.2-3.5c0.7-0.7,1-1.7,1-2.7L29.1,105.8z"/>
	<path class="st13" d="M29.5,117.6L29.5,117.6c0,0.2,0.1,0.4,0.1,0.7s0.3,1.1,0.5,2.2s0.3,2.2,0.3,3.2c0,0.6-0.1,1.1-0.3,1.7
		c-0.3,0.6-0.7,1.1-1.1,1.7c-1.9,2.1-3.7,3.9-4.9,5.3l-1.5,1.6l-0.5,0.5l-0.1,0.1l0.1-0.1l0.5-0.5l1.5-1.6l5.1-5.3
		c0.5-0.5,0.9-1,1.1-1.6c0.3-0.6,0.3-1.1,0.3-1.7c0-1,0-2.2-0.1-3.2c-0.1-0.9-0.3-1.6-0.5-2.2L29.5,117.6L29.5,117.6
		C29.5,117.6,29.5,117.6,29.5,117.6z"/>
	<path class="st12" d="M47.7,82.7H48c1.3-0.1,2.6-0.5,3.9-0.7c1.6-0.5,1.6-0.6,1.5-0.9c-0.3-0.5-2.9,0.7-2.5,0.1s3.3-1.1,3.1-1.6
		c-0.3-0.5-3.1,0.7-3.3,0.7c-0.3,0.1-0.5-0.3-0.1-0.3c0.3,0,3.7-1.3,3.2-2.1c-0.1-0.3-0.7,0-0.7,0s-3.1,1.3-3.2,1
		c-0.1-0.3,1.6-1.1,2.2-1.5c0.6-0.3,0.7-0.6,0.5-0.9c-0.9,0.1-1.9,0.5-2.6,0.9c-0.6,0.3-2.2,1-1.7,0l0,0c0.5-0.6,0.6-1.5,0.5-2.2
		c-0.1-0.1-0.3-0.3-0.6-0.1c0,0.2,0,0.5,0,0.6v0.1l0,0c-0.1,0.5-0.3,0.7-0.5,1c-0.1,0.3-0.3,0.6-0.6,0.9s-0.6,0.5-0.7,0.7l-2.2,0.9
		l2.1,3.8l1.5-0.3"/>
	<path class="st5" d="M39,80.5l7.4-2.5l1.7,5.4L37.9,87c-1.7,0.7-3.8-0.1-4.7-1.9l-1.6-6.5l5.3-3.9L39,80.5z"/>
	<path class="st7" d="M23.4,65.7c0,0-8.6-1.1-7.9,7.4c0.5,3.2,1.1,6.3,2.5,9.3c0.3,0.7,0.3,1.6,0.1,2.5c-0.9,2.5-2.9,6.3-3.2,8.5
		l17.6,1.5V80.2l3.1-1.1l2.6-1c-3.3-14.3-9.6-12.3-9.6-12.3L23.4,65.7"/>
	<g class="st14">
		<path d="M18.2,83.2c0,1.3-0.3,2.6-1,3.8c0,0,2.5,5.8,4.8,6.1c1.9,0.1,6.3,0.6,10.3,1l0.1-3.2L16,75.7
			C16.5,78.3,17.3,80.7,18.2,83.2z"/>
	</g>
	<path class="st11" d="M40.5,120.7c-4.2-8.7-7.7-18.1-8-27.8l0.1-16.3l-6.9,0.7L23,92.9L14.6,93c-1.5,3.9-1.6,8.1-0.3,12.1
		c1.3,4.7,4.2,9,3.3,13.8c-0.1,1.1-0.5,2.3,0.1,3.2c0.6,0.6,1.3,0.9,2.1,0.9c5.8,1.1,12.1,2.3,17.7,0.5c0.5-0.1,0.7-0.3,1-0.6
		C40,122.1,40.7,121.5,40.5,120.7z"/>
	<path class="st15" d="M22.9,94.4c0,0.3,0,0.6-0.1,0.7c-0.5,1.3-1.7,2.1-3.1,1.9c-0.3,0-0.6,0-0.7-0.1c0,0,0.3,0,0.7,0
		c1.3,0,2.5-0.7,2.9-1.7C22.7,94.5,22.7,94.3,22.9,94.4z"/>
	<path class="st11" d="M32.1,71.7c0,0.1,0,0.3,0,0.5c0,0.3-0.1,0.6-0.3,1l0,0c0.1,0.3,0.5,0.7,0.7,1.3c0.2,0.6,0.5,1.1,0.6,1.7
		c0,0.1,0,0.3,0,0.3v0.3c0,0.1,0,0.5,0,0.6c0,0.5-0.1,0.7-0.1,1.1c-0.1,0.6-0.3,1.1-0.5,1.6l0,0c0,0.1,0,0.5,0,0.6
		c0-0.1,0-0.5,0-0.6l0,0c0.1-0.6,0.3-1,0.5-1.6c0-0.3,0.1-0.7,0.1-1.1c0-0.5,0-0.5,0-0.6v-0.3c0-0.1,0-0.3,0-0.3
		c-0.1-0.6-0.3-1.1-0.6-1.6s-0.5-0.9-0.6-1.3l0,0l0.3-1C32.1,72.1,32.1,71.9,32.1,71.7z"/>
	<path class="st11" d="M28.7,78.5c0,0,0,0.1-0.3,0.5c-0.6,0.7-1.5,1-2.3,1c-0.1,0-0.5,0-0.6-0.1c0.6,0,1.1-0.1,1.7-0.3
		C27.8,79.2,28.2,79,28.7,78.5z"/>
	<path class="st11" d="M18.5,66.6c3.5,2.7,6.1,6.5,7.5,10.7l1.1-0.1c-1.3-4.5-4.1-8.3-7.9-11.1C18.9,66.3,18.6,66.4,18.5,66.6z"/>
	<path class="st11" d="M29.1,65.6c1.9,3.5,3.1,7.3,3.2,11.2h-1c0,0-1.3-9-3.5-11.3L29.1,65.6z"/>
	<path class="st15" d="M27.3,77.3c0,0,0.1,0.1,0.1,0.5c0,0.1,0,0.5,0,0.6c0,0.3-0.1,0.5-0.5,0.6c-0.3,0.1-0.6,0-0.7-0.1
		s-0.1-0.3-0.3-0.6c0-0.3,0-0.5,0-0.5s0,0.1,0.1,0.5c0,0.1,0.1,0.3,0.3,0.5c0.2,0.1,0.3,0.1,0.5,0.1c0.1-0.1,0.3-0.3,0.3-0.5
		c0-0.1,0-0.3,0-0.5C27.3,77.5,27.3,77.3,27.3,77.3z"/>
	<path class="st15" d="M26.6,77.6L26.6,77.6L26.6,77.6L26.6,77.6L26.6,77.6L26.6,77.6L26.6,77.6c0,0.1,0,0.1,0.1,0.1l0.1,0.1
		c0,0.1-0.1,0.3-0.3,0.3h-0.1V78C26.6,77.6,26.6,77.6,26.6,77.6z"/>
	<path class="st15" d="M32,77.5c0,0,0,0-0.1,0c-0.3,0-0.5-0.3-0.5-0.6c0-0.1,0-0.1,0-0.1s0,0.1,0.1,0.5C31.7,77.4,32,77.5,32,77.5z"
		/>
	<ellipse transform="matrix(0.9881 -0.1537 0.1537 0.9881 -12.106 5.419)" class="st15" cx="29" cy="81" rx="1.5" ry="0.1"/>
	<path class="st15" d="M28.5,98.7c0.1,0.5,0.3,0.9,0.6,1.1c0.3,0.7,0.7,1.7,1.1,3.1c0.5,1.1,0.9,2.2,1.1,3.1
		c0.1,0.5,0.3,0.9,0.5,1.1c0-0.1,0-0.3,0-0.3c0-0.1-0.1-0.6-0.3-0.9c-0.3-0.7-0.6-1.7-1-3.1c-0.5-1.3-1-2.2-1.5-2.9L28.5,99
		C28.7,99.1,28.7,98.9,28.5,98.7z"/>
	<path class="st11" d="M10.9,146.6l0.3-0.3l-3.3-4.1l-1.5,1.3l0.1,0.3c1.7,2.2,3.5,4.2,5.4,6.1C12.9,150.5,10.9,146.6,10.9,146.6z"
		/>
	<g class="st16">
		<path class="st9" d="M7.7,145c0.3-0.3,0.5-0.7,0.5-1.1c0-0.5-0.1-0.9-0.6-1.1l-1,1L7.7,145z"/>
	</g>
	<g class="st16">
		<path class="st9" d="M11.8,148.7c0,0,0.7,1.5,0.3,1.5c-2.2-2.1-4.1-4.2-5.8-6.4h0.1l4.5,5.1C11.1,148.7,11.7,148.3,11.8,148.7z"/>
	</g>
	<path class="st4" d="M6.4,143.4L6.4,143.4l0.1,0.1l0.7,0.7c0.5,0.6,1.1,1.5,2.1,2.3c0.9,0.9,1.6,1.7,2.1,2.3l0.6,0.7l0.1,0.1l0,0
		l0,0l-0.1-0.1l-0.6-0.6c-0.6-0.6-1.3-1.5-2.1-2.3c-0.7-0.9-1.5-1.7-2.1-2.3l-0.6-0.7L6.4,143.4L6.4,143.4z"/>
	<path class="st4" d="M10.9,148.8c0.1,0,0.3-0.1,0.5-0.1s0.3,0,0.5,0C11.5,148.5,11.2,148.5,10.9,148.8z"/>
	<ellipse class="st4" cx="10.7" cy="147.1" rx="0" ry="0.3"/>
	<ellipse transform="matrix(0.1163 -0.9932 0.9932 0.1163 -136.3484 140.0615)" class="st4" cx="10.5" cy="146.7" rx="0" ry="0.1"/>
	<ellipse transform="matrix(0.7578 -0.6525 0.6525 0.7578 -92.8757 42.4173)" class="st4" cx="10.7" cy="146.3" rx="0" ry="0.3"/>
	<path class="st4" d="M10.7,145.8c0,0.1,0,0.1,0.1,0.3s0.3,0.1,0.3,0.1s0-0.1-0.1-0.3C10.7,145.8,10.9,145.8,10.7,145.8z"/>
	<path class="st4" d="M10.9,146.9c0,0.1,0.1,0.1,0.1,0.3l0.3,0.1l0.1,0.1h0.1v-0.1C11.5,147,11.2,146.8,10.9,146.9L10.9,146.9
		L10.9,146.9c0,0,0.1,0,0.3,0s0.3,0,0.3,0.1c0.1,0,0.1,0.1,0.3,0.3c0,0,0,0.1-0.1,0h-0.1l-0.3-0.1L10.9,146.9z"/>
	<path class="st4" d="M11.1,147.1c0.1,0,0.1,0,0.1-0.1c0,0,0.1-0.1,0.1-0.3c0-0.1,0-0.3,0-0.3h-0.1l0,0v0.1c0,0.1,0,0.1,0,0.3
		C11.2,146.7,11.2,146.9,11.1,147.1c0.1,0,0.1,0,0.1-0.3c0-0.1,0-0.1,0-0.3l0.1-0.1c0,0.1,0,0.1,0,0.3c0,0.1,0,0.1-0.1,0.1
		C11.2,146.9,11.1,146.9,11.1,147.1z"/>
	<path class="st4" d="M7.5,142.5c0,0,0.1,0.1,0.3,0.3c0.5,0.6,0.5,1.3,0,1.7c-0.1,0.1-0.1,0.3-0.1,0.3l0,0c0-0.1,0.1-0.1,0.1-0.3
		c0.5-0.6,0.5-1.3,0-1.7l-0.1-0.1L7.5,142.5z"/>
	<path class="st4" d="M8.5,145.1c0.1,0.3,0.3,0.5,0.5,0.6c0.1,0.1,0.3,0.5,0.6,0.6c0,0-0.3-0.3-0.5-0.6
		C8.7,145.3,8.6,145.1,8.5,145.1z"/>
	<path class="st4" d="M7.9,144.2L7.9,144.2c0,0.3,0,0.3,0,0.3s0,0,0.1-0.1C8.1,144.5,7.9,144.2,7.9,144.2z"/>
	<ellipse class="st4" cx="7.9" cy="143.8" rx="0" ry="0.1"/>
	<path class="st4" d="M7.7,143.1L7.7,143.1c0,0.3,0,0.3,0,0.3S7.7,143.4,7.7,143.1L7.7,143.1z"/>
	<ellipse transform="matrix(0.9386 -0.3451 0.3451 0.9386 -48.8578 11.374)" class="st4" cx="7.5" cy="142.9" rx="0" ry="0.1"/>
	<path class="st11" d="M42.1,150.1v-0.5h-5.3v1.9h0.3c2.7,0.1,5.5,0,8.3-0.3C46.4,151,42.1,150.1,42.1,150.1z"/>
	<g class="st16">
		<path class="st9" d="M38.7,151.5c-0.1-0.5-0.3-0.9-0.7-1c-0.3-0.3-0.7-0.5-1.1-0.3v1.5L38.7,151.5z"/>
	</g>
	<g class="st16">
		<path class="st9" d="M44.2,150.6c0,0,1.6,0.5,1.3,0.6c-2.9,0.5-5.8,0.5-8.7,0.3v-0.1l6.9-0.1C43.8,151.2,43.9,150.6,44.2,150.6z"
			/>
	</g>
	<path class="st4" d="M36.8,151.5h1.3c0.7,0,1.7,0,3.1,0s2.3-0.1,3.1-0.1h0.9l0,0h-0.9l-3.1,0.1h-3.1H36.8L36.8,151.5z"/>
	<path class="st4" d="M43.8,151.4c0-0.3,0.3-0.6,0.5-0.9C43.9,150.6,43.8,151,43.8,151.4z"/>
	<ellipse class="st4" cx="42.3" cy="150.4" rx="0" ry="0.3"/>
	<ellipse class="st4" cx="41.3" cy="150.5" rx="0" ry="0.1"/>
	<ellipse class="st4" cx="41.7" cy="149.9" rx="0" ry="0.3"/>
	<path class="st4" d="M41.3,149.6c0.1,0.1,0.5,0.1,0.6,0H41.3z"/>
	<path class="st4" d="M42.3,150.3c0.1,0,0.3,0,0.3,0H43h0.1v-0.1v-0.1C42.9,149.8,42.6,149.9,42.3,150.3c0.1,0,0,0.1,0,0.1l0,0
		c0-0.1,0.1-0.1,0.1-0.3c0-0.1,0.1-0.1,0.3-0.1s0.3,0,0.5,0v0.1h-0.1l-0.3,0.1L42.3,150.3L42.3,150.3z"/>
	<path class="st4" d="M42.5,150.3c0-0.1,0-0.1,0-0.3c0-0.1,0-0.1-0.1-0.3c0-0.1-0.1-0.1-0.3-0.1l-0.1,0.1l0,0v0.1
		c0,0.1,0.1,0.1,0.1,0.1C42.2,150.1,42.3,150.3,42.5,150.3l-0.3-0.1l-0.1-0.1V150c0,0,0.1,0,0.1,0.1l0.1,0.1
		C42.3,150.1,42.5,150.1,42.5,150.3z"/>
	<path class="st4" d="M36.8,150.1c0,0,0.1,0,0.5,0c0.6,0,1.1,0.5,1.5,1c0,0.1,0.1,0.3,0.1,0.3v-0.1c0-0.1,0-0.1,0-0.3
		c-0.1-0.6-0.7-1-1.5-1L36.8,150.1L36.8,150.1z"/>
	<path class="st4" d="M39.4,151c0.5,0.1,1,0.1,1.5,0c0,0-0.3,0-0.7,0H39.4z"/>
	<path class="st4" d="M38.4,151L38.4,151c0,0.3,0,0.3,0,0.3S38.4,151.2,38.4,151L38.4,151z"/>
	<ellipse transform="matrix(0.6867 -0.7269 0.7269 0.6867 -97.6893 74.8625)" class="st4" cx="38" cy="150.8" rx="0" ry="0.1"/>
	<path class="st4" d="M37.4,150.4L37.4,150.4h0.3c0,0,0,0-0.1-0.1C37.5,150.2,37.4,150.4,37.4,150.4z"/>
	<ellipse transform="matrix(0.3312 -0.9436 0.9436 0.3312 -117.7564 135.1947)" class="st4" cx="36.5" cy="150.7" rx="0" ry="0.1"/>
	<path class="st4" d="M29.9,51.2l1,7l1.6-0.3c0.3,0,0.6-0.1,0.7-0.3c0.3-0.3,0-0.7-0.3-1s-0.6-0.6-0.7-0.9c-0.1-0.5,0.1-0.9,0.1-1.1
		c0-0.5-0.1-0.9-0.5-1.1c-0.5-0.5-0.6-1-0.6-1.7"/>
	<path class="st12" d="M28.5,65.8c0-1.7-0.1-3.7-0.1-3.7c1.5-0.5,2.5-1.7,2.5-3.3c0-3.1-0.1-6.1-0.5-9.1l0,0c-3.3-1.1-7-0.1-9.1,2.6
		l0,0l0.9,14.1c0.1,1.6,1.6,2.9,3.2,2.7c0,0,0,0,0.1,0l0,0C27.2,69,28.7,67.7,28.5,65.8z"/>
	<ellipse transform="matrix(0.9944 -0.1054 0.1054 0.9944 -5.5887 3.4553)" class="st4" cx="29.9" cy="54.6" rx="0.5" ry="0.3"/>
	<path class="st4" d="M30.5,54.3c0,0-0.3-0.1-0.7-0.1c-0.5,0-0.7,0.3-0.7,0.1s0-0.1,0.1-0.1c0.1-0.1,0.5-0.1,0.6-0.1s0.5,0,0.6,0.1
		L30.5,54.3z"/>
	<ellipse transform="matrix(0.9939 -0.1104 0.1104 0.9939 -5.87 3.1929)" class="st4" cx="25.9" cy="54.6" rx="0.5" ry="0.3"/>
	<path class="st4" d="M26.3,54.5c0,0-0.3-0.1-0.7-0.1c-0.5,0-0.7,0.3-0.7,0.1c0,0,0-0.1,0.1-0.1c0.1-0.1,0.5-0.1,0.6-0.1
		s0.5,0,0.6,0.1S26.3,54.5,26.3,54.5z"/>
	<path class="st4" d="M27.9,57.6c0.1-0.1,0.5-0.1,0.6-0.1s0.1,0,0.1-0.1s0-0.1,0-0.3l-0.3-0.7c-0.3-0.6-0.6-1.3-0.7-2.1
		c0.5,0.6,0.7,1.3,0.9,1.9l0.3,0.7c0,0.1,0,0.3,0,0.5s-0.1,0.1-0.1,0.1h-0.1C28.3,57.5,28.1,57.6,27.9,57.6z"/>
	<path class="st13" d="M28.3,62.3c-1.3,0.1-2.7-0.1-3.9-0.9c0.9,1.3,2.5,1.9,3.9,1.5V62.3z"/>
	<path class="st13" d="M26.6,58.3c0.1-0.1,0.3-0.3,0.5-0.3s0.3,0,0.5,0.1c0,0,0,0.1,0.1,0.1h0.1c0.1,0,0.1,0,0.1,0.1v0.1
		c0,0.1-0.1,0.3-0.1,0.3c-0.1,0.1-0.1,0.3-0.3,0.3c-0.2,0-0.3,0-0.5,0c-0.1,0-0.3-0.1-0.5-0.3c-0.1-0.1-0.1-0.3,0-0.5
		c0.1-0.1,0.3-0.3,0.5-0.3"/>
	<path class="st4" d="M26.7,57.8c0,0,0,0.5,0.5,0.7c0.5,0.3,0.9,0.1,0.9,0.3c0,0-0.1,0-0.3,0.1c-0.3,0-0.5,0-0.7-0.1
		c-0.1-0.1-0.3-0.3-0.5-0.6C26.6,58.1,26.7,57.8,26.7,57.8z"/>
	<path class="st12" d="M22.5,55.4c-0.3,0-0.6,0-0.9,0.1S21,55.8,21,56.1c-0.1,0.3-0.1,0.6,0,0.9c0.1,0.3,0.3,0.6,0.6,0.7
		c0.1,0.1,0.3,0.3,0.6,0.3s0.5,0,0.6-0.1"/>
	<path class="st13" d="M22.4,57.3c0,0,0,0.1-0.5,0.1c-0.1,0-0.3-0.1-0.3-0.3c-0.1-0.1-0.1-0.3-0.1-0.5c0-0.1,0-0.5,0.1-0.6
		s0.3-0.3,0.5-0.3c0.3,0,0.5,0.1,0.3,0.1c0,0-0.1,0-0.3,0c-0.3,0.1-0.5,0.5-0.3,0.7c0,0.3,0.1,0.6,0.3,0.7
		C22.3,57.6,22.4,57.3,22.4,57.3z"/>
	<path class="st4" d="M29.7,48.8c0.3,0.9,0,1.9-0.9,2.3c-0.9,0.3-1.7,0.6-2.6,0.6c-0.9,0.1-1.9,0.6-2.1,1.5c0,0.6,0.3,1.1,0,1.6
		s-1,0.7-1.5,1.3c-0.5,0.9,0.7,2.1,0.5,3.1l-5.9-0.9c0-0.6,0.3-1.1,0.7-1.5c-0.6,0.3-1,0.7-1.3,1.3l-1.7-0.5
		c0.6-1.1,1.6-2.2,2.7-2.6c1-0.3-0.5-2.1,0-2.9c0.5-0.8,2.3-0.6,2.9-1.5c0.1-0.5,0.1-0.9,0.3-1.1c0.5-0.9,1.3-1.5,2.3-1.3
		c0.9,0,1.7,0.3,2.7,0.1c0.5,0,1-0.1,1.5-0.3c0.6-0.1,1,0,1.5,0.1c0.5,0.3,0.7,0.7,0.6,1.3"/>
	<path class="st4" d="M29.1,50.9c0.5,1,1,2.3,2.1,2.6c0.3-0.9,0.5-1.7,0.3-2.6c0-0.7-0.3-1.5-0.9-1.9c-0.5-0.6-1.1-0.7-1.9-0.7"/>
	<path class="st15" d="M18.5,58.3L18.5,58.3c0-0.2,0-0.4,0-0.7s0.1-0.6,0.3-0.7c0.1-0.3,0.5-0.6,0.6-0.9c0.1-0.5,0.3-0.9,0.1-1.1
		c-0.1-0.5-0.1-1,0-1.5c0.1-0.3,0.3-0.6,0.6-0.6c0.3-0.1,0.6-0.1,0.9-0.1s0.6-0.1,0.7-0.3c0.1-0.1,0.3-0.5,0.5-0.7
		c0-0.3,0.1-0.6,0.3-0.9c0.1-0.3,0.3-0.6,0.5-0.7c0.5-0.5,0.9-0.7,1.5-0.7s1,0,1.5,0.1s0.9,0.1,1.3,0.1c0.3,0,0.7-0.1,1-0.3
		c0.3-0.1,0.5-0.3,0.6-0.6c0.1-0.1,0.1-0.5,0.1-0.6v0.1c0,0.1,0,0.3-0.1,0.5c-0.1,0.3-0.3,0.5-0.6,0.6c-0.3,0.1-0.7,0.3-1,0.3
		c-0.5,0-0.9-0.1-1.3-0.1c-0.5-0.1-1-0.1-1.5-0.1c-0.6,0-1,0.3-1.5,0.7c-0.1,0.1-0.3,0.5-0.5,0.7c-0.1,0.2-0.1,0.6-0.3,0.9
		c-0.1,0.3-0.3,0.6-0.5,0.9c-0.3,0.1-0.6,0.3-0.9,0.3S20.2,53,20.1,53c-0.3,0.1-0.5,0.3-0.5,0.6c-0.1,0.5-0.1,1-0.1,1.5
		c0,0.3,0,0.5,0,0.7c0,0.1-0.1,0.5-0.1,0.6c-0.1,0.3-0.5,0.6-0.6,0.9c-0.1,0.3-0.3,0.5-0.3,0.7C18.3,57.8,18.3,58.2,18.5,58.3z"/>
	<path class="st15" d="M29.8,49.1L29.8,49.1c0,0.2-0.1,0.4-0.1,0.6c-0.3,0.5-0.7,0.9-1.3,1.1c-0.3,0.1-0.7,0.3-1.1,0.3s-0.9,0-1.3,0
		c-0.5-0.1-1-0.1-1.5,0s-0.9,0.5-1.1,0.9c-0.1,0.6-0.3,1-0.3,1.6c0,0.3-0.1,0.6-0.5,0.7c-0.3,0.1-0.5,0.1-0.7,0.1
		c-0.1,0-0.5,0.1-0.6,0.3c0,0.3-0.3,0.5-0.3,0.6c-0.1,0.3-0.1,0.7-0.1,1.1c0,0.6-0.1,1.1-0.3,1.6c-0.1,0.1-0.3,0.3-0.3,0.3h-0.1
		c0.1-0.1,0.3-0.3,0.5-0.5c0.3-0.5,0.3-1,0.3-1.6c0-0.5,0-0.9,0.1-1.1c0.1-0.2,0.3-0.5,0.5-0.6s0.5-0.3,0.6-0.3
		c0.3,0,0.5-0.1,0.6-0.3c0.1-0.1,0.3-0.5,0.3-0.6c0-0.6,0.1-1,0.3-1.6c0.3-0.6,0.7-0.9,1.3-1c0.5-0.1,1-0.1,1.5,0c0.5,0,0.9,0,1.3,0
		s0.7-0.1,1.1-0.3c0.6-0.3,1-0.6,1.3-1C29.7,49.3,29.8,49.1,29.8,49.1z"/>
	<path class="st15" d="M32.1,53.4c0-0.3-0.1-0.5-0.3-0.7c-0.2-0.2-0.3-0.5-0.5-0.6c-0.3-0.1-0.6-0.5-0.7-0.6
		c-0.3-0.3-0.5-0.6-0.5-0.9c0-0.3,0-0.6-0.1-0.7c0-0.3-0.1-0.5-0.1-0.7c0.1,0.1,0.3,0.5,0.3,0.7c0,0.6,0.1,1.1,0.6,1.6
		c0.3,0.3,0.5,0.5,0.7,0.6c0.3,0.1,0.5,0.5,0.5,0.7C32.1,52.8,32.1,53,32.1,53.4z"/>
	<path class="st4" d="M26.3,53.6c0,0.1-0.3,0-0.7,0c-0.5,0-0.7,0-0.7-0.1s0.3-0.3,0.7-0.3C26.1,53.4,26.3,53.6,26.3,53.6z"/>
	
		<ellipse transform="matrix(1.465985e-02 -0.9999 0.9999 1.465985e-02 -24.1774 82.4305)" class="st4" cx="29.7" cy="53.5" rx="0.1" ry="0.6"/>
	<path class="st10" d="M29.1,86.1l4-12c0.5-1.1,1.6-1.7,2.7-1.3l12.1,4c1.1,0.5,1.7,1.6,1.3,2.7l-4.1,12.1c-0.5,1.1-1.6,1.7-2.7,1.3
		l-12.1-4.1C29.3,88.5,28.7,87.2,29.1,86.1z"/>
	<path class="st2" d="M44.8,84.5c0.1-0.5,0.1-0.9,0.3-1.3c0.1-1.3-0.3-2.6-1-3.7c-1-1.6-2.9-2.5-4.8-2.5c-1.1,0-2.2,0.5-3.1,1
		c-2.1,1.5-2.9,3.9-2.1,6.3c0.3,1,1,2.1,1.7,2.6c2.5,1.9,5.9,1.6,7.9-0.9c0.1-0.1,0.1-0.3,0.3-0.5C44.3,85.4,44.5,84.9,44.8,84.5
		L44.8,84.5L44.8,84.5c0,0.2-0.1,0.4-0.1,0.6c-0.1,0.1-0.1,0.3-0.3,0.6c-0.3,0.5-0.6,0.9-1,1.3c-1.3,1-2.9,1.6-4.5,1.3
		c-1,0-2.1-0.5-2.9-1c-0.9-0.7-1.5-1.7-1.7-2.7c-0.7-2.5,0.1-5.1,2.2-6.4c0.9-0.7,2.1-1,3.2-1c1,0,2.1,0.3,2.9,0.7
		c1.5,0.9,2.5,2.2,2.7,3.8c0.1,0.6,0.1,1.1,0.1,1.6c0,0.1,0,0.5,0,0.6s0,0.3-0.1,0.5v0.3h-0.5C44.8,84.7,44.8,84.5,44.8,84.5z"/>
	<ellipse transform="matrix(0.3196 -0.9475 0.9475 0.3196 -49.7745 98.8004)" class="st2" cx="43.9" cy="84.1" rx="0.1" ry="1.3"/>
	<ellipse transform="matrix(0.3196 -0.9475 0.9475 0.3196 -56.6412 94.8146)" class="st2" cx="37.7" cy="86.8" rx="1.3" ry="0.1"/>
	<ellipse transform="matrix(0.3196 -0.9475 0.9475 0.3196 -46.5914 91.771)" class="st2" cx="40.6" cy="78.3" rx="1.3" ry="0.1"/>
	<ellipse transform="matrix(0.3196 -0.9475 0.9475 0.3196 -52.8304 88.5689)" class="st2" cx="35.3" cy="81.1" rx="0.1" ry="1.3"/>
	<ellipse transform="matrix(0.896 -0.444 0.444 0.896 -32.0231 26.6511)" class="st2" cx="40.9" cy="81.7" rx="2.2" ry="0.1"/>
	<ellipse transform="matrix(0.3196 -0.9475 0.9475 0.3196 -51.2268 94.7023)" class="st2" cx="40.3" cy="83" rx="0.1" ry="1.3"/>
	<path class="st12" d="M39.3,91.4l1.3,0.7c1.1,0.6,1.9,0.9,2.5,0.7c0.5-0.1,0.3-0.9,0.3-0.9s1,0.1,1.1-0.5c0-0.3,0-0.5-0.3-0.6
		c0.5,0.1,0.9,0.1,1.1,0c0.5-0.3,0-0.9,0-0.9c1.3,0,1.6-0.7,1.5-0.9c-0.5-0.1-0.7-0.3-1.1-0.3c-0.7-0.1-2.9-0.6-1.7-1.3
		c0.9-0.5,1.6-1,2.1-2.1c0-0.3-0.1-0.5-0.5-0.5c-0.1,0-0.3,0.1-0.3,0.1c-0.3,0.3-0.7,0.6-1.1,0.9c-0.3,0.1-0.7,0.3-1,0.5l-1.1,0.1
		L40,87.2L39.3,91.4z"/>
	<path class="st7" d="M16.3,74.1c1.1,3.9,2.7,7.5,4.8,11.1c1,2.2,2.9,3.9,5.3,4.8l14.3,2.7l1-6.3c0,0-12.3-3.2-13.4-3.7l-6.7-12.9"
		/>
	<path class="st11" d="M16.7,68.2l0.3-0.1c0.3-0.1,0.6-0.1,0.7-0.1c0.5,0,0.9,0,1.3,0.1c0.6,0.1,1,0.5,1.5,0.7
		c1.1,1,2.1,2.2,2.6,3.5c0.7,1.5,1.5,3.1,2.3,4.8l2.7,5.8l0,0l5.1,1.3l1.5,0.5l0.5,0.1h0.1h-0.1h-0.5l-1.5-0.3l-5.1-1.3l0,0l0,0
		l-2.7-5.8c-0.9-1.7-1.6-3.3-2.3-4.8c-0.6-1.3-1.5-2.5-2.6-3.5c-0.5-0.3-0.9-0.6-1.5-0.7c-0.5-0.1-0.9-0.1-1.1-0.1
		C17.5,68,17.1,68,16.7,68.2z"/>
</g>
</svg>
