<?xml version="1.0" encoding="utf-8"?>
<!-- Generator: Adobe Illustrator 21.0.0, SVG Export Plug-In . SVG Version: 6.00 Build 0)  -->
<svg version="1.1" id="Layer_1" xmlns="http://www.w3.org/2000/svg" xmlns:xlink="http://www.w3.org/1999/xlink" x="0px" y="0px"
	 viewBox="0 0 160 160" style="enable-background:new 0 0 160 160;" xml:space="preserve">
<style type="text/css">
	.st0{fill:#27B4C2;}
	.st1{fill:#E6E5E4;}
	.st2{fill:#C2C1C1;}
	.st3{fill:#B5B4B4;}
	.st4{fill:#FFFEFD;}
	.st5{fill:#DEDDDC;}
	.st6{fill:#354E69;}
	.st7{fill:#134F5E;}
	.st8{fill:#B5B4B3;}
	.st9{clip-path:url(#SVGID_2_);}
	.st10{fill:none;stroke:#FFFFFF;stroke-width:0.22;stroke-miterlimit:10;stroke-opacity:0;}
	.st11{opacity:2.000000e-02;fill:none;stroke:#FFFFFF;stroke-width:0.23;stroke-miterlimit:10;enable-background:new    ;}
	.st12{opacity:4.000000e-02;fill:none;stroke:#FFFFFF;stroke-width:0.24;stroke-miterlimit:10;enable-background:new    ;}
	.st13{opacity:6.000000e-02;fill:none;stroke:#FFFFFF;stroke-width:0.24;stroke-miterlimit:10;enable-background:new    ;}
	.st14{opacity:8.000000e-02;fill:none;stroke:#FFFFFF;stroke-width:0.25;stroke-miterlimit:10;enable-background:new    ;}
	.st15{opacity:0.1;fill:none;stroke:#FFFFFF;stroke-width:0.26;stroke-miterlimit:10;enable-background:new    ;}
	.st16{opacity:0.12;fill:none;stroke:#FFFFFF;stroke-width:0.27;stroke-miterlimit:10;enable-background:new    ;}
	.st17{opacity:0.13;fill:none;stroke:#FFFFFF;stroke-width:0.28;stroke-miterlimit:10;enable-background:new    ;}
	.st18{opacity:0.15;fill:none;stroke:#FFFFFF;stroke-width:0.29;stroke-miterlimit:10;enable-background:new    ;}
	.st19{opacity:0.17;fill:none;stroke:#FFFFFF;stroke-width:0.29;stroke-miterlimit:10;enable-background:new    ;}
	.st20{opacity:0.19;fill:none;stroke:#FFFFFF;stroke-width:0.3;stroke-miterlimit:10;enable-background:new    ;}
	.st21{opacity:0.21;fill:none;stroke:#FFFFFF;stroke-width:0.31;stroke-miterlimit:10;enable-background:new    ;}
	.st22{opacity:0.23;fill:none;stroke:#FFFFFF;stroke-width:0.32;stroke-miterlimit:10;enable-background:new    ;}
	.st23{opacity:0.25;fill:none;stroke:#FFFFFF;stroke-width:0.33;stroke-miterlimit:10;enable-background:new    ;}
	.st24{opacity:0.27;fill:none;stroke:#FFFFFF;stroke-width:0.34;stroke-miterlimit:10;enable-background:new    ;}
	.st25{opacity:0.29;fill:none;stroke:#FFFFFF;stroke-width:0.34;stroke-miterlimit:10;enable-background:new    ;}
	.st26{opacity:0.31;fill:none;stroke:#FFFFFF;stroke-width:0.35;stroke-miterlimit:10;enable-background:new    ;}
	.st27{opacity:0.33;fill:none;stroke:#FFFFFF;stroke-width:0.36;stroke-miterlimit:10;enable-background:new    ;}
	.st28{opacity:0.35;fill:none;stroke:#FFFFFF;stroke-width:0.37;stroke-miterlimit:10;enable-background:new    ;}
	.st29{opacity:0.37;fill:none;stroke:#FFFFFF;stroke-width:0.38;stroke-miterlimit:10;enable-background:new    ;}
	.st30{opacity:0.38;fill:none;stroke:#FFFFFF;stroke-width:0.39;stroke-miterlimit:10;enable-background:new    ;}
	.st31{opacity:0.4;fill:none;stroke:#FFFFFF;stroke-width:0.4;stroke-miterlimit:10;enable-background:new    ;}
	.st32{opacity:0.42;fill:none;stroke:#FFFFFF;stroke-width:0.4;stroke-miterlimit:10;enable-background:new    ;}
	.st33{opacity:0.44;fill:none;stroke:#FFFFFF;stroke-width:0.41;stroke-miterlimit:10;enable-background:new    ;}
	.st34{opacity:0.46;fill:none;stroke:#FFFFFF;stroke-width:0.42;stroke-miterlimit:10;enable-background:new    ;}
	.st35{opacity:0.48;fill:none;stroke:#FFFFFF;stroke-width:0.43;stroke-miterlimit:10;enable-background:new    ;}
	.st36{opacity:0.5;fill:none;stroke:#FFFFFF;stroke-width:0.44;stroke-miterlimit:10;enable-background:new    ;}
	.st37{opacity:0.52;fill:none;stroke:#FFFFFF;stroke-width:0.45;stroke-miterlimit:10;enable-background:new    ;}
	.st38{opacity:0.54;fill:none;stroke:#FFFFFF;stroke-width:0.45;stroke-miterlimit:10;enable-background:new    ;}
	.st39{opacity:0.56;fill:none;stroke:#FFFFFF;stroke-width:0.46;stroke-miterlimit:10;enable-background:new    ;}
	.st40{opacity:0.58;fill:none;stroke:#FFFFFF;stroke-width:0.47;stroke-miterlimit:10;enable-background:new    ;}
	.st41{opacity:0.6;fill:none;stroke:#FFFFFF;stroke-width:0.48;stroke-miterlimit:10;enable-background:new    ;}
	.st42{opacity:0.62;fill:none;stroke:#FFFFFF;stroke-width:0.49;stroke-miterlimit:10;enable-background:new    ;}
	.st43{opacity:0.63;fill:none;stroke:#FFFFFF;stroke-width:0.5;stroke-miterlimit:10;enable-background:new    ;}
	.st44{opacity:0.65;fill:none;stroke:#FFFFFF;stroke-width:0.5;stroke-miterlimit:10;enable-background:new    ;}
	.st45{opacity:0.67;fill:none;stroke:#FFFFFF;stroke-width:0.51;stroke-miterlimit:10;enable-background:new    ;}
	.st46{opacity:0.69;fill:none;stroke:#FFFFFF;stroke-width:0.52;stroke-miterlimit:10;enable-background:new    ;}
	.st47{opacity:0.71;fill:none;stroke:#FFFFFF;stroke-width:0.53;stroke-miterlimit:10;enable-background:new    ;}
	.st48{opacity:0.73;fill:none;stroke:#FFFFFF;stroke-width:0.54;stroke-miterlimit:10;enable-background:new    ;}
	.st49{opacity:0.75;fill:none;stroke:#FFFFFF;stroke-width:0.55;stroke-miterlimit:10;enable-background:new    ;}
	.st50{opacity:0.77;fill:none;stroke:#FFFFFF;stroke-width:0.55;stroke-miterlimit:10;enable-background:new    ;}
	.st51{opacity:0.79;fill:none;stroke:#FFFFFF;stroke-width:0.56;stroke-miterlimit:10;enable-background:new    ;}
	.st52{opacity:0.81;fill:none;stroke:#FFFFFF;stroke-width:0.57;stroke-miterlimit:10;enable-background:new    ;}
	.st53{opacity:0.83;fill:none;stroke:#FFFFFF;stroke-width:0.58;stroke-miterlimit:10;enable-background:new    ;}
	.st54{opacity:0.85;fill:none;stroke:#FFFFFF;stroke-width:0.59;stroke-miterlimit:10;enable-background:new    ;}
	.st55{opacity:0.87;fill:none;stroke:#FFFFFF;stroke-width:0.6;stroke-miterlimit:10;enable-background:new    ;}
	.st56{opacity:0.88;fill:none;stroke:#FFFFFF;stroke-width:0.61;stroke-miterlimit:10;enable-background:new    ;}
	.st57{opacity:0.9;fill:none;stroke:#FFFFFF;stroke-width:0.61;stroke-miterlimit:10;enable-background:new    ;}
	.st58{opacity:0.92;fill:none;stroke:#FFFFFF;stroke-width:0.62;stroke-miterlimit:10;enable-background:new    ;}
	.st59{opacity:0.94;fill:none;stroke:#FFFFFF;stroke-width:0.63;stroke-miterlimit:10;enable-background:new    ;}
	.st60{opacity:0.96;fill:none;stroke:#FFFFFF;stroke-width:0.64;stroke-miterlimit:10;enable-background:new    ;}
	.st61{opacity:0.98;fill:none;stroke:#FFFFFF;stroke-width:0.65;stroke-miterlimit:10;enable-background:new    ;}
	.st62{fill:none;stroke:#FFFFFF;stroke-width:0.66;stroke-miterlimit:10;}
	.st63{opacity:0.15;enable-background:new    ;}
	.st64{fill:#EBEAE9;}
	.st65{opacity:0.2;enable-background:new    ;}
	.st66{fill:#63BCC0;}
	.st67{fill:#0D3640;}
	.st68{fill:#FF6300;}
	.st69{fill:#1F839C;}
	.st70{opacity:0.15;}
	.st71{fill:#155A6B;}
	.st72{fill:#FF6A6F;}
	.st73{fill:#2BC7D6;}
	.st74{fill:#FBD55F;}
	.st75{fill:#FF7F9A;}
	.st76{font-family:'Quicksand-Bold';}
	.st77{font-size:1.4684px;}
	.st78{font-family:'Quicksand-Regular';}
</style>
<title>paid campaign</title>
<g>
	<g id="Character">
		<path class="st0" d="M108.2,129H53.9c-1.6,0-2.9-1.3-2.9-2.9l0,0l0,0c0-1.6,1.3-2.9,2.9-2.9l0,0h54.4c1.6,0,2.9,1.3,2.9,2.9l0,0
			l0,0C111,127.7,109.7,129,108.2,129L108.2,129z"/>
		<path class="st0" d="M35.5,137.3h91.3c2.2,0,4,1.8,4,4V156c0,2.2-1.8,4-4,4H35.5c-2.2,0-4-1.8-4-4v-14.6
			C31.4,139.2,33.2,137.3,35.5,137.3z"/>
		<path class="st1" d="M136.2,137.6H126c-0.3,0-0.6-0.2-0.6-0.6s0.2-0.6,0.6-0.6h10.2c1.3,0,2.4-1,2.4-2.4v-11.4
			c0-1.3-1-2.4-2.4-2.4h-16.6c-1.9,0-3.4-1.6-3.4-3.4l0,0v-16.6c0-0.3,0.2-0.6,0.6-0.6c0.3,0,0.6,0.2,0.6,0.6v16.7
			c0,1.3,1,2.4,2.4,2.4h16.6c1.9,0,3.4,1.6,3.4,3.4v11.1c0.1,1.9-1.3,3.5-3.2,3.7C136.4,137.6,136.3,137.6,136.2,137.6z"/>
		<path class="st2" d="M92.4,124H69.7c-3.7,0-6.4-2.5-5.8-5.4L67.3,98c0.3-1.7,2.7-3.1,5.5-3.1h16.5c2.7,0,5.1,1.4,5.5,3.1l3.4,20.6
			C98.7,121.4,96.1,124,92.4,124z"/>
		<path class="st3" d="M97.8,115.9c-11.1,1.9-22.4,1.9-33.5,0l-0.5,2.6c-0.5,2.9,2.2,5.4,5.8,5.4h22.7c3.7,0,6.4-2.5,5.8-5.4
			L97.8,115.9z"/>
		<path class="st3" d="M89.2,94.9H72.8c-2.7,0-5.1,1.4-5.5,3.1l-1.8,11.1c10.2-3,21.1-3,31.2,0L94.8,98
			C94.5,96.3,92.1,94.9,89.2,94.9z"/>
		<path class="st4" d="M116.7,106.9L116.7,106.9c-1.1,0-2.2-0.9-2.2-2.2V102c0-1.1,0.9-2.2,2.2-2.2l0,0c1.1,0,2.2,0.9,2.2,2.2l0,0
			v2.7C118.9,105.9,118,106.9,116.7,106.9L116.7,106.9z"/>
		<path class="st5" d="M32.5,37.3h97.2c3,0,5.5,2.4,5.5,5.5v56.3c0,3-2.4,5.5-5.5,5.5H32.5c-3,0-5.5-2.4-5.5-5.5V42.8
			C27,39.8,29.5,37.3,32.5,37.3z"/>
		<path class="st6" d="M27,94.3V42.8c0-3,2.5-5.4,5.5-5.5h97.2c3,0,5.4,2.5,5.5,5.5v51.5H27z"/>
		<circle class="st7" cx="81.1" cy="39.3" r="1"/>
		<circle class="st4" cx="81.1" cy="39.3" r="0.3"/>
		<path class="st8" d="M33.4,41.4h95.3c2.5,0,4.7,2.1,4.7,4.7v40.7c0,2.5-2.1,4.7-4.7,4.7H33.4c-2.5,0-4.7-2.1-4.7-4.7V46
			C28.7,43.5,30.9,41.4,33.4,41.4z"/>
		<path class="st5" d="M34.9,42.9h92.4c2.4,0,4.5,1.9,4.5,4.5v38.1c0,2.4-1.9,4.5-4.5,4.5H34.9c-2.4,0-4.5-1.9-4.5-4.5V47.4
			C30.4,44.9,32.5,42.9,34.9,42.9z"/>
		<g>
			<g>
				<g>
					<defs>
						<path id="SVGID_1_" d="M34.9,42.9h92.4c2.4,0,4.5,1.9,4.5,4.5v38.1c0,2.4-1.9,4.5-4.5,4.5H34.9c-2.4,0-4.5-1.9-4.5-4.5V47.4
							C30.4,44.9,32.5,42.9,34.9,42.9z"/>
					</defs>
					<clipPath id="SVGID_2_">
						<use xlink:href="#SVGID_1_"  style="overflow:visible;"/>
					</clipPath>
					<g class="st9">
						<path class="st10" d="M-10.7,55.9c0,0-17.1-48.6,55.2-43.9"/>
						<path class="st11" d="M-9.3,57.1c0,0-15.2-47.4,55.7-44.4"/>
						<path class="st12" d="M-7.7,58.4c0,0-13.5-46.2,56.1-44.9"/>
						<path class="st13" d="M-6.2,59.6c0,0-11.7-45.1,56.4-45.4"/>
						<path class="st14" d="M-4.7,61c0,0-10-43.8,56.9-45.9"/>
						<path class="st15" d="M-3.3,62.3c0,0-8.1-42.7,57.3-46.5"/>
						<path class="st16" d="M-1.9,63.5c0,0-6.4-41.4,57.8-46.9"/>
						<path class="st17" d="M-0.4,64.9c0,0-4.6-40.3,58.2-47.4"/>
						<path class="st18" d="M1.1,66.2c0,0-2.7-39,58.6-47.9"/>
						<path class="st19" d="M2.6,67.4c0,0-1-37.8,59.1-48.3"/>
						<path class="st20" d="M4,68.8c0,0,0.8-36.6,59.5-48.9"/>
						<path class="st21" d="M5.5,70.1c0,0,2.6-35.5,60-49.4"/>
						<path class="st22" d="M7,71.3c0,0,4.3-34.2,60.4-49.9"/>
						<path class="st23" d="M8.4,72.6c0,0,6.2-33,60.8-50.4"/>
						<path class="st24" d="M9.9,73.9c0,0,8-31.9,61.2-50.9"/>
						<path class="st25" d="M11.4,75.2c0,0,9.7-30.7,61.7-51.4"/>
						<path class="st26" d="M12.8,76.6c0,0,11.6-29.5,62.1-51.8"/>
						<path class="st27" d="M14.3,77.8c0,0,13.4-28.3,62.5-52.4"/>
						<path class="st28" d="M15.8,79.1c0,0,15.1-27,62.9-52.9"/>
						<path class="st29" d="M17.3,80.5c0,0,16.9-25.9,63.4-53.4"/>
						<path class="st30" d="M18.6,81.7c0,0,18.8-24.7,63.9-53.9"/>
						<path class="st31" d="M20.1,83c0,0,20.5-23.5,64.2-54.4"/>
						<path class="st32" d="M21.6,84.4c0,0,22.3-22.3,64.7-54.9"/>
						<path class="st33" d="M23.1,85.6c0,0,24.1-21.1,65-55.4"/>
						<path class="st34" d="M24.6,86.9c0,0,25.9-19.9,65.6-56"/>
						<path class="st35" d="M26.1,88.1c0,0,27.7-18.7,66-56.4"/>
						<path class="st36" d="M27.6,89.5c0,0,29.4-17.5,66.4-56.9"/>
						<path class="st37" d="M28.9,90.8c0,0,31.2-16.3,66.9-57.4"/>
						<path class="st38" d="M30.4,92c0,0,33.1-15.1,67.3-57.9"/>
						<path class="st39" d="M31.9,93.4c0,0,34.8-13.8,67.7-58.4"/>
						<path class="st40" d="M33.4,94.7c0,0,36.6-12.8,68.1-58.9"/>
						<path class="st41" d="M34.9,96c0,0,38.5-11.6,68.5-59.5"/>
						<path class="st42" d="M36.3,97.3c0,0,40.2-10.3,69-59.9"/>
						<path class="st43" d="M37.7,98.5c0,0,42-9.2,69.5-60.4"/>
						<path class="st44" d="M39.2,99.8c0,0,43.7-7.9,69.9-60.9"/>
						<path class="st45" d="M40.7,101.2c0,0,45.5-6.8,70.3-61.3"/>
						<path class="st46" d="M42.2,102.4c0,0,47.4-5.6,70.7-61.9"/>
						<path class="st47" d="M43.7,103.7c0,0,49.1-4.3,71.2-62.4"/>
						<path class="st48" d="M45.1,105.1c0,0,50.9-3.1,71.6-62.8"/>
						<path class="st49" d="M46.6,106.3c0,0,52.8-1.8,72-63.4"/>
						<path class="st50" d="M48,107.6c0,0,54.5-0.7,72.4-63.9"/>
						<path class="st51" d="M49.5,109c0,0,56.3,0.5,72.9-64.4"/>
						<path class="st52" d="M51,110.2c0,0,58.1,1.6,73.4-64.9"/>
						<path class="st53" d="M52.5,111.5c0,0,59.9,2.9,73.7-65.3"/>
						<path class="st54" d="M54,112.9c0,0,61.7,4,74.2-65.9"/>
						<path class="st55" d="M55.4,114.1c0,0,63.5,5.3,74.6-66.4"/>
						<path class="st56" d="M56.9,115.4c0,0,65.2,6.4,75.1-66.9"/>
						<path class="st57" d="M58.3,116.7c0,0,67.1,7.7,75.5-67.4"/>
						<path class="st58" d="M59.8,118c0,0,68.8,8.8,75.9-67.9"/>
						<path class="st59" d="M61.2,119.3c0,0,70.6,10.1,76.3-68.4"/>
						<path class="st60" d="M62.7,120.6c0,0,72.4,11.1,76.8-68.9"/>
						<path class="st61" d="M64.2,121.9c0,0,74.3,12.5,77.1-69.3"/>
						<path class="st62" d="M65.7,123.2c0,0,76,13.6,77.6-69.9"/>
					</g>
				</g>
			</g>
		</g>
		<path class="st63" d="M109,54.6l-2.4,36.8H55.5l-2.4-39.9c0-1.9,1.6-3.5,3.5-3.5c0,0,0,0,0.1,0h45.7L109,54.6z"/>
		<path class="st5" d="M60.2,119.1h41.9c2.1,0,3.7,1.6,3.7,3.7l0,0c0,2.1-1.6,3.7-3.7,3.7H60.2c-2.1,0-3.7-1.6-3.7-3.7l0,0
			C56.4,120.7,58.1,119.1,60.2,119.1z"/>
		<path class="st2" d="M101.9,124.6H60.2c-1.7,0-3.1-1.1-3.5-2.7c-0.1,0.3-0.1,0.6-0.1,0.9c0,2.1,1.7,3.7,3.7,3.7h41.9
			c2.1,0,3.7-1.7,3.7-3.7c0-0.3,0-0.6-0.1-0.9C105.1,123.5,103.7,124.6,101.9,124.6z"/>
		<path class="st64" d="M100.5,122.3H61.7c-0.5,0-0.9-0.5-0.9-0.9l0,0c0-0.5,0.5-0.9,0.9-0.9h38.8c0.5,0,0.9,0.5,0.9,0.9l0,0
			C101.4,121.9,100.9,122.3,100.5,122.3z"/>
		<circle class="st4" cx="81" cy="99.7" r="2.7"/>
		<circle class="st64" cx="81" cy="99.7" r="1.5"/>
		<path class="st4" d="M127.3,97.9h1.7c0.3,0,0.7,0.3,0.7,0.7v1.7c0,0.3-0.3,0.7-0.7,0.7h-1.7c-0.3,0-0.7-0.3-0.7-0.7v-1.7
			C126.7,98.2,127,97.9,127.3,97.9z"/>
		<path class="st4" d="M122.7,97.9h1.7c0.3,0,0.7,0.3,0.7,0.7v1.7c0,0.3-0.3,0.7-0.7,0.7h-1.7c-0.3,0-0.7-0.3-0.7-0.7v-1.7
			C122.1,98.2,122.3,97.9,122.7,97.9z"/>
		<path class="st4" d="M118.1,97.9h1.7c0.3,0,0.7,0.3,0.7,0.7v1.7c0,0.3-0.3,0.7-0.7,0.7h-1.7c-0.3,0-0.7-0.3-0.7-0.7v-1.7
			C117.4,98.2,117.7,97.9,118.1,97.9z"/>
		<path class="st65" d="M45,81.2H27v18c0,3,2.5,5.4,5.5,5.5h16.4V84.9C48.8,82.9,47.1,81.2,45,81.2z"/>
		<path class="st4" d="M123.2,137L123.2,137c0-1.1,0.9-2.2,2.2-2.2l0,0h2.7c1.1,0,2.2,1,2.2,2.2l0,0c0,1.1-0.9,2.2-2.2,2.2l0,0h-2.6
			C124.1,139.2,123.2,138.1,123.2,137z"/>
		<path class="st66" d="M35.9,133.3h90.4c1.1,0,1.9,0.9,1.9,1.9V155c0,1.1-0.9,1.9-1.9,1.9H35.9c-1.1,0-1.9-0.9-1.9-1.9v-19.7
			C33.9,134.3,34.8,133.3,35.9,133.3z"/>
		<path class="st6" d="M126.2,153.4H35.8c-1.1,0-1.9-0.9-1.9-1.9v3.7c0,1.1,0.9,1.9,1.9,1.9h90.4c1.1,0,2.1-0.8,2.1-1.9V155v-3.7
			C128.3,152.3,127.5,153.2,126.2,153.4C126.3,153.4,126.3,153.4,126.2,153.4z"/>
		<path class="st67" d="M40.1,135.4h3.3c0.2,0,0.5,0.2,0.5,0.5v1.5c0,0.2-0.2,0.5-0.5,0.5h-3.3c-0.2,0-0.5-0.2-0.5-0.5v-1.5
			C39.7,135.6,39.9,135.4,40.1,135.4z"/>
		<path class="st6" d="M40.1,134.5h3.3c0.2,0,0.5,0.2,0.5,0.5v1.5c0,0.2-0.2,0.5-0.5,0.5h-3.3c-0.2,0-0.5-0.2-0.5-0.5V135
			C39.7,134.7,39.9,134.5,40.1,134.5z"/>
		<path class="st67" d="M47.2,135.4h3.3c0.2,0,0.5,0.2,0.5,0.5v1.5c0,0.2-0.2,0.5-0.5,0.5h-3.3c-0.2,0-0.5-0.2-0.5-0.5v-1.5
			C46.8,135.6,47,135.4,47.2,135.4z"/>
		<path class="st6" d="M47.2,134.5h3.3c0.2,0,0.5,0.2,0.5,0.5v1.5c0,0.2-0.2,0.5-0.5,0.5h-3.3c-0.2,0-0.5-0.2-0.5-0.5V135
			C46.8,134.7,47,134.5,47.2,134.5z"/>
		<path class="st67" d="M54.5,135.4h3.3c0.2,0,0.5,0.2,0.5,0.5v1.5c0,0.2-0.2,0.5-0.5,0.5h-3.3c-0.2,0-0.5-0.2-0.5-0.5v-1.5
			C53.9,135.6,54.1,135.4,54.5,135.4z"/>
		<path class="st6" d="M54.5,134.5h3.3c0.2,0,0.5,0.2,0.5,0.5v1.5c0,0.2-0.2,0.5-0.5,0.5h-3.3c-0.2,0-0.5-0.2-0.5-0.5V135
			C53.9,134.7,54.1,134.5,54.5,134.5z"/>
		<path class="st67" d="M61.5,135.4h3.3c0.2,0,0.5,0.2,0.5,0.5v1.5c0,0.2-0.2,0.5-0.5,0.5h-3.3c-0.2,0-0.5-0.2-0.5-0.5v-1.5
			C61.1,135.6,61.3,135.4,61.5,135.4z"/>
		<path class="st6" d="M61.5,134.5h3.3c0.2,0,0.5,0.2,0.5,0.5v1.5c0,0.2-0.2,0.5-0.5,0.5h-3.3c-0.2,0-0.5-0.2-0.5-0.5V135
			C61.1,134.7,61.3,134.5,61.5,134.5z"/>
		<path class="st67" d="M68.6,135.4H72c0.2,0,0.5,0.2,0.5,0.5v1.5c0,0.2-0.2,0.5-0.5,0.5h-3.3c-0.2,0-0.5-0.2-0.5-0.5v-1.5
			C68.2,135.6,68.4,135.4,68.6,135.4z"/>
		<path class="st6" d="M68.6,134.5H72c0.2,0,0.5,0.2,0.5,0.5v1.5c0,0.2-0.2,0.5-0.5,0.5h-3.3c-0.2,0-0.5-0.2-0.5-0.5V135
			C68.2,134.7,68.4,134.5,68.6,134.5z"/>
		<path class="st67" d="M75.9,135.4h3.3c0.2,0,0.5,0.2,0.5,0.5v1.5c0,0.2-0.2,0.5-0.5,0.5h-3.3c-0.2,0-0.5-0.2-0.5-0.5v-1.5
			C75.4,135.6,75.5,135.4,75.9,135.4z"/>
		<path class="st6" d="M75.9,134.5h3.3c0.2,0,0.5,0.2,0.5,0.5v1.5c0,0.2-0.2,0.5-0.5,0.5h-3.3c-0.2,0-0.5-0.2-0.5-0.5V135
			C75.4,134.7,75.5,134.5,75.9,134.5z"/>
		<path class="st67" d="M82.9,135.4h3.3c0.2,0,0.5,0.2,0.5,0.5v1.5c0,0.2-0.2,0.5-0.5,0.5h-3.3c-0.2,0-0.5-0.2-0.5-0.5v-1.5
			C82.5,135.6,82.7,135.4,82.9,135.4z"/>
		<path class="st6" d="M82.9,134.5h3.3c0.2,0,0.5,0.2,0.5,0.5v1.5c0,0.2-0.2,0.5-0.5,0.5h-3.3c-0.2,0-0.5-0.2-0.5-0.5V135
			C82.5,134.7,82.7,134.5,82.9,134.5z"/>
		<path class="st67" d="M90,135.4h3.3c0.2,0,0.5,0.2,0.5,0.5v1.5c0,0.2-0.2,0.5-0.5,0.5H90c-0.2,0-0.5-0.2-0.5-0.5v-1.5
			C89.6,135.6,89.8,135.4,90,135.4z"/>
		<path class="st6" d="M90,134.5h3.3c0.2,0,0.5,0.2,0.5,0.5v1.5c0,0.2-0.2,0.5-0.5,0.5H90c-0.2,0-0.5-0.2-0.5-0.5V135
			C89.6,134.7,89.8,134.5,90,134.5z"/>
		<path class="st67" d="M97.3,135.4h3.3c0.2,0,0.5,0.2,0.5,0.5v1.5c0,0.2-0.2,0.5-0.5,0.5h-3.3c-0.2,0-0.5-0.2-0.5-0.5v-1.5
			C96.8,135.6,97,135.4,97.3,135.4z"/>
		<path class="st6" d="M97.3,134.5h3.3c0.2,0,0.5,0.2,0.5,0.5v1.5c0,0.2-0.2,0.5-0.5,0.5h-3.3c-0.2,0-0.5-0.2-0.5-0.5V135
			C96.8,134.7,97,134.5,97.3,134.5z"/>
		<path class="st67" d="M104.3,135.4h3.3c0.2,0,0.5,0.2,0.5,0.5v1.5c0,0.2-0.2,0.5-0.5,0.5h-3.3c-0.2,0-0.5-0.2-0.5-0.5v-1.5
			C103.9,135.6,104.1,135.4,104.3,135.4z"/>
		<path class="st6" d="M104.3,134.5h3.3c0.2,0,0.5,0.2,0.5,0.5v1.5c0,0.2-0.2,0.5-0.5,0.5h-3.3c-0.2,0-0.5-0.2-0.5-0.5V135
			C103.9,134.7,104.1,134.5,104.3,134.5z"/>
		<path class="st67" d="M111.6,135.4h3.3c0.2,0,0.5,0.2,0.5,0.5v1.5c0,0.2-0.2,0.5-0.5,0.5h-3.3c-0.2,0-0.5-0.2-0.5-0.5v-1.5
			C111,135.6,111.2,135.4,111.6,135.4z"/>
		<path class="st6" d="M111.6,134.5h3.3c0.2,0,0.5,0.2,0.5,0.5v1.5c0,0.2-0.2,0.5-0.5,0.5h-3.3c-0.2,0-0.5-0.2-0.5-0.5V135
			C111,134.7,111.2,134.5,111.6,134.5z"/>
		<path class="st67" d="M118.7,135.4h3.3c0.2,0,0.5,0.2,0.5,0.5v1.5c0,0.2-0.2,0.5-0.5,0.5h-3.3c-0.2,0-0.5-0.2-0.5-0.5v-1.5
			C118.2,135.6,118.4,135.4,118.7,135.4z"/>
		<path class="st6" d="M118.7,134.5h3.3c0.2,0,0.5,0.2,0.5,0.5v1.5c0,0.2-0.2,0.5-0.5,0.5h-3.3c-0.2,0-0.5-0.2-0.5-0.5V135
			C118.2,134.7,118.4,134.5,118.7,134.5z"/>
		<path class="st67" d="M40.1,144.3h3.3c0.2,0,0.5,0.2,0.5,0.5v1.5c0,0.2-0.2,0.5-0.5,0.5h-3.3c-0.2,0-0.5-0.2-0.5-0.5v-1.5
			C39.7,144.6,39.9,144.3,40.1,144.3z"/>
		<path class="st6" d="M40.1,143.5h3.3c0.2,0,0.5,0.2,0.5,0.5v1.5c0,0.2-0.2,0.5-0.5,0.5h-3.3c-0.2,0-0.5-0.2-0.5-0.5V144
			C39.7,143.7,39.9,143.5,40.1,143.5z"/>
		<path class="st67" d="M47.2,144.3h3.3c0.2,0,0.5,0.2,0.5,0.5v1.5c0,0.2-0.2,0.5-0.5,0.5h-3.3c-0.2,0-0.5-0.2-0.5-0.5v-1.5
			C46.8,144.6,47,144.3,47.2,144.3z"/>
		<path class="st6" d="M47.2,143.5h3.3c0.2,0,0.5,0.2,0.5,0.5v1.5c0,0.2-0.2,0.5-0.5,0.5h-3.3c-0.2,0-0.5-0.2-0.5-0.5V144
			C46.8,143.7,47,143.5,47.2,143.5z"/>
		<path class="st67" d="M54.5,144.3h3.3c0.2,0,0.5,0.2,0.5,0.5v1.5c0,0.2-0.2,0.5-0.5,0.5h-3.3c-0.2,0-0.5-0.2-0.5-0.5v-1.5
			C53.9,144.6,54.1,144.3,54.5,144.3z"/>
		<path class="st6" d="M54.5,143.5h3.3c0.2,0,0.5,0.2,0.5,0.5v1.5c0,0.2-0.2,0.5-0.5,0.5h-3.3c-0.2,0-0.5-0.2-0.5-0.5V144
			C53.9,143.7,54.1,143.5,54.5,143.5z"/>
		<path class="st67" d="M61.5,144.3h3.3c0.2,0,0.5,0.2,0.5,0.5v1.5c0,0.2-0.2,0.5-0.5,0.5h-3.3c-0.2,0-0.5-0.2-0.5-0.5v-1.5
			C61.1,144.6,61.3,144.3,61.5,144.3z"/>
		<path class="st6" d="M61.5,143.5h3.3c0.2,0,0.5,0.2,0.5,0.5v1.5c0,0.2-0.2,0.5-0.5,0.5h-3.3c-0.2,0-0.5-0.2-0.5-0.5V144
			C61.1,143.7,61.3,143.5,61.5,143.5z"/>
		<path class="st67" d="M68.6,144.3H72c0.2,0,0.5,0.2,0.5,0.5v1.5c0,0.2-0.2,0.5-0.5,0.5h-3.3c-0.2,0-0.5-0.2-0.5-0.5v-1.5
			C68.2,144.6,68.4,144.3,68.6,144.3z"/>
		<path class="st6" d="M68.6,143.5H72c0.2,0,0.5,0.2,0.5,0.5v1.5c0,0.2-0.2,0.5-0.5,0.5h-3.3c-0.2,0-0.5-0.2-0.5-0.5V144
			C68.2,143.7,68.4,143.5,68.6,143.5z"/>
		<path class="st67" d="M75.9,144.3h3.3c0.2,0,0.5,0.2,0.5,0.5v1.5c0,0.2-0.2,0.5-0.5,0.5h-3.3c-0.2,0-0.5-0.2-0.5-0.5v-1.5
			C75.4,144.6,75.5,144.3,75.9,144.3z"/>
		<path class="st6" d="M75.9,143.5h3.3c0.2,0,0.5,0.2,0.5,0.5v1.5c0,0.2-0.2,0.5-0.5,0.5h-3.3c-0.2,0-0.5-0.2-0.5-0.5V144
			C75.4,143.7,75.5,143.5,75.9,143.5z"/>
		<path class="st67" d="M82.9,144.3h3.3c0.2,0,0.5,0.2,0.5,0.5v1.5c0,0.2-0.2,0.5-0.5,0.5h-3.3c-0.2,0-0.5-0.2-0.5-0.5v-1.5
			C82.5,144.6,82.7,144.3,82.9,144.3z"/>
		<path class="st6" d="M82.9,143.5h3.3c0.2,0,0.5,0.2,0.5,0.5v1.5c0,0.2-0.2,0.5-0.5,0.5h-3.3c-0.2,0-0.5-0.2-0.5-0.5V144
			C82.5,143.7,82.7,143.5,82.9,143.5z"/>
		<path class="st67" d="M90,144.3h3.3c0.2,0,0.5,0.2,0.5,0.5v1.5c0,0.2-0.2,0.5-0.5,0.5H90c-0.2,0-0.5-0.2-0.5-0.5v-1.5
			C89.6,144.6,89.8,144.3,90,144.3z"/>
		<path class="st6" d="M90,143.5h3.3c0.2,0,0.5,0.2,0.5,0.5v1.5c0,0.2-0.2,0.5-0.5,0.5H90c-0.2,0-0.5-0.2-0.5-0.5V144
			C89.6,143.7,89.8,143.5,90,143.5z"/>
		<path class="st67" d="M97.3,144.3h3.3c0.2,0,0.5,0.2,0.5,0.5v1.5c0,0.2-0.2,0.5-0.5,0.5h-3.3c-0.2,0-0.5-0.2-0.5-0.5v-1.5
			C96.8,144.6,97,144.3,97.3,144.3z"/>
		<path class="st6" d="M97.3,143.5h3.3c0.2,0,0.5,0.2,0.5,0.5v1.5c0,0.2-0.2,0.5-0.5,0.5h-3.3c-0.2,0-0.5-0.2-0.5-0.5V144
			C96.8,143.7,97,143.5,97.3,143.5z"/>
		<path class="st67" d="M104.3,144.3h3.3c0.2,0,0.5,0.2,0.5,0.5v1.5c0,0.2-0.2,0.5-0.5,0.5h-3.3c-0.2,0-0.5-0.2-0.5-0.5v-1.5
			C103.9,144.6,104.1,144.3,104.3,144.3z"/>
		<path class="st6" d="M104.3,143.5h3.3c0.2,0,0.5,0.2,0.5,0.5v1.5c0,0.2-0.2,0.5-0.5,0.5h-3.3c-0.2,0-0.5-0.2-0.5-0.5V144
			C103.9,143.7,104.1,143.5,104.3,143.5z"/>
		<path class="st67" d="M111.6,144.3h3.3c0.2,0,0.5,0.2,0.5,0.5v1.5c0,0.2-0.2,0.5-0.5,0.5h-3.3c-0.2,0-0.5-0.2-0.5-0.5v-1.5
			C111,144.6,111.2,144.3,111.6,144.3z"/>
		<path class="st6" d="M111.6,143.5h3.3c0.2,0,0.5,0.2,0.5,0.5v1.5c0,0.2-0.2,0.5-0.5,0.5h-3.3c-0.2,0-0.5-0.2-0.5-0.5V144
			C111,143.7,111.2,143.5,111.6,143.5z"/>
		<path class="st67" d="M118.7,144.3h3.3c0.2,0,0.5,0.2,0.5,0.5v1.5c0,0.2-0.2,0.5-0.5,0.5h-3.3c-0.2,0-0.5-0.2-0.5-0.5v-1.5
			C118.2,144.6,118.4,144.3,118.7,144.3z"/>
		<path class="st6" d="M118.7,143.5h3.3c0.2,0,0.5,0.2,0.5,0.5v1.5c0,0.2-0.2,0.5-0.5,0.5h-3.3c-0.2,0-0.5-0.2-0.5-0.5V144
			C118.2,143.7,118.4,143.5,118.7,143.5z"/>
		<path class="st67" d="M43.7,139.9H47c0.2,0,0.5,0.2,0.5,0.5v1.5c0,0.2-0.2,0.5-0.5,0.5h-3.3c-0.2,0-0.5-0.2-0.5-0.5v-1.5
			C43.2,140.1,43.5,139.9,43.7,139.9z"/>
		<path class="st6" d="M43.7,138.9H47c0.2,0,0.5,0.2,0.5,0.5v1.5c0,0.2-0.2,0.5-0.5,0.5h-3.3c-0.2,0-0.5-0.2-0.5-0.5v-1.4
			C43.2,139.2,43.5,138.9,43.7,138.9z"/>
		<path class="st67" d="M50.8,139.9h3.3c0.2,0,0.5,0.2,0.5,0.5v1.5c0,0.2-0.2,0.5-0.5,0.5h-3.3c-0.2,0-0.5-0.2-0.5-0.5v-1.5
			C50.3,140.1,50.6,139.9,50.8,139.9z"/>
		<path class="st6" d="M50.8,138.9h3.3c0.2,0,0.5,0.2,0.5,0.5v1.5c0,0.2-0.2,0.5-0.5,0.5h-3.3c-0.2,0-0.5-0.2-0.5-0.5v-1.4
			C50.3,139.2,50.6,138.9,50.8,138.9z"/>
		<path class="st67" d="M58,139.9h3.3c0.2,0,0.5,0.2,0.5,0.5v1.5c0,0.2-0.2,0.5-0.5,0.5H58c-0.2,0-0.5-0.2-0.5-0.5v-1.5
			C57.5,140.1,57.8,139.9,58,139.9z"/>
		<path class="st6" d="M58,138.9h3.3c0.2,0,0.5,0.2,0.5,0.5v1.5c0,0.2-0.2,0.5-0.5,0.5H58c-0.2,0-0.5-0.2-0.5-0.5v-1.4
			C57.5,139.2,57.8,138.9,58,138.9z"/>
		<path class="st67" d="M65.1,139.9h3.3c0.2,0,0.5,0.2,0.5,0.5v1.5c0,0.2-0.2,0.5-0.5,0.5h-3.3c-0.2,0-0.5-0.2-0.5-0.5v-1.5
			C64.6,140.1,64.9,139.9,65.1,139.9z"/>
		<path class="st6" d="M65.1,138.9h3.3c0.2,0,0.5,0.2,0.5,0.5v1.5c0,0.2-0.2,0.5-0.5,0.5h-3.3c-0.2,0-0.5-0.2-0.5-0.5v-1.4
			C64.6,139.2,64.9,138.9,65.1,138.9z"/>
		<path class="st67" d="M72.3,139.9h3.3c0.2,0,0.5,0.2,0.5,0.5v1.5c0,0.2-0.2,0.5-0.5,0.5h-3.3c-0.2,0-0.5-0.2-0.5-0.5v-1.5
			C71.7,140.1,72,139.9,72.3,139.9z"/>
		<path class="st6" d="M72.3,138.9h3.3c0.2,0,0.5,0.2,0.5,0.5v1.5c0,0.2-0.2,0.5-0.5,0.5h-3.3c-0.2,0-0.5-0.2-0.5-0.5v-1.4
			C71.7,139.2,72,138.9,72.3,138.9z"/>
		<path class="st67" d="M79.4,139.9h3.3c0.2,0,0.5,0.2,0.5,0.5v1.5c0,0.2-0.2,0.5-0.5,0.5h-3.3c-0.2,0-0.5-0.2-0.5-0.5v-1.5
			C78.9,140.1,79.2,139.9,79.4,139.9z"/>
		<path class="st6" d="M79.4,138.9h3.3c0.2,0,0.5,0.2,0.5,0.5v1.5c0,0.2-0.2,0.5-0.5,0.5h-3.3c-0.2,0-0.5-0.2-0.5-0.5v-1.4
			C78.9,139.2,79.2,138.9,79.4,138.9z"/>
		<path class="st67" d="M86.5,139.9h3.3c0.2,0,0.5,0.2,0.5,0.5v1.5c0,0.2-0.2,0.5-0.5,0.5h-3.3c-0.2,0-0.5-0.2-0.5-0.5v-1.5
			C86,140.1,86.3,139.9,86.5,139.9z"/>
		<path class="st6" d="M86.5,138.9h3.3c0.2,0,0.5,0.2,0.5,0.5v1.5c0,0.2-0.2,0.5-0.5,0.5h-3.3c-0.2,0-0.5-0.2-0.5-0.5v-1.4
			C86,139.2,86.3,138.9,86.5,138.9z"/>
		<path class="st67" d="M93.7,139.9H97c0.2,0,0.5,0.2,0.5,0.5v1.5c0,0.2-0.2,0.5-0.5,0.5h-3.3c-0.2,0-0.5-0.2-0.5-0.5v-1.5
			C93.1,140.1,93.4,139.9,93.7,139.9z"/>
		<path class="st6" d="M93.7,138.9H97c0.2,0,0.5,0.2,0.5,0.5v1.5c0,0.2-0.2,0.5-0.5,0.5h-3.3c-0.2,0-0.5-0.2-0.5-0.5v-1.4
			C93.1,139.2,93.4,138.9,93.7,138.9z"/>
		<path class="st67" d="M100.8,139.9h3.3c0.2,0,0.5,0.2,0.5,0.5v1.5c0,0.2-0.2,0.5-0.5,0.5h-3.3c-0.2,0-0.5-0.2-0.5-0.5v-1.5
			C100.3,140.1,100.6,139.9,100.8,139.9z"/>
		<path class="st6" d="M100.8,138.9h3.3c0.2,0,0.5,0.2,0.5,0.5v1.5c0,0.2-0.2,0.5-0.5,0.5h-3.3c-0.2,0-0.5-0.2-0.5-0.5v-1.4
			C100.3,139.2,100.6,138.9,100.8,138.9z"/>
		<path class="st67" d="M107.9,139.9h3.3c0.2,0,0.5,0.2,0.5,0.5v1.5c0,0.2-0.2,0.5-0.5,0.5h-3.3c-0.2,0-0.5-0.2-0.5-0.5v-1.5
			C107.4,140.1,107.7,139.9,107.9,139.9z"/>
		<path class="st6" d="M107.9,138.9h3.3c0.2,0,0.5,0.2,0.5,0.5v1.5c0,0.2-0.2,0.5-0.5,0.5h-3.3c-0.2,0-0.5-0.2-0.5-0.5v-1.4
			C107.4,139.2,107.7,138.9,107.9,138.9z"/>
		<path class="st67" d="M115.1,139.9h3.3c0.2,0,0.5,0.2,0.5,0.5v1.5c0,0.2-0.2,0.5-0.5,0.5h-3.3c-0.2,0-0.5-0.2-0.5-0.5v-1.5
			C114.6,140.1,114.8,139.9,115.1,139.9z"/>
		<path class="st6" d="M115.1,138.9h3.3c0.2,0,0.5,0.2,0.5,0.5v1.5c0,0.2-0.2,0.5-0.5,0.5h-3.3c-0.2,0-0.5-0.2-0.5-0.5v-1.4
			C114.6,139.2,114.8,138.9,115.1,138.9z"/>
		<path class="st67" d="M42.3,148.9h3.3c0.2,0,0.5,0.2,0.5,0.5v1.5c0,0.2-0.2,0.5-0.5,0.5h-3.3c-0.2,0-0.5-0.2-0.5-0.5v-1.5
			C41.9,149.1,42,148.9,42.3,148.9z"/>
		<path class="st6" d="M42.3,148.1h3.3c0.2,0,0.5,0.2,0.5,0.5v1.5c0,0.2-0.2,0.5-0.5,0.5h-3.3c-0.2,0-0.5-0.2-0.5-0.5v-1.5
			C41.9,148.2,42,148.1,42.3,148.1z"/>
		<path class="st67" d="M49.4,148.9h3.3c0.2,0,0.5,0.2,0.5,0.5v1.5c0,0.2-0.2,0.5-0.5,0.5h-3.3c-0.2,0-0.5-0.2-0.5-0.5v-1.5
			C49,149.1,49.2,148.9,49.4,148.9z"/>
		<path class="st6" d="M49.4,148.1h3.3c0.2,0,0.5,0.2,0.5,0.5v1.5c0,0.2-0.2,0.5-0.5,0.5h-3.3c-0.2,0-0.5-0.2-0.5-0.5v-1.5
			C49,148.2,49.2,148.1,49.4,148.1z"/>
		<path class="st67" d="M56.5,148.9h3.3c0.2,0,0.5,0.2,0.5,0.5v1.5c0,0.2-0.2,0.5-0.5,0.5h-3.3c-0.2,0-0.5-0.2-0.5-0.5v-1.5
			C56.1,149.1,56.3,148.9,56.5,148.9z"/>
		<path class="st6" d="M56.5,148.1h3.3c0.2,0,0.5,0.2,0.5,0.5v1.5c0,0.2-0.2,0.5-0.5,0.5h-3.3c-0.2,0-0.5-0.2-0.5-0.5v-1.5
			C56.1,148.2,56.3,148.1,56.5,148.1z"/>
		<path class="st67" d="M63.7,148.9H67c0.2,0,0.5,0.2,0.5,0.5v1.5c0,0.2-0.2,0.5-0.5,0.5h-3.3c-0.2,0-0.5-0.2-0.5-0.5v-1.5
			C63.3,149.1,63.5,148.9,63.7,148.9z"/>
		<path class="st6" d="M63.7,148.1H67c0.2,0,0.5,0.2,0.5,0.5v1.5c0,0.2-0.2,0.5-0.5,0.5h-3.3c-0.2,0-0.5-0.2-0.5-0.5v-1.5
			C63.3,148.2,63.5,148.1,63.7,148.1z"/>
		<path class="st67" d="M94.6,148.9h3.3c0.2,0,0.5,0.2,0.5,0.5v1.5c0,0.2-0.2,0.5-0.5,0.5h-3.3c-0.2,0-0.5-0.2-0.5-0.5v-1.5
			C94.2,149.1,94.4,148.9,94.6,148.9z"/>
		<path class="st6" d="M94.6,148.1h3.3c0.2,0,0.5,0.2,0.5,0.5v1.5c0,0.2-0.2,0.5-0.5,0.5h-3.3c-0.2,0-0.5-0.2-0.5-0.5v-1.5
			C94.2,148.2,94.4,148.1,94.6,148.1z"/>
		<path class="st67" d="M101.9,148.9h3.3c0.2,0,0.5,0.2,0.5,0.5v1.5c0,0.2-0.2,0.5-0.5,0.5h-3.3c-0.2,0-0.5-0.2-0.5-0.5v-1.5
			C101.4,149.1,101.6,148.9,101.9,148.9z"/>
		<path class="st6" d="M101.9,148.1h3.3c0.2,0,0.5,0.2,0.5,0.5v1.5c0,0.2-0.2,0.5-0.5,0.5h-3.3c-0.2,0-0.5-0.2-0.5-0.5v-1.5
			C101.4,148.2,101.6,148.1,101.9,148.1z"/>
		<path class="st67" d="M109.2,148.9h3.3c0.2,0,0.5,0.2,0.5,0.5v1.5c0,0.2-0.2,0.5-0.5,0.5h-3.3c-0.2,0-0.5-0.2-0.5-0.5v-1.5
			C108.7,149.1,108.9,148.9,109.2,148.9z"/>
		<path class="st6" d="M109.2,148.1h3.3c0.2,0,0.5,0.2,0.5,0.5v1.5c0,0.2-0.2,0.5-0.5,0.5h-3.3c-0.2,0-0.5-0.2-0.5-0.5v-1.5
			C108.7,148.2,108.9,148.1,109.2,148.1z"/>
		<path class="st67" d="M116.5,148.9h3.3c0.2,0,0.5,0.2,0.5,0.5v1.5c0,0.2-0.2,0.5-0.5,0.5h-3.3c-0.2,0-0.5-0.2-0.5-0.5v-1.5
			C116,149.1,116.1,148.9,116.5,148.9z"/>
		<path class="st6" d="M116.5,148.1h3.3c0.2,0,0.5,0.2,0.5,0.5v1.5c0,0.2-0.2,0.5-0.5,0.5h-3.3c-0.2,0-0.5-0.2-0.5-0.5v-1.5
			C116,148.2,116.1,148.1,116.5,148.1z"/>
		<path class="st67" d="M70.1,148.8h21.7c0.2,0,0.5,0.2,0.5,0.5v1.5c0,0.2-0.2,0.5-0.5,0.5H70.1c-0.2,0-0.5-0.2-0.5-0.5v-1.5
			C69.7,149,69.9,148.8,70.1,148.8z"/>
		<path class="st6" d="M70.1,148h21.7c0.2,0,0.5,0.2,0.5,0.5v1.5c0,0.2-0.2,0.5-0.5,0.5H70.1c-0.2,0-0.5-0.2-0.5-0.5v-1.5
			C69.7,148.2,69.9,148,70.1,148z"/>
		<path class="st4" d="M107.4,55.4v36H54.7v-39c0-1.9,1.5-3.4,3.4-3.4l0,0H101L107.4,55.4z"/>
		<path class="st5" d="M101,49l6.4,6.4h-5c-1,0-1.8-0.8-1.8-1.8c0-0.1,0-0.2,0-0.3L101,49z"/>
		<path class="st68" d="M61.8,56.1h6.4c1.8,0,3.2,1.5,3.2,3.2v6.4c0,1.8-1.5,3.2-3.2,3.2h-6.4c-1.8,0-3.2-1.5-3.2-3.2v-6.4
			C58.6,57.6,59.9,56.1,61.8,56.1z"/>
		<path class="st6" d="M93.9,56.1h6.4c1.8,0,3.2,1.5,3.2,3.2v6.4c0,1.8-1.5,3.2-3.2,3.2h-6.4c-1.8,0-3.2-1.5-3.2-3.2v-6.4
			C90.7,57.6,92.2,56.1,93.9,56.1z"/>
		<path class="st66" d="M77.9,56.1h6.4c1.8,0,3.2,1.5,3.2,3.2v6.4c0,1.8-1.5,3.2-3.2,3.2h-6.4c-1.8,0-3.2-1.5-3.2-3.2v-6.4
			C74.6,57.6,76.1,56.1,77.9,56.1z"/>
		<path class="st5" d="M102.5,75.9h-43c-0.6,0-1-0.5-1-1l0,0l0,0c0-0.6,0.5-1,1-1l0,0h43c0.6,0,1,0.5,1,1l0,0l0,0
			C103.7,75.4,103.1,75.9,102.5,75.9L102.5,75.9z"/>
		<path class="st5" d="M102.5,86.4h-43c-0.6,0-1-0.5-1-1l0,0l0,0c0-0.6,0.5-1,1-1l0,0h43c0.6,0,1,0.5,1,1l0,0l0,0
			C103.7,85.8,103.1,86.4,102.5,86.4L102.5,86.4z"/>
		<path class="st5" d="M62.1,79.1H100c0.6,0,0.9,0.5,0.9,0.9v0.1c0,0.6-0.5,0.9-0.9,0.9H62.1c-0.6,0-0.9-0.5-0.9-0.9V80
			C61.2,79.4,61.5,79.1,62.1,79.1z"/>
		<path class="st0" d="M47,131.5H20.5c-1.3,0-2.4-1-2.4-2.4l0,0c0-1.3,1-2.4,2.4-2.4h26.4c1.3,0,2.4,1,2.4,2.4l0,0
			C49.3,130.5,48.3,131.5,47,131.5z"/>
		<path class="st63" d="M135.1,99.1V84c-0.5,0.1-0.9,0.3-1.4,0.6l-0.3,0.2c-1,0.8-1.5,2.1-1.5,3.3v11.4c0,1.3,0.6,2.5,1.5,3.3
			l0.1,0.1C134.6,101.9,135.1,100.5,135.1,99.1z"/>
		<path class="st63" d="M41.2,56.2c0.5,0,0.8-0.1,1.1-0.2c0.6-0.2,1-0.6,1.4-1.1l0.2-0.3l0,0l0.1-0.2l0,0V54l0,0
			c0.1-0.2,0.1-0.6,0.1-0.8l0,0V37.3H32.5c-3,0-5.4,2.5-5.5,5.5v13.4C27,56.2,41.2,56.2,41.2,56.2z"/>
		<path class="st4" d="M13.4,112.1c2.7,3.1,7.4,3.4,10.5,0.7s3.4-7.4,0.7-10.5s-7.4-3.4-10.5-0.7l0,0C11,104.3,10.6,109,13.4,112.1z
			 M15.5,110.2c-1.6-1.8-1.5-4.7,0.5-6.4c1.8-1.6,4.7-1.5,6.4,0.5c1.6,1.8,1.5,4.7-0.5,6.4C20,112.3,17.1,112.1,15.5,110.2
			L15.5,110.2z"/>
		<path class="st4" d="M15.7,103.4L15.7,103.4c0.7-0.6,0.7-1.6,0.1-2.3l-4.7-5.4C10.5,95,9.5,95,8.8,95.6l0,0
			c-0.7,0.6-0.7,1.6-0.1,2.3l4.7,5.4C13.9,103.9,15,104,15.7,103.4z"/>
		
			<ellipse transform="matrix(0.7506 -0.6608 0.6608 0.7506 -64.1452 35.636)" class="st66" cx="15.1" cy="102.8" rx="3.8" ry="3.8"/>
		<circle class="st66" cx="8.7" cy="96.5" r="2.5"/>
		<path class="st4" d="M24.4,82.4h19.1c1.9,0,3.5,1.6,3.5,3.5v39.7c0,1.9-1.6,3.5-3.5,3.5H24.4c-1.9,0-3.5-1.6-3.5-3.5V86
			C20.8,84,22.4,82.4,24.4,82.4z"/>
		<path class="st6" d="M24.7,84.6h18.4c1.7,0,3.1,1.4,3.1,3.1v32.5c0,1.7-1.4,3.1-3.1,3.1H24.7c-1.7,0-3.1-1.4-3.1-3.1V87.8
			C21.5,86,23,84.6,24.7,84.6z"/>
		<path class="st5" d="M35.2,126.2h-2.6c-0.2,0-0.3-0.1-0.3-0.3l0,0c0-0.2,0.1-0.3,0.3-0.3h2.6c0.2,0,0.3,0.1,0.3,0.3l0,0
			C35.6,126.1,35.3,126.2,35.2,126.2z"/>
		<path class="st5" d="M35.2,125h-2.6c-0.2,0-0.3-0.1-0.3-0.3l0,0c0-0.2,0.1-0.3,0.3-0.3h2.6c0.2,0,0.3,0.1,0.3,0.3l0,0
			C35.6,124.8,35.3,125,35.2,125z"/>
		<path class="st5" d="M35.2,127.6h-2.6c-0.2,0-0.3-0.1-0.3-0.3l0,0c0-0.2,0.1-0.3,0.3-0.3h2.6c0.2,0,0.3,0.1,0.3,0.3l0,0
			C35.6,127.5,35.3,127.6,35.2,127.6z"/>
		<circle class="st69" cx="33.9" cy="83.7" r="0.6"/>
		<circle class="st4" cx="33.9" cy="83.7" r="0.1"/>
		<circle class="st64" cx="35.5" cy="83.7" r="0.3"/>
		<polygon class="st5" points="31.3,96 26.4,98.5 23.9,105.4 29.8,101.8 		"/>
		<ellipse transform="matrix(0.9267 -0.3757 0.3757 0.9267 -33.7723 18.8302)" class="st4" cx="31.4" cy="96" rx="6.9" ry="6.9"/>
		<polygon class="st5" points="36.3,110 40.9,112.3 43.2,118.7 37.7,115.3 		"/>
		<ellipse transform="matrix(0.3757 -0.9267 0.9267 0.3757 -79.2784 102.3307)" class="st4" cx="36.3" cy="110" rx="6.3" ry="6.3"/>
		<g class="st70">
			<path d="M59.4,82.5c0.2-0.9,0.5-1.9,0.5-3c0-0.2,0-0.3,0-0.6L58,79.1c0-0.7-0.1-1.3-0.3-1.9l1.7-0.5c-0.3-1.1-0.9-2.3-1.6-3.2
				l-1.5,1c-0.3-0.6-0.8-1-1.4-1.5l1.1-1.4c-0.9-0.8-1.9-1.4-3.1-1.8l-0.5,1.7c-0.6-0.2-1.3-0.5-1.8-0.5l0.2-1.8
				c-0.5-0.1-1-0.1-1.5-0.1l0,0c-0.7,0-1.4,0.1-2.1,0.2l0.3,1.7c-0.7,0.1-1.3,0.3-1.8,0.6L45,70c-1.1,0.5-2.1,1.1-3,2.1l1.3,1.3
				c-0.5,0.5-0.9,0.9-1.3,1.5l-1.5-1c-0.7,1-1.3,2.2-1.5,3.3l1.7,0.5c-0.1,0.7-0.2,1.4-0.2,1.9h-1.9c0,1.3,0.2,2.4,0.6,3.5l1.7-0.6
				c0.2,0.7,0.5,1.3,0.9,1.8l-1.5,0.9c0.7,1,1.5,1.9,2.4,2.6l1.1-1.5c0.6,0.5,1.1,0.8,1.7,1L44.6,89c1.1,0.5,2.3,0.8,3.4,0.9
				l0.1-1.8h0.7c0.5,0,0.8,0,1.3,0l0.2,1.8c1.1-0.1,2.3-0.6,3.4-1.1l-0.8-1.6c0.6-0.3,1.1-0.7,1.6-1.1l1.1,1.4
				c0.9-0.8,1.7-1.7,2.3-2.7l-1.6-0.9c0.3-0.6,0.6-1.3,0.8-1.8L59.4,82.5z M44.5,79.5c0-2.6,2.2-4.8,4.8-4.8s4.8,2.2,4.8,4.8
				c0,2.6-2.2,4.8-4.8,4.8C46.7,84.5,44.5,82.3,44.5,79.5C44.5,79.7,44.5,79.5,44.5,79.5L44.5,79.5z"/>
			<circle cx="49.3" cy="79.5" r="3.4"/>
			<path d="M37.5,75.9c0.6-0.2,1.1-0.6,1.7-0.9l-0.8-1.1c0.5-0.3,0.8-0.7,1.1-1l1,0.9c0.5-0.5,0.8-1,1-1.6l-1.1-0.7
				c0.2-0.5,0.5-0.9,0.6-1.5l1.3,0.3c0.1-0.6,0.2-1.3,0.2-1.8h-1.4c0-0.6-0.1-1-0.2-1.5l1.3-0.3c-0.1-0.7-0.3-1.3-0.7-1.8l-1.1,0.6
				c-0.2-0.5-0.6-0.9-0.9-1.3l1-0.9c-0.5-0.5-0.9-0.9-1.4-1.3l-0.8,1.1c-0.5-0.3-0.9-0.6-1.4-0.7l0.5-1.3c-0.6-0.2-1.3-0.3-1.8-0.5
				L35.5,62h-0.8h-0.8l-0.1-1.4c-0.7,0.1-1.3,0.2-1.8,0.5l0.5,1.3c-0.5,0.2-0.9,0.5-1.4,0.7L30.3,62c-0.6,0.3-1,0.8-1.4,1.3l1,0.9
				c-0.3,0.3-0.7,0.8-0.9,1.3l-1-0.6c-0.3,0.6-0.6,1.3-0.7,1.8l1.3,0.3c-0.1,0.5-0.2,1-0.2,1.6H27c0,0.6,0.1,1.3,0.2,1.8l1.3-0.3
				c0.1,0.5,0.3,1,0.6,1.5L28,72.3c0.3,0.6,0.7,1,1,1.6l1-0.9c0.3,0.3,0.7,0.7,1.1,1l-0.8,1.1c0.6,0.3,1,0.7,1.7,0.9l0.5-1.3
				c0.5,0.2,1,0.3,1.5,0.3l-0.1,1.4c0.6,0.1,1.3,0.1,1.8,0L35.6,75c0.6-0.1,1-0.2,1.5-0.3L37.5,75.9z M34.8,64.9
				c1.9,0,3.5,1.6,3.5,3.5s-1.6,3.5-3.5,3.5s-3.5-1.6-3.5-3.5C31.1,66.5,32.7,64.9,34.8,64.9L34.8,64.9L34.8,64.9z"/>
			<circle cx="34.8" cy="68.6" r="2.5"/>
		</g>
		<path class="st68" d="M46.4,88.6c-1.1-0.1-2.4-0.5-3.4-0.9l1.5-3.3c0.7,0.3,1.5,0.6,2.3,0.6L46.4,88.6z M48.8,88.6l-0.5-3.7
			c0.8-0.1,1.5-0.3,2.2-0.7l1.7,3.2C51.1,88,50,88.4,48.8,88.6L48.8,88.6z M40.9,86.4c-0.9-0.8-1.8-1.7-2.4-2.7l3-1.8
			c0.5,0.7,0.9,1.3,1.6,1.7L40.9,86.4z M54.2,86.1l-2.3-2.7c0.6-0.6,1.1-1.1,1.5-1.8l3.1,1.8C55.9,84.4,55.1,85.3,54.2,86.1
			L54.2,86.1z M37.5,81.6c-0.5-1.1-0.6-2.3-0.6-3.5h3.5l0,0c0,0.8,0.1,1.6,0.3,2.3L37.5,81.6z M57.4,81L54,80
			c0.2-0.6,0.2-1.3,0.2-1.8c0-0.1,0-0.2,0-0.3l3.5-0.2c0,0.2,0,0.3,0,0.6C57.8,79.1,57.7,80.1,57.4,81L57.4,81z M40.7,76.5l-3.5-0.8
			c0.2-1.1,0.8-2.3,1.4-3.3l2.9,2.1C41,75.2,40.8,75.9,40.7,76.5L40.7,76.5z M54,76.2c-0.2-0.8-0.6-1.5-1-2.2l2.9-2.1
			c0.7,1,1.3,2.1,1.6,3.2L54,76.2z M42.5,73.1L40,70.5c0.9-0.8,1.8-1.5,3-2.1l1.5,3.3C43.7,72.1,43.1,72.6,42.5,73.1z M51.8,72.9
			c-0.6-0.6-1.3-0.9-2.1-1.3l1.4-3.3c1.1,0.5,2.2,1,3.1,1.8L51.8,72.9z M45.9,71.3l-0.7-3.5c0.7-0.1,1.4-0.2,2.1-0.2l0,0
			c0.5,0,1,0,1.5,0.1l-0.5,3.5c-0.3,0-0.7,0-1,0l0,0C46.9,71.2,46.4,71.3,45.9,71.3L45.9,71.3z"/>
		<path class="st68" d="M38.7,78.2c0,4.8,3.9,8.7,8.7,8.7s8.7-3.9,8.7-8.7c0-4.8-3.9-8.7-8.7-8.7S38.7,73.4,38.7,78.2L38.7,78.2z
			 M42.5,78.2c0-2.6,2.2-4.8,4.8-4.8s4.8,2.2,4.8,4.8S50,83,47.4,83C44.7,83,42.5,80.8,42.5,78.2L42.5,78.2z"/>
		<circle class="st68" cx="47.4" cy="78.1" r="3.4"/>
		<path class="st68" d="M32.7,74.9c-0.3,0-0.7,0-0.9,0l0.3-2.6c0.5,0,0.8,0,1.3,0l0.3,2.6C33.4,74.9,33.1,74.9,32.7,74.9z
			 M35.5,74.4l-0.9-2.5c0.3-0.1,0.8-0.3,1.1-0.6l1.6,2.2C36.7,73.8,36.1,74.2,35.5,74.4z M30,74.4c-0.6-0.2-1.1-0.6-1.7-0.9l1.5-2.3
			c0.3,0.2,0.7,0.5,1.1,0.6L30,74.4z M38.5,72.3l-1.9-1.8c0.2-0.3,0.5-0.7,0.7-1l2.4,1.3C39.3,71.2,39,71.8,38.5,72.3L38.5,72.3z
			 M26.9,72.3c-0.5-0.5-0.8-1-1-1.6l2.4-1.3c0.2,0.3,0.5,0.7,0.7,1L26.9,72.3z M40.4,68.9l-2.6-0.7c0.1-0.5,0.1-0.8,0.1-1.3h2.7
			C40.6,67.6,40.5,68.2,40.4,68.9z M25.2,68.9c-0.1-0.6-0.2-1.3-0.2-1.8h2.6c0,0.5,0,0.8,0.1,1.3L25.2,68.9z M37.7,65.7
			c-0.1-0.5-0.2-0.8-0.5-1.1l2.4-1.3c0.3,0.6,0.6,1.3,0.7,1.8L37.7,65.7z M27.8,65.7l-2.6-0.6c0.1-0.7,0.3-1.3,0.7-1.8l2.4,1.3
			C28,64.9,27.9,65.4,27.8,65.7L27.8,65.7z M36.6,63.6c-0.2-0.3-0.6-0.6-0.9-0.8l1.5-2.2c0.6,0.3,1,0.8,1.4,1.3L36.6,63.6z
			 M28.9,63.6l-2.1-1.9c0.5-0.5,0.9-0.9,1.4-1.3l1.5,2.3C29.5,63.1,29.2,63.3,28.9,63.6L28.9,63.6z M34.5,62.3
			c-0.3-0.1-0.8-0.2-1.3-0.3l0.3-2.6c0.7,0.1,1.3,0.2,1.8,0.5L34.5,62.3z M30.9,62.3L30,59.8c0.6-0.2,1.3-0.3,1.8-0.5l0.3,2.6
			C31.7,61.9,31.3,62,30.9,62.3L30.9,62.3z"/>
		<path class="st68" d="M26.3,67c0,3.5,2.9,6.5,6.5,6.5s6.5-2.9,6.5-6.5c0-3.7-3.1-6.4-6.6-6.4l0,0C29.2,60.6,26.3,63.4,26.3,67z
			 M29.2,67c0.1-1.9,1.7-3.5,3.7-3.4s3.5,1.7,3.4,3.7c-0.1,1.9-1.6,3.4-3.5,3.4s-3.5-1.6-3.5-3.5C29.2,67.1,29.2,67.1,29.2,67z"/>
		<circle class="st68" cx="32.7" cy="67.1" r="2.5"/>
		<g class="st70">
			<path d="M135.1,42.8c0-0.7-0.1-1.4-0.3-1.9l-0.8,0.8c-0.7-0.7-1.4-1.4-2.2-1.8l1-1.5c-0.9-0.7-2.1-1-3.1-1h-1.5l-0.2,0.8
				c-0.9-0.2-1.8-0.3-2.9-0.3v-0.5h-4.6l0.5,1.3c-0.9,0.3-1.7,0.7-2.5,1.3l-1.4-2.2c-1.4,0.9-2.6,2.1-3.7,3.4l2.1,1.6
				c-0.6,0.8-1,1.6-1.5,2.4l-2.3-1c-0.7,1.6-1.1,3.2-1.3,4.9l2.5,0.2c0,0.3,0,0.7,0,1c0,0.6,0,1.1,0.1,1.7l-2.5,0.3
				c0.2,1.7,0.8,3.3,1.6,4.8l2.3-1.1c0.5,0.8,1,1.6,1.6,2.3l-1.8,1.7c1,1.3,2.3,2.4,3.8,3.3l1.3-2.2c0.8,0.5,1.7,0.8,2.6,1.1
				l-0.7,2.4c1.4,0.5,2.7,0.6,4.2,0.6h0.8l-0.1-2.5c0.9,0,1.8-0.2,2.7-0.5l0.7,2.4c1.6-0.5,3.2-1.3,4.6-2.3l-1.5-2.1
				c0.8-0.6,1.5-1.1,2.1-1.8l0.7,0.7L135.1,42.8z M125.1,57.1c-3.8,0-6.9-3.1-6.9-6.9c0-3.8,3.1-6.9,6.9-6.9c3.8,0,6.9,3.1,6.9,6.9
				l0,0C131.9,54,128.8,57.1,125.1,57.1L125.1,57.1L125.1,57.1z"/>
			<circle cx="125.1" cy="50.3" r="4.8"/>
		</g>
		<path class="st6" d="M125.3,63.5c-1.5,0-2.9-0.2-4.2-0.6l1.5-4.9c0.9,0.2,1.8,0.5,2.7,0.5h0.6l0.2,5.1L125.3,63.5
			C125.3,63.6,125.3,63.5,125.3,63.5z M129.4,62.8l-1.5-4.9c1-0.3,2.1-0.8,3-1.5l3,4.1C132.6,61.7,131.1,62.4,129.4,62.8z
			 M117.9,61.6c-1.5-0.8-2.9-1.9-3.9-3.2l3.9-3.3c0.7,0.8,1.6,1.6,2.6,2.2L117.9,61.6z M136.5,58.4l-3.9-3.3
			c0.8-0.8,1.4-1.8,1.8-2.9l4.8,1.8C138.6,55.6,137.6,57,136.5,58.4L136.5,58.4z M112,55.5c-0.8-1.5-1.4-3.2-1.6-4.8l5-0.7
			c0.1,1.1,0.5,2.2,1,3.2L112,55.5z M140.1,50.7l-5-0.7c0.2-1.1,0.2-2.3,0-3.3l5-1C140.4,47.3,140.4,49,140.1,50.7L140.1,50.7z
			 M115.4,47.7l-5.1-0.5c0.1-1.7,0.6-3.3,1.3-4.9l4.7,2.2C115.8,45.4,115.6,46.6,115.4,47.7z M134.2,44.5c-0.5-1-1-1.9-1.8-2.7
			l3.7-3.5c1.1,1.3,2.2,2.6,2.9,4.2L134.2,44.5z M117.5,42.6l-4.1-3.1c1-1.4,2.3-2.5,3.7-3.4l2.7,4.3
			C119,40.9,118.2,41.7,117.5,42.6L117.5,42.6z M130.7,40.3c-0.9-0.6-1.9-1-3.1-1.4l1.1-5c1.7,0.3,3.2,1,4.7,2.1L130.7,40.3z
			 M122,39.3l-1.7-4.8c1.6-0.6,3.3-0.9,5-0.9v5.1l0,0C124.1,38.7,123,38.9,122,39.3L122,39.3z"/>
		<path class="st66" d="M125.3,36.2c-6.9,0-12.5,5.5-12.5,12.4S118.3,61,125.2,61s12.5-5.5,12.5-12.4c0,0,0,0,0-0.1
			C137.5,41.7,132,36.2,125.3,36.2z M125.3,55.4c-3.8,0-6.9-3.1-6.9-6.9c0-3.8,3.1-6.9,6.9-6.9s6.9,3.1,6.9,6.9
			C132.2,52.3,129.1,55.4,125.3,55.4L125.3,55.4z"/>
		<circle class="st71" cx="125.3" cy="48.5" r="4.8"/>
		<path class="st4" d="M141.3,21.5c-2.5-0.3-4.2-2.6-3.9-5c0.3-2.5,2.6-4.2,5-3.9c2.5,0.3,4.2,2.6,3.9,5c-0.2,2.1-1.8,3.7-3.9,3.9
			h5.3c2.5-3.2,1.9-7.9-1.3-10.4s-7.9-1.9-10.4,1.3c-2.1,2.6-2.1,6.4,0,9.2h5.3V21.5z"/>
		<path class="st4" d="M141.9,12L141.9,12c-0.9,0-1.6-0.7-1.6-1.6V3.3c0-0.9,0.7-1.6,1.6-1.6l0,0c0.9,0,1.6,0.7,1.6,1.6v7.1
			C143.5,11.3,142.8,12,141.9,12z"/>
		<circle class="st66" cx="141.9" cy="11.1" r="3.8"/>
		<circle class="st66" cx="141.9" cy="2.4" r="2.5"/>
		<path class="st6" d="M141.4,38.9c-0.9,0-1.8-0.1-2.6-0.3l0.9-3.7c0.6,0.1,1.1,0.2,1.7,0.2L141.4,38.9L141.4,38.9z M144.2,38.6
			l-0.9-3.7c0.6-0.1,1.1-0.3,1.6-0.7l1.8,3.3C145.9,38.1,145.1,38.4,144.2,38.6z M136.3,37.7c-0.8-0.5-1.5-0.9-2.2-1.5l2.5-2.9
			c0.5,0.3,0.9,0.7,1.5,1L136.3,37.7z M148.9,36.2l-2.5-2.9c0.5-0.3,0.8-0.8,1.1-1.4l3.1,2.2C150.1,34.9,149.5,35.5,148.9,36.2z
			 M132.3,34.1c-0.5-0.8-0.9-1.6-1.3-2.4l3.5-1.4c0.2,0.6,0.5,1,0.8,1.6L132.3,34.1z M151.8,31.8l-3.5-1.4c0.2-0.6,0.3-1.1,0.5-1.7
			l3.7,0.5C152.4,30.1,152.2,30.9,151.8,31.8z M130.4,29.1c-0.1-0.9-0.1-1.8,0-2.7l3.7,0.5c-0.1,0.6-0.1,1.3,0,1.8L130.4,29.1z
			 M148.7,26.9c-0.1-0.6-0.2-1.1-0.5-1.7l3.5-1.4c0.3,0.8,0.5,1.7,0.6,2.6L148.7,26.9z M134.6,25.2l-3.5-1.4
			c0.3-0.8,0.7-1.6,1.3-2.4l3.1,2.2C135.1,24.2,134.8,24.6,134.6,25.2L134.6,25.2z M147.5,23.7c-0.3-0.5-0.7-0.9-1.1-1.4l2.5-2.9
			c0.7,0.6,1.4,1.3,1.8,2.1L147.5,23.7z M136.6,22.4l-2.5-2.9c0.7-0.6,1.4-1.1,2.2-1.5l1.8,3.3C137.6,21.6,137.1,22,136.6,22.4z
			 M145,21.4c-0.6-0.2-1-0.5-1.6-0.7l0.9-3.7c0.9,0.2,1.7,0.6,2.5,0.9L145,21.4z M139.7,20.7l-0.9-3.7c0.9-0.2,1.8-0.3,2.6-0.3v3.8
			l0,0C140.9,20.5,140.3,20.5,139.7,20.7L139.7,20.7z"/>
		<path class="st66" d="M141.5,18.6c-5.1,0-9.3,4.1-9.3,9.3s4.1,9.3,9.3,9.3s9.3-4.1,9.3-9.3S146.6,18.6,141.5,18.6L141.5,18.6z
			 M141.5,32.9c-2.9,0-5.1-2.3-5.1-5.1s2.3-5.1,5.1-5.1s5.1,2.3,5.1,5.1S144.3,32.9,141.5,32.9z"/>
		<circle class="st71" cx="141.5" cy="27.8" r="3.7"/>
		<path class="st4" d="M17.3,29.1c0,4.1,3.3,7.4,7.4,7.4s7.4-3.3,7.4-7.4s-3.3-7.4-7.4-7.4S17.3,25,17.3,29.1z M20.1,29.1
			c0-2.5,1.9-4.6,4.5-4.6c2.5,0,4.6,1.9,4.6,4.5s-1.9,4.6-4.5,4.6c0,0,0,0-0.1,0C22.2,33.5,20.2,31.6,20.1,29.1z"/>
		<path class="st4" d="M24.7,24.2L24.7,24.2c0.9,0,1.6-0.7,1.6-1.6v-7.1c0-0.9-0.7-1.6-1.6-1.6l0,0c-0.9,0-1.6,0.7-1.6,1.6v7.1
			C23.1,23.4,23.8,24.2,24.7,24.2z"/>
		<circle class="st66" cx="24.7" cy="23.2" r="3.8"/>
		<circle class="st66" cx="24.7" cy="14.5" r="2.5"/>
		<path class="st68" d="M42.7,32.3v19.1c0,1.7-1.4,3.1-3.1,3.1H9.8c-1.7-0.1-3.1-1.5-3.1-3.1V32.3c0-1.7,1.4-3.1,3.1-3.1h29.9
			C41.3,29.3,42.7,30.7,42.7,32.3z"/>
		<path class="st6" d="M39.6,29.3c1.6,0,2.9,1.4,2.9,3c0,0.1,0,0.1,0,0.2l-1.1,18.3c-0.1,1.5-1.4,2.7-3,2.7H11.1
			c-1.6,0-2.9-1.1-3-2.7L7,32.5c-0.2-1.7,1-3.1,2.6-3.2c0.1,0,0.1,0,0.2,0c-1.7,0-3,1.4-3,3.1v19c0,1.7,1.4,3.1,3.1,3.1h29.8
			c1.7,0,3.1-1.4,3.1-3.1V32.3C42.5,30.7,41.3,29.3,39.6,29.3z"/>
		<polygon class="st6" points="24.7,45 6.7,32.3 6.7,33.7 24.7,46 42.7,33.7 42.7,32.3 		"/>
		<path class="st6" d="M42.7,52l-13.3-9l-0.8,0.5L42.2,53C42.4,52.7,42.5,52.3,42.7,52z"/>
		<path class="st6" d="M7.2,53l13.6-9.6L20,42.8L6.7,52C6.8,52.3,7,52.7,7.2,53z"/>
		<path class="st4" d="M151.4,102c0-4.1-3.3-7.4-7.4-7.4c-4.1,0-7.4,3.3-7.4,7.4s3.3,7.4,7.4,7.4S151.4,106.1,151.4,102z M148.5,102
			c0,2.5-2.1,4.6-4.6,4.6s-4.6-2.1-4.6-4.6s2.1-4.6,4.6-4.6C146.6,97.5,148.6,99.5,148.5,102C148.6,102,148.6,102,148.5,102
			L148.5,102z"/>
		<path class="st4" d="M144.1,107L144.1,107c-0.9,0-1.6,0.7-1.6,1.6v7.1c0,0.9,0.7,1.6,1.6,1.6l0,0c0.9,0,1.6-0.7,1.6-1.6v-7.1
			C145.7,107.7,145,107,144.1,107z"/>
		<circle class="st66" cx="144.1" cy="107.8" r="3.8"/>
		<circle class="st66" cx="144.1" cy="116.5" r="2.5"/>
		<path class="st6" d="M144.2,68.3h-0.6c-3.4,0-6.2,2.7-6.2,6.2v8.9c0,3.4,2.7,6.2,6.2,6.2h0.6c3.4,0,6.2-2.7,6.2-6.2v-8.8
			C150.4,71.1,147.5,68.3,144.2,68.3z M148.2,82.3c0,2.4-1.9,4.3-4.3,4.3l0,0c-2.4,0-4.3-1.8-4.5-4.2v-0.1v-6.8
			c0-2.4,1.9-4.3,4.3-4.3l0,0c2.4,0,4.3,1.9,4.3,4.3L148.2,82.3z"/>
		<path class="st68" d="M138.1,82.3h11.4c2.4,0,4.2,1.9,4.2,4.2V98c0,2.4-1.9,4.2-4.2,4.2h-11.4c-2.4,0-4.2-1.9-4.2-4.2V86.5
			C133.9,84.2,135.8,82.3,138.1,82.3z"/>
		<path class="st6" d="M149.5,82.3c2.3,0.1,4,1.9,4,4.1c0,0.1,0,0.2,0,0.3l-0.7,10.9c-0.2,2.1-1.9,3.7-4,3.7H139
			c-2.1,0-3.8-1.6-3.9-3.7l-0.7-10.9c-0.2-2.3,1.4-4.2,3.7-4.5c0.1,0,0.2,0,0.3,0c-2.3,0-4.2,1.9-4.2,4.2V98c0,2.4,1.8,4.2,4.2,4.3
			c0,0,0,0,0.1,0H150c2.4,0,4.2-1.9,4.2-4.2l0,0V86.6C153.8,84.2,151.8,82.3,149.5,82.3z"/>
		<path class="st6" d="M143.8,98.1L143.8,98.1c-0.7,0-1.3-0.6-1.3-1.3v-5.7c0-0.7,0.6-1.3,1.3-1.3l0,0c0.7,0.1,1.1,0.6,1.1,1.3v5.6
			C145.1,97.4,144.5,98.1,143.8,98.1z"/>
		<path class="st6" d="M143.8,92.7L143.8,92.7c-1.6,0-2.9-1.3-2.9-2.9l0,0c0-1.6,1.3-2.9,2.9-2.9l0,0c1.6,0,2.9,1.3,2.9,2.9l0,0
			C146.8,91.5,145.4,92.7,143.8,92.7z"/>
		<circle class="st63" cx="107.4" cy="85.5" r="17.7"/>
		<circle class="st6" cx="108.8" cy="84.2" r="17.7"/>
		<path class="st72" d="M110.2,89.5V72c-0.1-0.7-0.7-1.3-1.5-1.1c-0.6,0.1-1,0.6-1.1,1.1v17.5H110.2z"/>
		<path class="st65" d="M108.9,72v17.5h1.3V72c0-0.7-0.6-1.3-1.3-1.3l0,0c-0.2,0-0.5,0-0.6,0.1C108.7,71.1,108.9,71.4,108.9,72z"/>
		<path class="st73" d="M100.5,89.5v-13c0.1-0.7-0.5-1.4-1.1-1.5s-1.4,0.5-1.5,1.1c0,0.1,0,0.2,0,0.3v13L100.5,89.5L100.5,89.5z"/>
		<path class="st65" d="M99.1,76.6v13h1.3v-13c0-0.7-0.6-1.3-1.3-1.3l0,0c-0.2,0-0.5,0-0.6,0.1C99,75.7,99.2,76.1,99.1,76.6z"/>
		<path class="st73" d="M119.9,89.5V78.7c-0.1-0.7-0.7-1.3-1.5-1.1c-0.6,0.1-1,0.6-1.1,1.1v10.8H119.9z"/>
		<path class="st65" d="M118.8,78.7v10.8h1.3V78.7c0-0.7-0.6-1.3-1.3-1.3c-0.2,0-0.5,0-0.6,0.1C118.4,77.8,118.8,78.2,118.8,78.7z"
			/>
		<path class="st74" d="M105.3,89.5V74.4c-0.1-0.7-0.7-1.3-1.5-1.1c-0.6,0.1-1,0.6-1.1,1.1v15.1H105.3z"/>
		<path class="st65" d="M104,74.4v15.1h1.3V74.4c0-0.7-0.6-1.3-1.3-1.3l0,0c-0.2,0-0.5,0-0.6,0.1C103.8,73.5,104,73.9,104,74.4z"/>
		<path class="st75" d="M115,89.5V75.2c-0.1-0.7-0.7-1.3-1.5-1.1c-0.6,0.1-1,0.6-1.1,1.1v14.4L115,89.5z"/>
		<path class="st65" d="M113.8,75.2v14.4h1.3V75.2c0-0.7-0.6-1.3-1.3-1.3l0,0c-0.2,0-0.5,0-0.6,0.1
			C113.6,74.3,113.8,74.6,113.8,75.2z"/>
		<path class="st4" d="M121.2,91H96.5c-0.1,0-0.1-0.1-0.1-0.1l0,0l0,0c0-0.1,0.1-0.1,0.1-0.1l0,0h24.7
			C121.3,90.8,121.3,90.9,121.2,91L121.2,91C121.4,91,121.3,91,121.2,91z"/>
		<text transform="matrix(1 0 0 1 98.7393 93.7054)" class="st4 st76 st77">L</text>
		<text transform="matrix(1 0 0 1 99.5391 93.7054)" class="st4 st76 st77">o</text>
		<text transform="matrix(1 0 0 1 100.4316 93.7054)" class="st4 st76 st77">r</text>
		<text transform="matrix(1 0 0 1 101.0068 93.7054)" class="st4 st76 st77">em ipsum dol</text>
		<text transform="matrix(1 0 0 1 110.7832 93.7054)" class="st4 st76 st77">o</text>
		<text transform="matrix(1 0 0 1 111.6563 93.7054)" class="st4 st76 st77">r sit am</text>
		<text transform="matrix(1 0 0 1 117.1768 93.7054)" class="st4 st76 st77">e</text>
		<text transform="matrix(1 0 0 1 118.0127 93.7054)" class="st4 st76 st77">t, </text>
		<text transform="matrix(1 0 0 1 97.1777 95.4535)" class="st4 st78 st77">c</text>
		<text transform="matrix(1 0 0 1 97.9961 95.4535)" class="st4 st78 st77">onsec</text>
		<text transform="matrix(1 0 0 1 102.2529 95.4535)" class="st4 st78 st77">te</text>
		<text transform="matrix(1 0 0 1 103.6094 95.4535)" class="st4 st78 st77">tu</text>
		<text transform="matrix(1 0 0 1 105.0957 95.4535)" class="st4 st78 st77">e</text>
		<text transform="matrix(1 0 0 1 105.9512 95.4535)" class="st4 st78 st77">r adi</text>
		<text transform="matrix(1 0 0 1 109.3145 95.4535)" class="st4 st78 st77">p</text>
		<text transform="matrix(1 0 0 1 110.2256 95.4535)" class="st4 st78 st77">iscing elit, sed </text>
		<text transform="matrix(1 0 0 1 101.2109 97.2191)" class="st4 st78 st77">diam nonum</text>
		<text transform="matrix(1 0 0 1 110.2998 97.2191)" class="st4 st78 st77">m</text>
		<text transform="matrix(1 0 0 1 111.6758 97.2191)" class="st4 st78 st77">y nibh.</text>
	</g>
</g>
</svg>
