<svg width="20" height="18" viewBox="0 0 20 18" fill="none" xmlns="http://www.w3.org/2000/svg">
<path d="M18 6.63568V13.05C18 13.6467 17.7366 14.219 17.2678 14.641C16.7989 15.0629 16.163 15.3 15.5 15.3H4.5C3.83696 15.3 3.20107 15.0629 2.73223 14.641C2.26339 14.219 2 13.6467 2 13.05V6.63568L9.746 10.7379C9.82295 10.7787 9.91066 10.8003 10 10.8003C10.0893 10.8003 10.177 10.7787 10.254 10.7379L18 6.63568ZM15.5 3.59998C16.1151 3.59989 16.7087 3.80392 17.1672 4.17304C17.6257 4.54216 17.9168 5.05045 17.985 5.60068L10 9.82798L2.015 5.60068C2.08316 5.05045 2.37432 4.54216 2.83279 4.17304C3.29127 3.80392 3.88485 3.59989 4.5 3.59998H15.5Z" fill="white"/>
</svg>
