<svg width="20" height="18" viewBox="0 0 20 18" fill="none" xmlns="http://www.w3.org/2000/svg">
<path d="M13.7961 9.67949L13.4169 10.0192C13.4169 10.0192 12.5144 10.8262 10.0519 8.62274C7.58941 6.41923 8.49191 5.61223 8.49191 5.61223L8.73024 5.39773C9.31941 4.87123 9.37524 4.02523 8.86108 3.40723L7.81108 2.14498C7.17441 1.37998 5.94524 1.27873 5.21608 1.93123L3.90774 3.10123C3.54691 3.42523 3.30524 3.84373 3.33441 4.30873C3.40941 5.49898 4.00774 8.05873 7.34441 11.0452C10.8836 14.2117 14.2044 14.3377 15.5619 14.2237C15.9919 14.1877 16.3652 13.9912 16.6661 13.7212L17.8494 12.6622C18.6494 11.9475 18.4244 10.7212 17.4011 10.221L15.8094 9.44173C15.1377 9.11323 14.3211 9.20999 13.7961 9.67949Z" fill="white"/>
</svg>
