<svg xmlns="http://www.w3.org/2000/svg" width="970.143" height="758.39" viewBox="0 0 970.143 758.39">
  <path id="Path_1" data-name="Path 1" d="M.13,735.94V52.02c1.69-2.74,4.46-3.88,7.3-4.86,47.71-16.6,96.16-30.51,145.85-39.89A369.258,369.258,0,0,1,217.5.61a3.324,3.324,0,0,0,2.36-.5h6.99c1.92,1.05,4,.25,5.99.5,1.99-.25,4.07.55,6-.5h10.99a13.44,13.44,0,0,0,7.99,0h1a10.479,10.479,0,0,0,6.99,0h3c7.71,1,15.49,1.14,23.23,1.65,9.53.63,18.42,4.25,27.79,5.65,46.94,7.03,90.96,23.37,134.14,42.36,47.61,20.94,92.56,46.74,136.76,74q54.975,33.9,110.13,67.49c28.86,17.62,55.77,37.94,82.63,58.38,26.45,20.13,53.24,39.82,79.52,60.16,14.87,11.51,28.13,24.82,40.83,38.73a367.968,367.968,0,0,1,33.92,42.39c14.3,21.26,26.1,43.79,30.43,69.35,2.16,12.73,2.19,25.7,2.02,38.69-.48,35.32-15.37,65.45-32.43,95.07a259.125,259.125,0,0,1-50.44,62.06,300.612,300.612,0,0,1-60.87,43.15c-9.08,4.87-17.94,10.16-27.04,14.98-26.54,14.04-55.1,22.27-84.23,28.7a738.453,738.453,0,0,1-74.69,12.25c-35.79,4.13-71.7,3.36-107.58,3.1-18.44-.13-36.89-.24-55.34-.79-16.12-.48-32.17-1.36-48.1-4.05-6.22-1.05-12.6-.86-18.88-1.18-14.09-.72-28.2-1.5-42.27-2.45-19.54-1.32-39.11-2.07-58.64-3.52-7.93-.59-15.91-.92-23.87-1.3-17.24-.83-34.49-1.44-51.71-2.79-7.78-.61-15.61-.64-23.39-.87-11.79-.35-23.57-1.06-35.36-1.44-19.92-.64-39.84-1.4-59.76-2.14-9.3-.35-18.6-.5-27.89-.68-11.13-.21-22.25-.36-33.38-.79-15.58-.61-31.2.55-46.78,1.62C4.85,738.05,2.14,738.28.13,735.94Z" transform="translate(-0.13 -0.11)" fill="#1d3956"/>
</svg>
